<?xml version="1.0" encoding="UTF-8"?>
<svg id="Layer_1" data-name="Layer 1" xmlns="http://www.w3.org/2000/svg" viewBox="0 0 300 300">
  <path d="m141.73,32.01c-21.57-.93-42.57,7.3-59.3,20.61-17.54,13.95-29.59,33.58-36.23,54.84-7.08,22.67-8.54,47.51-4.73,70.93,3.55,21.82,13.5,42.02,28.92,57.9,15.29,15.75,35.33,26.46,56.98,30.17,22.69,3.89,46.33.54,66.8-10.07,18.14-9.4,33.28-24.04,44.44-41.06s18.79-37.73,21.12-58.56-.63-43.55-10.64-62.65-28.28-34.05-48.1-43.77c-4.97-2.44-10.07-4.61-15.24-6.6-1.26-.49-2.74.54-3.08,1.75-.39,1.41.48,2.59,1.75,3.08,19.85,7.65,39.3,18.74,52.52,35.8,12.58,16.23,18.28,36.83,18.54,57.17.26,20.29-4.69,40.54-13.87,58.61-8.85,17.43-21.61,33.11-37.64,44.41-17.37,12.25-38.07,18.75-59.34,18.5s-42.89-7.41-59.99-20.69c-15.68-12.17-27.85-28.99-34.13-47.84-3.94-11.84-5.62-24.3-5.96-36.74-.3-11.01.45-22.06,2.46-32.89,3.98-21.33,12.81-42.17,27.64-58.24,13.79-14.95,32.29-25.77,52.51-28.89,4.81-.74,9.7-.96,14.55-.75,3.22.14,3.21-4.86,0-5h0Z" style="fill: #212b50;"/>
  <path d="m187.73,61.35c-1.74-4.25-3.48-8.5-5.22-12.75l-1.31-3.19c-.2-.49-.39-1.43-.75-1.82-.19-.76-.48-.49-.87.82l-.08.04c-.09-.06.87-.04,1.01-.04.49,0,.99,0,1.48,0,1.23,0,2.46,0,3.7,0,9.28.02,18.57.04,27.85.06,3.22,0,3.22-4.99,0-5-10.43-.02-20.87-.04-31.3-.07-2.09,0-4.52-.28-6.06,1.44-1.95,2.16-.14,5.06.76,7.26,1.99,4.86,3.98,9.71,5.97,14.57.51,1.25,1.66,2.13,3.08,1.75,1.18-.32,2.26-1.82,1.75-3.08h0Z" style="fill: #212b50;"/>
</svg>