<?xml version="1.0" encoding="UTF-8"?>
<svg id="Layer_1" data-name="Layer 1" xmlns="http://www.w3.org/2000/svg" viewBox="0 0 300 300">
  <path d="m236.22,142.79l.18-7.37-.19-7.37-1.59-7.37,1.45-7.37-1.93-7.37.31-7.37-.43-7.37.41-7.37-.25-6.43s0,0,0,0c-.68-.53-1.69-1.04-2.28-1.27-.45-.17-.85-.25-1.22-.31-.97.53-1.88,1.16-2.68,1.75l-2.01,2.9-6.89,3.47-4.47,5.9-4.77,5.6-5.4,4.96-6.64,3.72-3.46,6.93-5.51,4.85-6,4.35-5.25,5.12-3.87,6.49-5.31,5.05-6.18,4.17-3.53,5.37,3.6,5.3,4.95,5.46,6.16,4.21,5.57,4.8,4.45,5.92,4.02,6.36,5.25,5.12,7.09,3.26,4.78,5.58,4.21,6.16,6.24,4.12,4.5,5.86,4.93,5.44,5.54,4.82,5.07,4.22,1.22-6.63-1.42-7.38,1.54-7.37-2.45-7.37,1.3-7.37-.94-7.37,2-7.37.4-7.37.19-7.36-.89-7.37.2-7.37Z" style="fill: #db3f29;"/>
  <polygon points="135.95 76.23 129.73 74.28 125.07 80.29 121.64 87.08 116.23 92.16 110.14 96.64 105.36 102.26 101.13 108.35 97.57 115.02 92.04 120 86.25 124.74 81.62 130.5 76.72 136.01 71.68 141.41 68.63 148.55 62.09 153.31 69.32 156.89 73.11 163.75 79.96 167.01 84.49 172.99 90.16 177.64 95.59 182.56 101.64 186.76 106.96 191.82 112.52 196.59 119.04 200.24 123.56 206.25 130.22 209.72 136.2 214.01 140.14 220.71 146.71 224.62 145.76 217.4 146.88 210.23 143.63 203.4 145.67 196.16 142.57 189.31 144.17 182.1 143.81 175.04 143.37 167.98 142.7 160.95 141.27 153.97 140.5 146.94 141.2 139.79 140.59 132.76 139.51 125.75 137.99 118.78 138.3 111.67 137.57 104.63 136.73 97.61 135.69 90.6 137.04 83.46 135.95 76.23" style="fill: #d7a449;"/>
  <path d="m229.12,87.23c0,17.02,0,34.04,0,51.06s0,34.04,0,51.06c0,9.63,0,19.26,0,28.89,0,3.22,5,3.22,5,0,0-17.02,0-34.04,0-51.06,0-17.02,0-34.04,0-51.06,0-9.63,0-19.26,0-28.89,0-3.22-5-3.22-5,0h0Z" style="fill: #212b50;"/>
  <path d="m227.27,82.09c-19.4,19.88-38.79,39.77-58.19,59.65-5.46,5.6-10.92,11.19-16.38,16.79-.9.92-1.03,2.63,0,3.54,19.96,17.5,39.91,34.99,59.87,52.49,5.61,4.92,11.23,9.84,16.84,14.76,1.01.89,2.54,1,3.54,0,.91-.91,1.02-2.64,0-3.54-19.96-17.5-39.91-34.99-59.87-52.49-5.61-4.92-11.23-9.84-16.84-14.76v3.54c19.4-19.88,38.79-39.77,58.19-59.65,5.46-5.6,10.92-11.19,16.38-16.79,2.25-2.3-1.28-5.84-3.54-3.54h0Z" style="fill: #212b50;"/>
  <path d="m133.52,83.27c1.3,18.59,2.3,37.2,2.99,55.82s1.09,37.09,1.18,55.64c.05,10.52,0,21.04-.13,31.55-.04,3.22,4.96,3.22,5,0,.24-18.63.19-37.27-.16-55.9-.36-18.55-1.01-37.09-1.96-55.62-.54-10.5-1.18-21-1.91-31.5-.09-1.35-1.08-2.5-2.5-2.5-1.28,0-2.59,1.15-2.5,2.5h0Z" style="fill: #212b50;"/>
  <path d="m141.26,224.75c-23.01-13.07-41.53-32.26-62.06-48.66-5.9-4.71-11.96-9.22-18.32-13.3-2.72-1.74-5.23,2.58-2.52,4.32,22.3,14.31,40.64,33.72,61.75,49.6,5.96,4.49,12.15,8.67,18.63,12.36,2.8,1.59,5.32-2.73,2.52-4.32h0Z" style="fill: #212b50;"/>
  <path d="m130.82,75.67c-18.34,21.58-36.52,43.29-54.55,65.14-5.1,6.18-10.18,12.37-15.25,18.56-.85,1.04-1.02,2.51,0,3.54.88.88,2.68,1.05,3.54,0,17.94-21.92,36.03-43.7,54.28-65.36,5.16-6.12,10.34-12.24,15.52-18.34.87-1.03,1.01-2.53,0-3.54-.9-.9-2.66-1.03-3.54,0h0Z" style="fill: #212b50;"/>
</svg>