<?xml version="1.0" encoding="UTF-8"?>
<svg id="Layer_1" data-name="Layer 1" xmlns="http://www.w3.org/2000/svg" viewBox="0 0 300 300">
  <path d="m261.16,101.54c-5.44-13.75-16.25-25.42-29.75-31.56-7.6-3.46-15.67-4.94-23.72-4.67.16-2.68.19-5.36.02-8.02-.49-7.75-2.64-15.7-7.74-21.74-4.7-5.58-16.58-1.87-22.41.33-15.94,6.02-28.31,18.57-39.11,31.31-17.47,20.61-31.67,43.85-42.21,68.69-2.8,4.25-4.98,8.99-6.49,14.02-.84,2.8-1.51,5.7-1.99,8.67-1.98,6.13-3.73,12.32-5.25,18.57-14.61,4.4-28.98,11.89-38.5,24.05-10.17,12.98-13.04,30.76.75,42.39,9.18,7.74,21.01,9.61,32.88,9.73.78,1.81,1.76,3.53,3,5.12,10.2,13.07,30.38,9.58,43.62,3.88,8.59-3.7,16.23-9.14,22.81-15.68,2.96-.54,5.92-1.11,8.87-1.72.84-.17,1.67-.36,2.51-.54,10.84,6.03,26.36,6.91,33.46-5.02.83-1.39,1.48-2.84,2-4.31,6.03-1.89,12.01-3.9,17.95-6.07,6-2.19,3.41-11.86-2.66-9.64-4.64,1.69-9.31,3.3-14.01,4.82-.2-2.57-.73-5.16-1.49-7.69,14.09-5.64,26.64-14.61,37.15-25.52,11.22-11.66,20.36-25.47,26.77-40.33,6.72-15.56,9.97-32.82,3.56-49.04Zm-96.29-46.85c8.2-6.55,17.67-11.37,28.19-11.74,4.72,6.78,5.32,15.41,4.45,23.62-3.69.8-7.32,1.95-10.86,3.45-21.31,9.03-34.8,26.73-43.01,47.1-7.05-1.72-14.52-1.76-21.8.1-2.42.62-4.71,1.45-6.9,2.44,2.04-3.86,4.18-7.68,6.42-11.44,11.55-19.42,25.72-39.32,43.51-53.54Zm2.15,129.89c-2.47-1.46-5.02-2.79-7.65-3.98,3.03-4.04,5.93-8.19,8.7-12.43.32-.35.65-.69.96-1.05.15-.17.27-.35.39-.53-.05,3.75-.45,7.53-1.09,11.25-.39,2.24-.83,4.49-1.31,6.74Zm7.75,18.82c1.82,1.92,3.6,4.18,5.16,6.64-3.52.83-7.09,1.44-10.71,1.8,1.36-3.36,2.59-6.78,3.7-10.24.63.6,1.26,1.18,1.86,1.81Zm-43.68,35.77c-13.17,1.94-26.47,3.14-39.77,3.68-1.98.08-4.02.19-6.1.28-.04-.28-.08-.55-.11-.84-.29-2.74-.42-5.52-.43-8.33,9.52,3.48,22.54-3.87,30.09-9.28,3.66-2.62,7.21-5.37,10.66-8.24,4.11,1.24,8.28,2.23,12.37,3.08,1.97,4.96,4.55,9.59,7.84,13.73-1.14,1.42-2.33,2.8-3.57,4.14-3.65.65-7.32,1.25-10.99,1.79Zm26.67-74.92c-1.26,1.12-2.57,2.16-3.94,3.13.33-1.38.59-2.77.8-4.16,1.09.25,2.14.59,3.14,1.03Zm-71.15,45.58c1.65-4.96,4.43-9.91,7.38-14.24.56.87,1.15,1.71,1.78,2.54,4.92,6.44,11.53,10.96,18.82,14.27-1.81,1.39-3.63,2.76-5.49,4.08-4.47,3.17-21.39,14.13-23.77,4.54.35-3.78.81-7.53,1.28-11.19Zm47.63-56.02c-.06.43-.12.87-.17,1.31-1.4.38-2.78.8-4.11,1.24-.03-.07-.07-.14-.09-.21-1.64-4.41-8.27-5.07-9.64,0-.41,1.51-.79,3.07-1.15,4.66-5.38,2.64-10.45,5.82-15.13,9.52-2.14-1.41-3.97-3.26-4.32-5.84-.52-3.78,1.86-7.83,3.68-10.97,6.09-10.49,20.85-25.35,33.63-15.59.06.05.12.1.18.15-1.21,5.23-2.16,10.51-2.88,15.74Zm-1.95,19.28c-1.66-.22-3.32-.41-4.98-.55.1-1.03.22-2.07.37-3.09,1.41,1.16,2.97,2.14,4.66,2.93-.01.24-.03.47-.04.71Zm-.3,12.81c.02,1.55.07,3.11.15,4.66-.66,1.15-1.6,2.63-2.26,2.59-1.06-.07-1.76-3.68-1.9-4.33-.18-.87-.33-1.74-.46-2.62,1.49-.04,2.98-.14,4.47-.3Zm11.42-18.82c-.19-.49-.47-.95-.85-1.34.09-.83.17-1.67.27-2.5.51-.09,1.02-.16,1.53-.23-.26,1.37-.58,2.73-.95,4.07Zm-32.27,32.01c-4.69-3.23-8.09-7.4-10.4-12.14,1.32-1.48,2.7-2.9,4.13-4.27.44-.05.87-.11,1.31-.15.9.35,1.8.68,2.69.98,2.74.91,5.55,1.59,8.38,2.04.28,2.46.72,4.88,1.38,7.2,1.29,4.56,4.34,8.1,7.99,9.51-1.09,1.01-2.2,2-3.32,2.99-4.3-1.6-8.43-3.58-12.17-6.15Zm33.14-45.95c.12-.74.24-1.49.37-2.22.12.71.22,1.43.29,2.16-.22.02-.44.04-.66.07Zm-4.47-25.11c-1.75-.97-3.63-1.72-5.59-2.25.79.02,1.58.05,2.37.12,1.25.11,2.49.31,3.71.56-.17.52-.33,1.04-.49,1.56Zm12.1,96.36c-.58-.92-1.14-1.86-1.66-2.81,1.04.12,2.07.23,3.11.32-.48.84-.95,1.68-1.46,2.5Zm6.39-12.23c-4.13-.13-8.31-.56-12.53-1.28-.1-.31-.2-.62-.29-.93-.98-3.3-1.73-6.67-2.3-10.1,3.34-3.53,6.55-7.17,9.65-10.92,4.05,1.64,7.97,3.65,11.65,6.03-1.67,5.85-3.7,11.63-6.17,17.2Zm5.55-55.99c-2.75-1.5-5.77-2.43-8.93-2.9-.42-4.58-1.64-9.08-3.79-13.33-.88-1.73-1.92-3.34-3.09-4.84.46-1.74.96-3.48,1.49-5.21,5.39,2.92,10.05,7.21,13.42,12.32,1.78,2.69,3.13,5.52,4.13,8.44-1.06,1.85-2.13,3.69-3.24,5.51Zm1.48-26.77c-3.67-3.71-7.89-6.7-12.44-8.93,6.05-14.87,15.33-28.2,29.36-36.93,4.27-2.66,8.79-4.68,13.4-6.05-2.13,9.72-5.16,19.31-8.42,28.67-3.99,11.46-8.73,22.67-14.22,33.49-2.01-3.66-4.55-7.1-7.67-10.26Zm-110.34,109.25c-4.22-2.44-8.03-6.2-9.44-10.98-1.77-6.02.88-12.24,4.09-17.27,5.81-9.09,15.18-15.36,24.87-19.71,1.81-.81,3.65-1.54,5.51-2.24-1.38,6.96-2.5,13.97-3.34,21.02-1.31,4.26-2.09,8.81-1.26,13.06-.32,4.54-.51,9.09-.53,13.63,0,2.36.07,4.77.32,7.16-7.14-.17-14.22-1.21-20.22-4.68Zm34.38,14.35c2.25-.11,4.47-.24,6.65-.36,9.98-.53,19.96-1.44,29.88-2.71-12.35,6.75-28.76,11.47-36.53,3.07Zm70.99-19.29c-.59-.44-1.16-.9-1.71-1.38.74-1.12,1.46-2.26,2.15-3.41,1.29-2.17,2.51-4.39,3.67-6.66,6.67-.14,13.3-.99,19.82-2.7.71,2.54,1.05,5.12.91,7.67-8.21,2.42-16.49,4.58-24.83,6.47Zm87.9-86.54c-8.68,19.49-22.17,37.57-39.73,49.9-6.04,4.24-12.33,7.57-18.84,10.02-2.12-3.83-4.68-7.33-7.37-10.23-2.01-2.17-4.16-4.17-6.42-6.03,1.11-4.67,2-9.37,2.65-14.03,1.17-8.39,1.05-16.81-.83-24.71.24-.44.5-.88.74-1.33,7.89-14.57,14.41-29.91,19.66-45.63,3.14-9.41,6.49-19.45,8.32-29.58,11.69-.76,23.36,2.83,32.84,11.52,7.32,6.7,12.59,15.39,14.67,25.13,2.51,11.78-.91,24.21-5.7,34.97Z" fill={state.brand}/>
</svg>