<?xml version="1.0" encoding="UTF-8"?>
<svg id="Layer_1" data-name="Layer 1" xmlns="http://www.w3.org/2000/svg" viewBox="0 0 300 300">
  <path d="m131.02,248.49c-.55,0-1.05-.06-1.52-.17-1.68-.39-3.06-1.4-3.89-2.84-.74-1.29-.85-2.77-.42-4.08-4.46,1.67-7.51,2.09-9.73,1.57-1.92-.45-3.48-1.58-4.41-3.19-1.39-2.4-1.15-4.9.55-7.72-1.56.89-2.97,1.69-4.22,2.4q-7.84,4.44-9.95,3.88c-1.28-.34-2.38-1.18-3.05-2.33-.1-.17-2.34-4.18,2.05-6.99l5.91-3.73c43.63-27.49,73.67-46.87,94.32-60.54-26.58,15.52-63.25,37.93-108.24,66.6-1.15.73-2.55.96-3.88.64-1.33-.32-2.46-1.18-3.14-2.36-.47-.81-.93-2.06-.6-3.52-8.52,3.45-10.87,2.9-12.49,2.52-1.85-.43-3.36-1.52-4.25-3.06-1.72-2.97-.64-5.93,1.96-8.98-2.87,1.22-4.19,1.24-5.43.94-1.42-.35-2.59-1.23-3.31-2.47-2.16-3.74.37-6.92,3.98-9.92-5.99,3.08-6.76,2.88-8.19,2.5-1.29-.34-2.43-1.2-3.09-2.36-.51-.88-1.01-2.2-.92-3.9-2.1.24-3.26-.02-4.16-.23-2.12-.48-3.84-1.7-4.84-3.43-.63-1.09-1.24-2.88-.59-5.26.05-.2.11-.41.18-.63-2.7.87-4.64,1.07-6.05.73-1.64-.4-2.99-1.39-3.81-2.8-1.35-2.34-.6-5.34,1.71-6.76.08-.05.16-.1.24-.15-2.58.65-4.07.54-5.3.24-1.72-.42-3.13-1.45-3.97-2.91-.86-1.49-1.06-3.29-.58-5.07.39-1.44.93-3.43,5.81-8.03-1-.46-1.82-1.21-2.38-2.18-.85-1.48-1.06-3.25-.58-4.98.45-1.66,1.61-3.46,3.88-5.69-1,.67-2,1.35-3.01,2.03-1.15.78-2.57,1.04-3.92.73-1.35-.31-2.52-1.17-3.21-2.37-2.28-3.95.96-6.84,4.01-9.03-1.11.09-2.03.02-2.83-.17-1.75-.43-3.18-1.47-4.04-2.95-.77-1.34-.97-2.93-.55-4.49.48-1.77,1.74-3.65,5.22-6.54-2.22.78-4.75-.11-5.97-2.22-2.41-4.18,1.49-6.79,3.81-8.35,1.48-.99,3.67-2.41,6.71-4.34,5.7-3.62,13.82-8.7,23.23-14.59,11.16-6.98,24.51-15.33,38.14-23.96-21.56,12.73-43.73,25.93-61.92,36.83-1.15.69-2.53.89-3.83.55-1.3-.34-2.41-1.18-3.08-2.34-3.17-5.49,2.84-11.14,8.72-16.01.24-.2.49-.4.74-.61-.63-.43-1.17-1-1.56-1.66-1.33-2.31-.62-5.26,1.62-6.7,7.88-5.08,15.89-10.33,23.72-15.54-9.25,5.61-11.22,5.96-13.44,5.43-1.43-.34-2.62-1.22-3.35-2.48-.81-1.4-1.63-4.18,1.92-7.07.53-.43,1.32-1.05,2.32-1.82,1.91-1.47,4.65-3.53,7.87-5.96,3.85-2.9,9.91-7.46,16.3-12.38-.81-.44-1.5-1.1-1.97-1.91-1.38-2.39-.56-5.45,1.84-6.83.15-.09.31-.17.47-.24.7-.43,2.62-1.68,4.48-2.9,21.68-14.2,24.7-15.21,27.8-14.47,1.45.35,2.66,1.24,3.4,2.51,1.19,2.07.85,4.07-.17,5.92,16.45-10.14,21.92-12.3,25.46-11.46,1.57.38,2.86,1.33,3.64,2.68.79,1.37,1.04,2.71.7,4.15,12.86-7.05,19.2-9.15,22.61-8.33,1.67.4,3.05,1.41,3.87,2.84,2.46,4.26-1.78,7.25-3.82,8.68-.42.29-.88.61-1.4.96,18.89-10.6,19.77-10.37,21.97-9.8,1.3.34,2.47,1.22,3.14,2.38,2.17,3.76-.21,7.31-5.38,11.75l15.59-9c2.39-1.38,5.45-.56,6.83,1.83.64,1.1,1.26,2.91.62,5.29-.2.75-.55,1.54-1.06,2.39,3.03-1.35,4.16-1.25,5.43-.94,1.42.34,2.59,1.22,3.31,2.47.97,1.68,1.1,3.36.61,5.06,2.07-.27,3.17-.02,4.02.17,1.99.46,3.61,1.62,4.56,3.26.55.95,1.09,2.4.89,4.28,2.16-.38,3.95-.4,5.39-.06,2.76.65,4.21,2.28,4.93,3.54.67,1.15.84,2.53.49,3.81s-1.2,2.38-2.36,3.04c-.45.26-45.61,25.91-91.18,53.47-46.79,28.29-70.73,44.5-82.96,53.73,5.96-3.16,14.11-7.77,25.26-14.46,21.36-12.83,47.1-29.27,71.99-45.18,19.57-12.5,38.05-24.31,52.13-32.89,23.6-14.37,26.53-14.68,29.36-13.99,1.47.36,2.69,1.27,3.44,2.55,1.77,3.06.38,5.63-2.62,8.39,1.38-.24,2.47-.22,3.37,0,1.64.4,2.99,1.39,3.8,2.79.67,1.16.84,2.53.49,3.82-.35,1.29-1.2,2.38-2.37,3.04-93.53,52.77-157.2,93.7-174.94,109.25,1.59-.58,3.52-1.36,5.85-2.39,14.97-12.14,46.45-30.67,99.49-60.65,8.94-5.05,18.55-10.49,27.68-15.73,24.33-16.04,42.06-28.17,42.33-28.36,1.15-.79,2.57-1.06,3.93-.75,1.36.31,2.53,1.17,3.22,2.38.76,1.32.95,2.88.54,4.4-.39,1.42-1.36,2.92-3.56,4.92,1.53-.9,3.04-1.8,4.53-2.68,1.15-.68,2.52-.87,3.81-.53,1.29.34,2.39,1.18,3.06,2.34,1.54,2.67,1.07,5.15-2.39,8.65,1.01-.09,1.85-.02,2.57.15,1.67.41,3.05,1.42,3.87,2.85,2.6,4.5-1.81,7.57-5.7,10.28-2.83,1.98-7.02,4.7-12.8,8.32-10.77,6.75-26.07,15.98-42.27,25.75-24.54,14.81-52.35,31.59-74.73,45.9-11.88,7.59-20.29,13.26-26.24,17.49,26.25-13.24,79.92-45.57,149.65-92.09,1.15-.77,2.57-1.02,3.91-.71,1.35.31,2.5,1.17,3.19,2.37,1.68,2.92.56,5.4-2.4,8.21,2.89-.84,3.98-.58,4.93-.35,1.55.38,2.84,1.33,3.61,2.66,2.58,4.47-1.97,8.23-5.28,10.97-1.61,1.34-3.69,2.94-6.19,4.81,1.55.15,3,1.02,3.85,2.46,1.39,2.39.58,5.45-1.81,6.83,0,0,0,0,0,0h0s-.03.02-.04.02c-.16.09-.76.44-1.75,1.02-53.82,31.33-92.81,56.93-109.67,70.27,4.74-2.41,11.33-6.09,20.48-11.68,16.24-9.92,35-22.43,51.54-33.46,35.23-23.49,37.02-24.29,40.41-23.5,1.4.33,2.61,1.22,3.33,2.46,2.65,4.59-.23,9.55-11.35,18.61.44.39.83.86,1.13,1.39,2.37,4.11-1.2,7.09-4.97,10.24-2.49,2.08-6.08,4.9-10.97,8.62-1.93,1.47-3.99,3.02-6.15,4.63.98.42,1.82,1.16,2.36,2.09,1.38,2.39.56,5.45-1.83,6.83-.21.12-.42.22-.64.31-1.21.68-5.67,3.48-9.99,6.19-41.01,25.71-44,26.4-47.33,25.57-1.41-.35-2.59-1.23-3.31-2.47-1.35-2.34-.67-4.25.57-5.79-11.52,7.03-17.61,9.78-21.45,9.78Zm79.11-32.94c.7.08,1.39,0,2.02-.2-.66.21-1.35.27-2.02.2Zm-3.78-2.44c.32.55.73,1.01,1.19,1.37-.46-.37-.87-.83-1.19-1.37Zm0,0s0,0,0,0c0,0,0,0,0,0Zm0,0s0,0,0,0c0,0,0,0,0,0Zm-25.56-153.26c-5.71,4.06-12.79,8.79-21.37,14.3-15.02,9.64-32.55,20.3-50.14,30.81,6.26-3.51,12.56-7.06,18.79-10.57,26.96-17.54,46.97-29.85,61.31-37.23,1.9-1.38,3.46-2.57,4.75-3.61-3.5,1.44-7.96,3.55-13.33,6.3Zm-116.11-20.95c1.73,0,3.41.9,4.33,2.5-1.35-2.33-4.07-2.96-6.04-2.19.56-.2,1.13-.3,1.71-.3Z" fill={state.brand}/>
  <g>
    <path d="m232.52,250.64c-.38,0-.79-.05-1.22-.16-1.31-.33-2.44-1.18-3.12-2.35-2.6-4.51,1.11-9.34,14.38-22.54,3.05-3.04,6.16-6.03,8.75-8.49.22-2.52,2.35-6.72,8.45-17.26-.58-2.61,1.01-5.75,4.55-12.75.76-1.49,1.76-3.47,2.46-4.96-.25-1.52-.18-4.48.51-12.11-1.07-1.93-.77-2.72,1.41-8.52.59-1.57,1.48-3.94,2.29-6.15-.2-.23-.38-.48-.53-.75-.67-1.15-.94-2.43-1.9-9.13-1.1-.4-2.03-1.18-2.62-2.2-.83-1.43-.86-1.87-.78-11.32-.55-.41-1.01-.92-1.36-1.53-.41-.71-.43-.75-2.04-6.88-4.16,1.86-6.19-.87-6.74-1.8-.54-.94-.64-1.1-2.37-10.01-.12-.64-.26-1.32-.37-1.9-.03-.05-.06-.1-.09-.15-.12-.21-.51-.89-4.04-8.86-.64-.4-1.19-.94-1.6-1.59-.46-.68-3.14-4.25-4.75-6.4-.3-.4-.57-.76-.8-1.07-1.03-.33-1.93-.98-2.56-1.86-.39-.51-2.62-3.29-4.26-5.33-.26-.32-.5-.62-.72-.9-2.8,1.63-3.56,1.89-5.37,1.41-1.29-.34-2.39-1.18-3.05-2.33-.52-.9-.82-1.8-1.85-6.95-1.26.6-2.09.68-3.39.33-.73-.19-1.4-.55-1.97-1.04l-7.4-6.34c-.22-.02-.45-.06-.69-.12-.67-.17-1.3-.47-1.84-.88-.76-.4-3.2-1.53-10.81-4.67-.64.14-1.37.17-2.19-.02-.54-.13-1.05-.34-1.51-.63-.62-.3-2.45-1.09-3.95-1.74-3.21-1.39-5.4-2.35-6.92-3.07-.43.06-.89.07-1.4,0-9.23-.98-14.41-1.65-17.43-2.29-.73.28-1.7.47-2.87.21-.12-.03-.25-.06-.37-.1-2.44.14-9.79,1.59-14.77,2.58-3.75.74-7.28,1.44-10.05,1.9-1.95.32-3.86.64-5.52.49-1.71.06-3.39-.73-4.38-2.24-1.5-2.29-.91-5.35,1.37-6.88,1.35-.9,2.75-1.19,4.17-.86,2.05-.17,8.02-1.35,12.47-2.23,4.1-.81,8.33-1.65,11.64-2.18,2.02-.32,3.93-.63,5.59-.6.88-.39,1.96-.63,3.25-.33.36.08.71.21,1.04.37,1.96.45,9.1,1.36,15.55,2.07.74-.33,1.88-.63,3.25-.28.68.17,1.3.48,1.84.9,1.19.64,5.26,2.4,7.51,3.38,1.08.47,1.97.85,2.7,1.18.59-.11,1.27-.12,2.02.06.32.08.63.18.92.32.16.07.49.2.96.39,5.83,2.4,9.27,3.85,11.38,4.85.46-.03.98,0,1.54.13.76.19,1.47.55,2.07,1.06l6.63,5.68c3.7-2.18,4.4-2.5,6.35-1.99,1.3.34,2.4,1.18,3.07,2.34.48.83.49.91,1.3,5.07.11.55.24,1.24.39,1.99,1.18-.53,1.97-.58,3.2-.25,1.11.29,2.09.96,2.76,1.88.31.4,1.74,2.18,3.27,4.08,1.18,1.47,2.06,2.57,2.72,3.39,1.14.32,2.12,1.03,2.78,2.01.25.35,1.2,1.62,2.33,3.12,1.58,2.11,2.67,3.56,3.42,4.58,1.12.4,2.07,1.19,2.66,2.22.09.15.17.31.24.48,1.54,3.5,3.25,7.34,4.17,9.36.33.32.61.68.84,1.09q.46.79,1.32,5.26c.09.48.2,1.04.32,1.64,1.06-.5,2.27-.61,3.41-.31,1.29.34,2.38,1.18,3.05,2.33q.4.7,1.96,6.64c.15.57.32,1.22.49,1.87,1.17.38,2.16,1.18,2.78,2.24q.75,1.29.69,7.49c0,.91-.02,2.09-.03,3.28.39.22.76.49,1.09.82.31.31.58.66.79,1.04.57.98.6,1.26,1.26,5.92.1.75.24,1.7.38,2.68.13.02.26.05.39.09,1.28.34,2.37,1.18,3.04,2.33,1.43,2.48,1.08,3.57-4.03,17.14-.18.49-.37.99-.55,1.47.07.42.08.84.04,1.27-.35,3.62-.7,7.83-.84,10.45.03.05.06.1.09.15,1.68,2.91.47,5.3-3.55,13.24-.56,1.11-1.29,2.56-1.96,3.91,1.2,2.35.27,3.95-1.52,7.02-2.09,3.59-3.81,6.6-5.14,9,.3.31.53.62.67.87,1.18,2.03.78,4.61-.95,6.19-9.85,9.03-20.97,20.02-25.34,25.36.31,1.98-.6,4.03-2.43,5.1-.14.08-.27.15-.41.22-.11.07-.23.14-.35.22-.77.48-1.85,1.15-3.3,1.15Zm-2.76-3.39c1.38,2.36,4.16,2.97,6.14,2.14-2.25.88-4.88.02-6.14-2.14Zm43.07-97.37h0Zm-26.36-50.82s.04.08.08.14c-.03-.04-.06-.09-.08-.14Zm-15.97-19.15c.12.19.26.37.4.54-.21-.28-.33-.43-.4-.54Zm-6.44-12.65l.28.24c.43.37.8.81,1.08,1.31-.37-.65-.84-1.16-1.37-1.55Zm-17.42-.95c.18.31.38.58.58.79-.22-.24-.41-.51-.58-.79Zm-14.93-5.61c.23.4.5.73.76.99-.29-.3-.54-.63-.76-.99Zm-59.05-1.1s0,0,0,0c0,0,0,0,0,0Zm24.95-6.44c.11.19.22.36.34.52-.12-.16-.24-.34-.34-.52Zm0,0h0s0,0,0,0Zm0,0s0,0,0,0c0,0,0,0,0,0Zm-23.14-.36s0,0,0,0c0,0,0,0,0,0Zm-.72-.96c.28.29.52.61.72.96-.22-.37-.46-.69-.72-.96Zm52.45-1.66s0,0,0,0c0,0,0,0,0,0Zm-4.09-2.51c.1.01.19.02.29.03,1.59.17,3.01,1.09,3.81,2.48-.94-1.63-2.54-2.43-4.09-2.51Zm5.08,1.92s0,0,0,0c0,0,0,0,0,0Zm0,0s0,0,0,0c0,0,0,0,0,0Zm0,0s0,0,0,0t0,0Zm-20.44-3.06c.27.28.51.6.71.94-.22-.37-.46-.68-.71-.94Z" style="fill: #03081b;"/>
    <path d="m178.94,278.48c-.25,0-.5-.02-.77-.06-9.01-.94-14.11-1.62-17.11-2.28l-2.63,1.52c-1.15.66-2.51.84-3.79.5-.38-.1-.75-.25-1.09-.43-1.57-.38-6.23-1.01-9.09-1.4-2.45-.33-4.27-.58-5.66-.82-.25.15-.52.31-.78.46-3.02,1.79-3.93,2.32-5.98,1.79-1.01-.26-1.91-.84-2.57-1.63-.46-.52-3.79-4.2-6.61-7.29-.54-.14-1.05-.38-1.51-.69-1.97-.62-8.68-1.73-14.68-2.53-.71.25-1.65.4-2.76.15-1.35-.31-2.51-1.18-3.21-2.38q-.27-.46-1.28-3.46c-.34-1-.87-2.58-1.4-4.11-.27-.03-.56-.08-.86-.16-.87-.23-1.66-.68-2.29-1.31-.8-.54-3.23-1.9-10.01-5.28-.09-.05-.18-.09-.27-.13,0,0,0,0,0,0-1.47-.25-2.75-1.15-3.5-2.44-.62-1.07-.78-1.89-1.4-7.02-4.48,2.55-4.82,2.46-6.44,2.02-1.28-.34-2.37-1.17-3.04-2.32-.73-1.25-.7-2.13-.64-3.73.1-3.16.17-5.5.2-7.22-.67-.43-1.23-1.01-1.63-1.71-.15-.26-.26-.44-2.77-6.31-2.4,1.29-2.85,1.17-4.26.79-1.27-.34-2.36-1.16-3.02-2.3-.32-.54-.35-.59-2.83-9.93-.41-.36-.77-.79-1.05-1.27-.24-.41-.56-.97-3.62-9.8-.52-.4-.97-.9-1.3-1.48-1.01-1.75-.96-3.18.17-8.71-.94.3-1.43.17-2.26-.06-2.61-.69-4.19-3.33-3.58-5.96.49-2.1,1-4.39,1.44-6.5-2.51-.76-4.02-3.34-3.42-5.92l2.55-10.96c-.08-.12-.16-.24-.24-.37-1.24-2.15-1.75-3.02,5.05-18.78-.26-2.32,1.21-5.63,5.28-14.58.24-.52.49-1.08.74-1.62-.5-2.01.53-3.82,1.87-6.17.85-1.5,2.03-3.51,3.27-5.62.45-.77.97-1.65,1.51-2.58-.24-.26-.44-.55-.62-.85-2.69-4.65,2.07-8.79,6.28-12.43,3.62-3.14,8.46-6.94,13.58-10.95,2.28-1.79,4.93-3.87,7.53-5.95l-2.39-4.33c.24-.14,1.01-.61,2.1-1.27,15.22-9.28,15.37-9.25,17.83-8.62,1.3.33,2.44,1.19,3.12,2.36,3.35,5.8-3.04,10.82-22.02,25.69-3.57,2.8-7.85,6.16-11.27,8.99.38,2.08-.77,4.12-2.54,7.28-1.26,2.24-2.9,5.03-4.49,7.73-.79,1.35-1.73,2.95-2.52,4.32.14,1.55-.73,3.47-2.88,8.18-.96,2.11-2.67,5.86-3.67,8.32.25,1.04.17,2.16-.28,3.19-1.71,3.9-3.58,8.38-4.83,11.6.6,1.05.81,2.32.52,3.59l-1.77,7.59c.97.43,1.79,1.15,2.33,2.08.73,1.27,1.16,2-.02,8.2.66-.09,1.34-.06,2,.12,1.28.34,2.38,1.18,3.04,2.33,1.08,1.88.92,2.62-.59,9.79-.36,1.69-.86,4.09-1.2,5.89.06.14.12.28.17.42,1.08,3.13,2.26,6.53,3.07,8.77.96.67,1.68,1.66,1.99,2.82,0,0,.69,2.59,1.42,5.32,1.17-.58,2.52-.67,3.77-.26,1.36.45,2.47,1.46,3.03,2.78.83,1.93,1.93,4.5,2.85,6.65.23.03.47.08.73.14,1.3.34,2.4,1.18,3.07,2.34.64,1.1.89,1.54.78,7.62,2.35-1.36,3.31-1.78,5.2-1.24,1.25.36,2.31,1.18,2.96,2.31.67,1.16.8,2.01,1.54,8.16.12.99.27,2.24.41,3.31,4.19,2.09,6.92,3.5,8.74,4.54.93-.48,2.11-.85,3.64-.45,1.29.34,2.4,1.18,3.07,2.34.37.64.62,1.24,3.24,8.97,8.42,1.11,13.06,2,15.73,2.83.48-.05,1-.04,1.55.08,1.04.22,1.98.76,2.69,1.54h0c2.61,2.88,4.45,4.89,5.74,6.32,2.37-1.37,3.23-1.66,4.98-1.2.21.06.42.12.62.21,1.02.2,3.81.58,5.89.86,4.52.61,7.52,1.01,9.58,1.47l2.56-1.48c1.53-.88,3.33-.87,4.79-.12,1.96.47,8.86,1.37,15.09,2.04,1.35-.83,2.69-1.54,4.64-1.04,1.31.33,2.43,1.18,3.11,2.36,1.38,2.39.55,5.45-1.84,6.83-.12.07-.24.13-.36.19-.16.1-.37.23-.58.36-1.26.77-2.38,1.47-3.83,1.47Zm-.33-2.08c1.42.87,3.16.95,4.52.36-1.51.62-3.19.45-4.52-.37h0Zm-26.87-.36h0s0,0,0,0Zm0,0s0,0,0,0c0,0,0,0,0,0Zm-.1-.16c.03.05.06.11.1.16-.03-.05-.06-.1-.1-.16Zm0,0s0,0,0,0c0,0,0,0,0,0Zm0,0h0s0,0,0,0Zm0,0s0,0,0,0c0,0,0,0,0,0Zm0,0h0s0,0,0,0Zm0,0s0,0,0,0c0,0,0,0,0,0Zm25.28-1.19s0,0,0,0h0s0,0,0,0Zm6.33-3.7s0,0,0,0c0,0,0,0,0,0Zm-3.96-2.46c.06,0,.11.01.17.02,1.58.17,2.99,1.07,3.79,2.44-.91-1.55-2.45-2.34-3.96-2.45Zm-42.48.83c.41.47.59.7.71.86-.21-.32-.45-.61-.71-.86Zm27.97-1.09s0,0,0,0c0,0,0,0,0,0Zm0,0s0,0,0,0c0,0,0,0,0,0Zm-22.4-.53s0,0,0,0c0,0,0,0,0,0Zm0,0s0,0,0,0c0,0,0,0,0,0Zm0,0h0Zm-22.52-1.15h0Zm-17.08-18.23s0,.02.01.02c0,0,0-.01-.01-.02Z" style="fill: #03081b;"/>
  </g>
</svg>