<?xml version="1.0" encoding="UTF-8"?>
<svg id="Layer_1" data-name="Layer 1" xmlns="http://www.w3.org/2000/svg" viewBox="0 0 300 300">
  <g style="opacity: .9;">
    <g style="opacity: .9;">
      <path d="m67.92,13.98c-.76-1.99-8.27-1.63-9.27-2.05-4.45-1.27-19.92,4.35-20.02,3.4.04-.66-.95-2.49-2.14-4.19-.3-.42-.61-.84-.92-1.22-.16-.19-.31-.37-.46-.55-.08-.09-.15-.17-.23-.26-.06-.08-.15-.16-.3-.24-1.07-.6-2.11-.96-2.87-1-3.71-.19-7.44.08-10.71.68-3.28.59-6.11,1.52-8.2,2.67-2.14,1.01-1.94,1.65-3.33,1.51-.45,0-.02,1.82-1.12,3.17.09.43.3,1.01.42,1.52.69,2.83.27,5.33,1.12,7.85,1.17,4.6,2.16,15.94,2.87,18.89,1.33,5.42,1.56,8.13.66,12.33-.89,3.15-.25,5.77-.6,9.01-.23,3.4.05,5.81-.15,9.21-.59,3.2-.87,6.15-.79,9.58.09.46.18.91.42,1.24.24.33.15,1.21.25,1.66-.38,2.78-1.67,5.31-1.36,8.03.07.75.65,1.85,1.2,1.62,2.77-1.19,4.81-3.34,6.62-5.8,1.67-2.33,1.67-5.28,2.09-8.33.53-4.23,3.9-7.21,7.18-9.3,2.55-1.45,6.53-2.56,6.38-6.09-.35-4.14-2.34-7.93-1.04-12.15,1.01-2.94,1.97-5.3,2.47-8.3.19-.41.66-2.1.74-2.68,0-.09-.01-.26-.02-.28,0-.02-.01,0-.02,0h-.02s0-.01,0-.01c0,0,.02,0-.03-.03-.11-.05-.47-.17-1.67-.91-.38-.39-.35-.56-.39-.74-.04-.19-.19-.43-.84-1.29-.04-.06-.08-.12-.13-.19-.75-1.1-1.2-2.27-1.14-3.27.05-1,.61-1.81,1.54-2.17,1.19-.47,1.65-.53,4.72-.33.89.03,4.17,2.14,5.17,2.84,1.86,1.26,4.46.15,6.16-1,2.65-2.18,5.4-3.7,8.72-4.95,1.2-.23,2.36.32,3.7.22,3.14-.59,5.29-2.42,8-3.44,10.21-2.26,8.7-3.35,9.14-3.21,1.04-.12,1.58,1.21,2.91,1.35,1.78.02,3.43-.91,4.49-1.83,3.17-2.51,7.06-5.16,11.46-4.38-.29-.27-.43-.66-.72-.66-6.17-1.04-11.24-3.57-17.57-2.7-.6.26-1.34.65-2.08.78-1.33.12-2.51.37-3.69.62-2.07.23-5.91-2.87-6.57-4.62Z" style="fill: #f7d6d1;"/>
      <g style="opacity: .9;">
        <path d="m21.03,82.62c-.42,3.05-.42,6.01-2.09,8.33-1.82,2.46-3.86,4.61-6.62,5.8-.55.24-1.13-.86-1.2-1.62-.31-2.71.98-5.24,1.36-8.02-.09-.46-.01-1.34-.25-1.66-.24-.32-.33-.78-.42-1.24-.08-3.43.2-6.38.79-9.58.21-3.4-.07-5.82.15-9.21.35-3.23-.3-5.85.6-9.01.89-4.2.67-6.91-.67-12.33-.71-3-1.7-14.34-2.87-18.96-.85-2.52-.43-5.03-1.12-7.86,0,0,.04-.02.12-.1.04-.04.09-.1.15-.16.08-.05.09-.2.25-.22,1,.41,3.13,1.08,5.89,1.98-.93.41-1.8.82-2.62,1.22l-.03.09.03.15.06.3.12.59.24,1.16.49,2.25c.33,1.48.65,2.9.99,4.26.67,2.73,1.34,5.24,2.03,7.53,1.38,4.66,2.82,7.95,4.26,11.86-.04,11.49.08,22.98.35,34.46Z" style="fill: #ed9e93;"/>
      </g>
      <path d="m11.03,19.28s-.02-.08-.05-.24c-.02-.08-.03-.17-.06-.28-.02-.11-.06-.25-.02-.33,1.06-.49,4.04-1.64,7.26-2.11,1.59-.24,3.17-.3,4.37,0,1.21.29,2,.93,2.2,2.09,0,0-.2.43-.53,1.16-.32.72-.72,1.73-1.08,2.86-.75,2.26-1.05,4.97-1.09,6.94,0,.02,0,.05,0,.07l.07.14.13.27.25.53c.16.34.32.67.47,1,.3.64.56,1.22.78,1.75.44,1.05.7,1.87.72,2.48,0,0,.1,3.15.34,4.73,0,0-.56.51-.96,1.61-.1.27-.19.58-.26.91-.07.37-.12.6-.13,1.22-.04,1.09.06,2.28.38,3.51,0,0,.74,4.92,1.27,9.99.53,5.08.88,10.31-.06,11,0,0-.96,7.99-2.36,10.03,0,0-3.77,3.09-3.3,6.7,0,0-.95,2.74-1.98,4.79-1.03,2.05-2.15,3.41-2.5.63,0,0-.92-3.22-1.16-4.88,0,0,.33-5.9.88-11.97.54-6.06,1.3-12.28,1.91-12.94,0,0,1.22-6.42,1.14-14.01-.04-3.82-.41-7.75-1.41-12.26-1-4.48-2.63-9.61-5.22-15.4Z" style="fill: #f0afa6;"/>
      <path d="m9.62,17.37s-.04-.1-.04-.22c.3-.38,1.8-1.86,4.8-2.83,2.93-.97,7.37-1.41,11.04.38,0,0,5.13.99,8.78,2.43l.68.28c.23.09.44.19.57.29.31.2.6.41.88.62.55.42,1.02.86,1.36,1.3.68.89.82,1.8,0,2.67,0,0-.55.58-1.54,1.51-1.01.93-2.41,2.22-3.63,3.6-1.24,1.38-2.32,2.85-3.08,4.19-.78,1.34-1.23,2.55-1.63,3.42.25.78.58,1.59.77,2.22.2.65.34,1.21.39,1.69,0,0,0,.14.23.55.24.4.72,1.07,1.71,1.89,0,0,.51.73.69,1.32.09.3.1.59-.09.86-.05.07-.11.14-.18.21-.04,0-.08.15-.12.27-.05.12-.09.23-.15.35-.21.45-.48.86-.83,1.22,0,0-.96,2.03-1.83,4.52-.87,2.49-1.65,5.44-1.33,7.26,0,0-2.21,2.94-1.23,4.99,0,0-1.08-5.05-1.79-10.42-.36-2.68-.62-5.45-.64-7.69,0-.26,0-.52,0-.76,0-.18.02-.36.03-.53.03-.34.07-.65.14-.91.13-.53.35-.89.67-1.02,0,0,.14-.23.28-.66.14-.43.27-1.04.25-1.87-.02-.83-.18-1.87-.64-3.32-.23-.73-.52-1.57-.91-2.56-.21-.52-.42-1.05-.65-1.61-.12-.3-.25-.6-.38-.9l-.2-.48-.1-.25-.05-.13v-.06c.25-.96.48-2.18.84-3.73,0,0-.16-.44-.51-1.11-.35-.68-.88-1.59-1.71-2.55-1.66-1.91-4.65-3.97-10.75-4.54-.02.03-.08.04-.08.11Z" style="fill: #f4c3bc;"/>
      <path d="m13.7,9.69c1.77-1.03,3.67-2.32,6.17-3.23,1.41-.4,3.8-.41,5.56-.67,2.38-.27,5.04.12,6.73.37.49.11.99.2,1.51.3.26.05.52.09.78.14.16.02.21.05.28.07l.21.07c.55.19,1.13.35,1.72.5,1.18.3,2.42.52,3.65.77,2.45.5,4.85,1.06,6.6,2.38.57.29,1,.43,1.58.45.15-.13.75-.37.9-.5,1.76-.21,3.51-.16,5.14-.51,2.66-.72,5.39.27,7.97,1.39,1.44.57,3.18.86,4.77,1.29,2.75.72,3.21,3.9,5.84,4.21,4.23.72,7.69-1.77,11.92-1.34,2.48.41,4.68.55,7.01,1.35,1.74.8,3.65,1.19,5.54,1.85.44.13,1.6,1.19,1.59,1.46-.15.4-1.18.27-1.78.54-1.64.67-2.64-.79-3.8-1.32-1.46-.53-3.24,0-5,0-.73-.14-1.31-.4-2.04-.81-1.01-.67-2.35,0-3.69.38-1.64.65-3.52-.29-5.29-.05-2.36.24-4.19,2.07-6.23,1.51,1.74.56-7.24.81-5.46.3-.15.13-.72-.41-.85-.81.01-.26-.12-.66.04-.79,1.22-1.04.99-2.64,1.34-3.96-.14-.13-4.84.04-6.7-.94-1.42-.83-2.7-1.79-4.45-1.84-.44.12-.62.78-1.07.9-1.01.12-13.01,6.15-14.48,5.81-.86-.3-1.99-1.14-1.8-1.79.11-1.85-1.45-2.58-2.09-4.07-.12-.4.2-.92.08-1.33-.26-.54-.62-1.12-1.05-1.59-.65-.46-1.59-.78-2.49-.84-3.12-.53-7.05-.53-9.69,0l-8.99.36Z" style="fill: #fae5e2;"/>
      <path d="m34.11,64.25s-2.53-6.21.68-12.29c0,0,1.62-5.12,1.44-6.24l.61-1.67c0-.38.38.28-1.73-1.06,0,0-.19-.19-.34-.41-.14-.21-.24-.43-.04-.32,0,0,.03-.02-.06-.18-.09-.16-.33-.48-.81-1.14-.26-.41-.64-1.02-1.08-1.9" style="fill: none; stroke: #f3beb7; stroke-width: 0px;"/>
      <path d="m56.91,8.48c1.35.22,7.8,1.69,9.61,2.69,2.86,1.47,5.54,2.92,8.41,4.56.29.09.68.1.88-.08,1.61-1.22,3.74-.66,5.32-1.36.69-.26,1.29-.79,2.07-.78,4.1.03,7.98,1.1,11.66,2.69,1.55.7,2.9,1.76,4.46,2.64.29.26.77.53.77.88.09.27-.59.18-.94.31-.44-.13-.82-.48-1.41-.66-1.07-.44-2.35-.35-3.32-.88-1.07-.44-1.94-1.06-3.1-1.42-.78-.18-1.46-.27-2.25-.27-2.83-.27-5.57-.29-8.32.04-1.01,1.06-2.76.51-4.03.58-.39,0-.78-.19-1.26-.28-1.17-.01-2.37.5-3.22-.13-1.71-1.44-3.42-2.7-5.42-3.72-1.63-.82-8.36-2.74-10.1-2.97-2.32-.41-4.5.41-6.73.25-.19,0,1.39-2.55,6.91-2.1Z" style="fill: #fdf5f4;"/>
    </g>
  </g>
  <g style="opacity: .9;">
    <g style="opacity: .9;">
      <path d="m236.48,285.99c.47.97,2.78,1.19,5,1.18,2.24,0,4.41-.21,4.93-.04,1.05.2,2.63-.03,4.36-.43.87-.2,1.79-.45,2.71-.71.46-.13.92-.27,1.39-.4l.35-.1.18-.08.36-.17c.29-.11.59-.32.88-.36.3-.07.58-.14,1.01-.19,1.3-.06,2.5-.11,3.53-.15,2.09-.1,3.52-.18,3.51.08-.13.65.74,2.61,2.21,4.41.72.9,1.62,1.75,2.64,2.37,1.08.6,2.14.97,2.91.94.34,0,.68,0,1.02-.03h.1s-.71-4.85-.71-4.85l-.17-1.17-.09-.72v-.12s-.02-.04-.02-.04h0s0-.01,0-.01h0c-.65-6.26.89,8.51.73,7v.12s0,.5,0,.5c.03.1.11.05.16.09.47.11.95.21,1.42.29.94.16,1.87.21,2.75.2,1.76-.02,3.22-.32,4.46-.72.63-.21,1.22-.45,1.82-.74.6-.29,1.25-.66,1.84-1.05,1.2-.79,2.26-1.75,3.16-2.77.81-.85,1.22-1.5,1.53-1.98.21-.34.38-.61.57-.82.13-.29.37-.42.66-.59.19-.13.2-.88.29-1.97.06-.57.14-1.21.22-1.9.1-.72.25-1.49.44-2.34.61-2.21,2.05-4.44,1.86-6.74.06-2.06.44-5.97.39-9.74,0-.95,0-1.86-.05-2.77-.01-.49-.05-.78-.07-1.15-.03-.35-.06-.69-.09-1.02-.12-1.32-.27-2.44-.4-3.21-1.09-5.82-1.33-8.57-.55-13.01.8-3.34.01-6.07.1-9.49-.07-3.6-.6-6.11-.97-9.78.02-1.77-.09-3.48-.44-5.33-.19-1.02-.34-1.61-.51-2.38-.18-.74-.36-1.5-.54-2.29-.18-.4-.36-.81-.65-1.07-.29-.26-.37-1.11-.54-1.52-.08-2.71.94-5.2.5-7.69-.11-.69-.71-1.71-1.26-1.47-2.73,1.2-4.68,3.48-6.19,6.27-1.38,2.64-.86,5.83-.48,9.14.07.57.1,1.14.1,1.7-.01.54-.02,1.15-.14,1.58-.22.87-.62,1.73-1.12,2.52-1.03,1.64-2.48,3.03-3.97,4.2-1.17.83-2.71,1.61-3.9,2.56-1.19.95-2.02,2.06-1.8,3.64.69,3.68,2.86,7.21,1.64,11.21-.96,2.77-1.92,4.94-2.5,7.62-.2.36-.73,1.84-.83,2.33.03.75-.04,1.5-.12,2.25-.04.37-.08.73-.13,1.1,0-.02.02-.05.04-.03.1.04.47.13,1.59.76.35.37.25.54.26.73,0,.2.12.43.65,1.38.4.71.71,1.5.86,2.26.2.99.17,2.02-.14,2.73-.33.7-.8.75-1.52.88-.22.05-.43.1-.64.14l-.33.08c-.17.03-.98.14-1.18.19-.37.09-.71.11-1.13.08-.46-.03-1.04-.12-1.65-.27-.68-.09-3.18-2.65-3.91-3.52-.33-.37-.71-.62-1.13-.77-.21-.08-.43-.13-.66-.16-.4-.06-.81-.1-1.22-.12-.47,0-.94.01-1.41.06l-.69.08-.34.05-.17.03h-.08s-.02.02-.02.02h-.01c0-.29,0-.08,0-.14h0s0,0,0,0h-.04c-.89.23-1.73.51-2.47.8-.15.06-.29.12-.43.17-.55.29-1.21.61-1.64.89-.38.27-.76.53-1.14.79-.75.52-1.52,1-2.28,1.47-1.54.92-3.1,1.77-4.79,2.56-1.23.36-2.48-.08-3.83.16-3.11.91-5.04,2.9-7.6,4.06-2.43.69-4.14,1.17-5.37,1.57-1.33.4-2.12.73-2.61.98-.97.51-.71.75-.92.67-1.04.09-1.52-1.26-2.78-1.48-1.68-.12-3.3.62-4.44,1.41-3.32,2.11-7.88,3.99-12.01,2.04.21.34.24.75.53.83,2.9,1.31,5.58,2.78,8.43,3.88,2.83,1.1,5.93,1.84,9.35,1.53.65-.24,1.46-.6,2.23-.71,1.41-.1,2.59-.31,3.89-.58,2.18-.22,6.42,2.64,7.28,4.31Z" style="fill: #f6ebd8;"/>
      <g style="opacity: .9;">
        <path d="m282.81,215.55c-.38-3.31-.91-6.49.47-9.13,1.5-2.79,3.45-5.06,6.18-6.27.55-.24,1.15.78,1.26,1.47.44,2.49-.58,4.98-.49,7.69.16.41.25,1.26.54,1.52.29.26.47.66.65,1.06.19.79.37,1.55.54,2.29.17.76.32,1.39.51,2.4.33,1.84.45,3.56.43,5.33.37,3.67.9,6.18.97,9.79-.08,3.42.7,6.15-.1,9.49-.78,4.44-.54,7.2.54,13.02.13.77.28,1.89.4,3.21.03.33.06.67.09,1.02.02.35.05.68.07,1.17.04.91.04,1.83.04,2.78.04,3.78-.35,7.7-.42,9.76.18,2.3-1.27,4.52-1.9,6.73,0,0-.1.03-.3.1-.2.07-.48.18-.9.3-.8.26-2.02.64-3.77.88.45-.59.82-1.23,1.17-1.87.3-.69.6-1.36.8-2.08.22-.71.41-1.42.54-2.16.16-.72.24-1.46.32-2.19.29-2.92.1-5.81-.27-8.42-.37-2.65-.95-4.95-1.6-7.16-.64-2.23-1.34-4.42-2.11-6.57.14-5.78-.05-11.61-.55-17.36-.26-2.88-.6-5.74-1.06-8.53-.25-1.38-.5-2.77-.84-4.06-.07-.33-.17-.64-.26-.95-.09-.31-.17-.61-.3-1-.23-.75-.45-1.5-.65-2.26Z" style="fill: #ebd1a3;"/>
      </g>
      <path d="m290.77,277.29s-.05.17-.15.47c-.1.3-.29.7-.52,1.2-.46.99-1.34,2.19-2.44,3.31-1.63,1.53-3.83,2.8-5.61,2.95-1.75.13-2.85-.75-2.99-2.26,0,0,.12-.22.33-.61.21-.4.52-.92.9-1.7.38-.77.79-1.71,1.15-2.77.18-.53.35-1.08.51-1.65.07-.29.16-.57.22-.88.04-.33.08-.65.12-.99.28-2.19,0-4.68-.39-6.65-.36-1.99-.71-3.48-.5-4.45,0,0,.03-.2.09-.51.06-.32.13-.76.18-1.25.12-.98.18-2.17.14-2.97,0,0,.16-.14.38-.43.11-.16.23-.28.37-.56.14-.31.29-.66.42-1.06.55-1.58.92-3.84.35-6.28,0,0-.59-4.87-1.32-9.85-.68-5-1.5-10.01-.64-10.77,0,0,.06-1.95.17-4.13.13-2.19.26-4.54.73-5.57,0,0,.19-.21.45-.59.26-.39.61-.88.84-1.68.49-1.53.86-3.44.25-5.26,0,0,.08-.76.27-1.8.19-1.04.48-2.35.86-3.46.76-2.23,1.76-3.64,2.4-.94,0,0,.32.76.73,1.71.4.95.89,2.08,1.17,2.85,0,0,.17,1.43.56,3.59.1.54.22,1.12.34,1.74.13.65.3,1.46.41,2.2.25,1.54.39,3.14.51,4.75.41,6.42-.05,12.88-.62,13.59,0,0-.21,1.67-.43,4.31-.22,2.64-.46,6.23-.53,10.12-.05,1.95-.03,3.97.03,6.01.06,2.01.21,4.16.36,6.37.37,4.41.74,9.33.92,13.88Z" style="fill: #eed9b3;"/>
      <path d="m291.51,278.8s-.12.66-.44,1.73c-.37,1.01-1.07,2.34-2.12,3.66-1.25,1.42-3.01,2.8-5.02,3.4-2.07.65-3.84.18-5.74-1.01,0,0-.77-.23-2.03-.67-.63-.23-1.38-.5-2.19-.83-.39-.17-.81-.35-1.23-.53l-.16-.07-.08-.04-.04-.02v-.08s-.06-.32-.06-.32l-.02-.05-.05-.11s.02-.08-.14-.09c-1.17-.28-2.34-.67-3.31-1.17-.94-.49-1.67-1.05-2.2-1.61-1.05-1.13-1.27-2.26-.12-3.16,0,0,.45-.35,1.24-.97.78-.63,1.91-1.5,3.01-2.68.86-.7,1.43-1.31,2.11-1.86.65-.55,1.23-.97,1.74-1.36.26-.2.5-.41.74-.68.25-.28.48-.67.68-1.06.41-.79.72-1.67.95-2.52.34-1.17.34-2.49.27-3.58-.06-1.1-.14-2-.06-2.75,0,0,.04-.14-.13-.52-.18-.37-.56-1-1.47-1.73,0,0-.42-.71-.56-1.25,0-.05-.02-.02-.01-.14l.02-.34c.02-.23.04-.46.06-.69.05-.47.14-.94.28-1.38.25-.92.7-1.75,1.41-2.39,0,0,1.04-1.85,1.93-4.24.9-2.38,1.64-5.28,1.24-7.04,0,0,.53-.73.92-1.72.4-.99.63-2.23.09-3.21,0,0,.35,1.21.78,3.1.44,1.88.96,4.45,1.32,7.1.36,2.65.56,5.4.46,7.6-.05,1.1-.17,2.06-.36,2.82-.1.38-.21.7-.35.96-.14.27-.29.46-.46.52,0,0-.21.32-.43.91-.22.59-.43,1.41-.48,2.53-.04,1.13.09,2.56.38,4.65.14,1.04.3,2.26.4,3.67.13,1.43.07,2.98-.18,4.58-.07.4-.13.81-.2,1.23,0,0,.07.27.18.71.12.42.31,1,.61,1.61.61,1.21,1.68,2.68,3.86,2.98.68.1,1.42,0,2.29-.26.42-.14.85-.34,1.33-.59.43-.28.87-.63,1.33-1.03Z" style="fill: #f2e2c6;"/>
      <path d="m287.97,290.43c-.82.87-1.69,1.77-2.62,2.59-.95.82-1.79,1.53-2.8,2.12-1.1.54-3.24.67-5.15.76-.86.03-1.79-.1-2.69-.33l-.67-.19-.33-.1c-.09-.07-.27.06-.21-.39v-.24s0-.12,0-.12v-.06s0-.03,0-.03c.2,1.96-1.78-17.1-.94-9.03h0s0,0,0,0h0s0,.06,0,.06l.03.26c.04.31.08.63.13.94.06.44.13.87.19,1.31l.07.47.02.12.84,5.68h0s0,0,0,0h0s-.03,0-.03,0h-.08c-.69-.03-1.3-.08-1.83-.13-.5-.09-1.01-.19-1.53-.29-.26-.05-.53-.09-.79-.14l-.73-.16c-.96-.2-1.8-.42-2.66-.63-1.66-.43-3.24-.85-4.71-1.32-1.48-.47-2.85-.99-4.09-1.6-.14-.07-.35-.16-.41-.23l-.16-.21c-.13-.15-.17-.28-.22-.43-.12-.34-.23-.67-.35-1-.13-.23-.24-.38-.38-.46-.04-.03-.09-.05-.14-.06-.02.06-.08.15-.14.24-.03.04-.06.09-.08.13-.05.04-.12.09-.14.12-1.54.26-3.15.3-4.68.78-2.46.92-5.31.22-8.13-.63-1.57-.41-3.45-.53-5.23-.82-3.08-.49-3.72-3.64-6.58-3.86-2.37-.31-4.3.08-6.38.51-2.07.42-4.26.83-6.57.39-2.67-.69-4.99-1.18-7.29-2.43-1.67-1.13-3.53-1.96-5.26-3.09-.41-.24-1.27-1.58-1.18-1.84.26-.34,1.23.07,1.89-.04,1.77-.23,2.41,1.41,3.48,2.18,1.37.83,3.3.65,5.11.92.73.24,1.3.59,2,1.08.98.79,2.49.28,3.92,0,1.77-.53,3.69.48,5.55.27,2.45-.18,4.42-2.03,6.53-1.56-.92-.24.96-.51,2.83-.71,1.86-.2,3.73-.31,2.82.02.15-.14.78.35.95.73,0,.26.18.65.03.79-1.19,1.15-.83,2.72-1.1,4.07.18.13,5.13-.51,7.08.27,1.53.68,2.9,1.52,4.61,1.41.42-.15.53-.82.96-.98.22-.04.9-.39,1.86-.92.47-.26,1.02-.56,1.61-.88.28-.16.63-.32.87-.48.19-.15.39-.31.6-.46.27-.2.57-.4.87-.61.3-.13.62-.25.95-.38.35-.12.71-.23,1.28-.31.51-.09,1-.17,1.47-.25,1.86-.31,3.3-.53,3.73-.37.9.42,2.1,1.4,1.81,2.02-.18.91.17,1.6.67,2.25.53.64,1.18,1.24,1.57,2,.14.41-.38.91-.25,1.32.34.56.82,1.15,1.5,1.63.7.46,1.62.81,2.55.82.47.05.96.08,1.48.11h.08s.02,0,.02,0h0s-.37-2.49-.37-2.49l-.02-.12-.07-.49-.19-1.29-.12-.92-.03-.24v-.06c-.54-5.15.72,7.02.59,5.77h0s0,.02,0,.02v.02s0,.05,0,.05v.1s0,.2,0,.2c-.04.37.11.25.2.31l.29.08.58.15c.77.19,1.56.32,2.3.37,1.5.14,2.81,0,3.79-.24,1.3-.09,2.43-.22,3.69-.49,1.3-.3,2.67-.76,3.96-1.32Z" style="fill: #faf3e7;"/>
      <path d="m272.66,234.44s.74,1.38,1.08,3.54c.34,2.15.26,5.09-1.34,7.91,0,0-.41,1.18-.8,2.47-.4,1.29-.81,2.67-.73,3.17-.22.49-.45.96-.68,1.43,0,0-.05.43-.12,1.1-.03.33-.07.71-.09,1.13-.01.21-.02.42-.04.64l-.02.33s.01,0,.03,0c.18-.02.6.18,1.59.72,0,0,.17.18.28.37.11.2.15.41-.03.31,0,0-.07.03.14.43.19.39.76,1.22,1.42,3.04" style="fill: none; stroke: #f1e0c1; stroke-width: 0px;"/>
      <path d="m248.47,290.4c-.68-.04-2.65-.28-4.81-.58-2.14-.31-4.45-.71-5.48-1.14-3.24-1.21-6.33-2.49-9.51-4.12-.33-.09-.72-.1-.94.07-1.69,1.2-3.97.6-5.77,1.21-.78.22-1.51.71-2.39.64-4.65-.38-8.71-2.16-12.19-4.58-1.45-1.06-2.56-2.44-3.85-3.72-.21-.34-.61-.73-.5-1.07-.01-.28.63,0,1.01-.04.39.25.68.69,1.21,1.02.95.71,2.26.94,3.12,1.67.99.67,1.76,1.46,2.91,2.03.78.33,1.49.54,2.32.67,2.94.73,5.95,1.05,8.94.84,1.14-1,2.96-.41,4.29-.46.41.01.8.2,1.3.3,1.28.02,2.58-.51,3.51.08,1.88,1.38,3.83,2.53,6.08,3.36.92.35,3.23.82,5.48,1.21,2.26.39,4.43.72,5.29.75,2.31.2,4.29-.77,6.3-.7.09,0-.19.65-1.11,1.28-.93.63-2.47,1.25-5.2,1.28Z" style="fill: #fdfaf6;"/>
    </g>
  </g>
  <g style="opacity: .9;">
    <g style="opacity: .9;">
      <path d="m65.16,267.95c-.68-1.99-6.32-1.57-7.11-1.97-1.72-.63-5.41.55-8.67,1.76-.41.15-.81.31-1.2.45-.2.07-.39.15-.58.22-.09.04-.2.07-.27.11l-.13.09c-.35.24-.7.45-1.01.63-.61.35-1.04.51-1.02.27.1-.67-.06-2.56,0-4.34.04-1.78.33-3.46.32-3.61-.09-.79-.59.35-2.71,2.69-.95,1.02-1.57,1.75-1.56,1.54-.01,0-.15.16-.39.43-.24.27-.58.65-.96,1.08-.78.84-1.81,1.92-2.8,2.61-.65.45-1.07.32-1.24.12-.19-.18-.31-.35-.79-.18-.58.1-1.15-.36-1.68-1.1-.53-.73-1.01-1.74-1.4-2.51-.13-.26-.24-.48-.35-.65-.73-1.19-1.16-2.33-1.3-3.45-.07-.56-.07-1.12,0-1.69.03-.29.09-.58.16-.88.08-.32.17-.65.26-1,.85-2.35.18-4.3.51-6.7.21-2.53-.08-4.33.13-6.85.59-2.38.89-4.57.84-7.12-.09-.34-.17-.68-.41-.92-.23-.25-.14-.9-.23-1.24.41-2.06,1.74-3.93,1.48-5.95-.06-.56-.61-1.39-1.17-1.22-2.78.85-4.87,2.42-6.72,4.24-1.7,1.72-1.74,3.93-2.18,6.22-.56,3.16-3.94,5.39-7.22,6.96-2.55,1.09-6.54,1.93-6.37,4.61.19,1.57.78,3.06,1.18,4.57.2.75.35,1.51.37,2.27.01.38-.01.77-.07,1.16l-.06.29-.03.16-.04.27c-.05.36-.12.73-.2,1.1-.97,4.15-1.88,7.84-2.33,12.48-.18.67-.62,3.41-.68,4.32.03.45.05.91.06,1.37.04,2.37.3,4.76,1.01,6.53.35.89.81,1.61,1.34,2.17.57.49,1.17.89,1.92.95.32.35.6.69.85,1.03.26.29.5.58.71.86.43.58.79,1.06,1.19,1.5.39.43.89.9,1.61,1.32.72.42,1.44.59,2.27.55,4.4-.25,9.69-1.82,15-2.86,3.1-.73,5.74-1.1,8.51-1.03.49-.01,1.56.47,2.74,1.02,1.19.58,2.46,1.19,3.07,1.49.57.28,1.23.4,1.91.41.16,0,.36,0,.5-.01.1,0,.2-.01.3-.03.2-.03.4-.08.6-.15.79-.28,1.55-.87,2.14-1.45,1.82-2.22,3.77-3.77,6.16-5.05.88-.25,1.77.3,2.76.18,2.3-.62,3.8-2.45,5.76-3.47,7.49-2.26,6.32-3.33,6.65-3.19.77-.12,1.24,1.21,2.24,1.36,1.33.02,2.52-.88,3.27-1.79,2.25-2.47,5.06-5.07,8.39-4.22-.23-.27-.35-.67-.57-.67-4.66-1.14-8.58-3.72-13.3-2.88-.43.26-.98.64-1.52.77-.99.12-1.87.37-2.74.62-1.54.24-4.59-2.86-5.18-4.59Z" style="fill: #cfd1d9;"/>
      <g style="opacity: .9;">
        <path d="m23.06,239.07c.45-2.28.48-4.49,2.18-6.22,1.85-1.82,3.93-3.39,6.72-4.24.56-.17,1.11.66,1.17,1.22.26,2.02-1.06,3.88-1.48,5.95.09.34,0,1,.23,1.24.23.24.32.58.41.92.05,2.55-.25,4.74-.84,7.12-.21,2.53.08,4.33-.13,6.85-.33,2.4.34,4.35-.51,6.71-.09.35-.18.67-.26.99-.07.3-.12.59-.16.87-.07.57-.07,1.13,0,1.69.14,1.11.57,2.25,1.3,3.43.1.16.21.37.33.61.39.76.88,1.77,1.41,2.51.53.74,1.11,1.2,1.69,1.1.47-.18.59-.01.79.17.17.2.61.3,1.26-.15,0,0-.15.3-.35.8-.2.5-.46,1.21-.59,2.09-.67.42-1.37.84-2.1,1.26-.71.43-1.58.78-2.15.71-.57-.05-.85-.21-1.2-.37-.34-.17-.67-.36-1.01-.59-1.34-.92-2.68-2.37-4.03-4.33-.71-1.04-1.42-2.22-2.13-3.54l-.55-26.78Z" style="fill: #8f94a6;"/>
      </g>
      <path d="m34.99,272.5s.15-.08.41-.23c.24-.15.59-.36,1-.6.79-.47,1.71-1.03,2.44-1.39.73-.37,1.28-.54,1.47-.27.18.28.04,1-.8,2.44,0,0-.69.91-1.96,2.32-1.27,1.4-3.15,3.3-5.52,5.26-1.12.89-2.26,1.66-3.4,2.36-1.15.68-2.27,1.32-3.35,1.68-.54.18-1.08.24-1.54.16-.46-.08-.8-.24-1.06-.41-.51-.35-.82-.76-1.02-1.36,0,0-.28-.86-.62-1.94-.35-1.11-.76-2.55-1.04-3.58,0,0,.16-.59.35-1.51.19-.93.41-2.19.54-3.58.13-1.41.08-2.92-.39-4.43,0,0-.2-1.19-.49-2.98-.14-.94-.29-2.03-.46-3.21-.08-.61-.16-1.23-.24-1.87-.04-.36-.08-.58-.12-.81l-.11-.71c-.6-3.81-.96-7.74-.02-8.26,0,0,.95-6,2.36-7.53,0,0,3.78-2.3,3.35-5,0,0,3.92-8.16,4.55-4,0,0,.88,2.41,1.1,3.65,0,0-1.59,17.57-2.8,18.56,0,0-.4,1.67-.69,4.19-.29,2.5-.45,6.11.03,9.33.33,2.23.98,4.21,2.12,5.16.57.47,1.26.69,2.1.56.43-.07.94-.21,1.62-.52.68-.31,1.47-.85,2.22-1.49Z" style="fill: #a2a7b6;"/>
      <path d="m36.52,270.85s1.78-1.45,3.57-2.9c1.5-1.15,2.26-1.68,1.91.52,0,0,.37,1.22,1.11,2.81.35.8.77,1.69.98,2.6.21.91.2,1.84-.51,2.74,0,0-.65.88-2.03,2.26-1.37,1.36-3.57,3.31-6.57,5.22-2.98,1.91-6.63,3.48-9.92,4.1-.8.15-1.6.26-2.37.32-.74.06-1.51.06-2.29-.32-.77-.39-1.21-.88-1.58-1.32-.37-.45-.7-.99-1-1.55,0,0-.03-.06-.11-.17-.08-.1-.22-.24-.42-.43-.21-.18-.5-.38-.9-.57-.4-.2-.9-.45-1.57-.66,0,0-.15-.19-.37-.53-.24-.33-.53-.85-.82-1.51-.58-1.32-1.04-3.38-.69-5.58.19-1.31.56-2.59,1.18-3.68,0,0,.91-2.96,1.74-6.1.41-1.58.8-3.22,1.05-4.69.12-.74.21-1.44.24-2.09.02-.37.02-.51,0-.72-.01-.19-.04-.38-.08-.55,0,0,2.17-2.23,1.18-3.76,0,0,.17.61.45,1.59.13.49.28,1.08.45,1.73.17.69.34,1.25.52,2.41.7,4.17,1.38,8.63,1.3,11.79-.04,1.59-.17,2.84-.61,3.62,0,0-.14.66-.14,1.66,0,1.01.17,2.33.69,3.57.26.63.6,1.21,1.02,1.74.45.54.79.99,1.65,1.39.44.2,1.07.27,1.72.11.65-.15,1.31-.45,2.01-.79,1.4-.68,2.93-1.59,4.55-2.8,0,0,.11-.12.29-.33.19-.22.46-.54.77-.93.61-.78,1.37-1.82,2.02-2.91,1.3-2.18,2.29-4.52,1.6-5.29Z" style="fill: #b9bcc8;"/>
      <path d="m44,262.59c.8-1.04,1.61-2.34,2.03-3.18.17-.34.12-.22.19-.4.05-.15-.14.4-.21.77-.26,1.17-.12,1.73.15,2.36.14.31.32.64.55,1.06.84.35,1.68.79,2.38,1.43.45.27.78.41,1.22.42.11-.13.54-.39.65-.52,1.32-.24,2.64-.22,3.85-.59,1.97-.76,4.08.2,6.1,1.3,1.12.55,2.45.84,3.67,1.25,2.11.7,2.63,3.88,4.62,4.18,3.22.72,5.69-1.75,8.9-1.3,1.89.43,3.54.59,5.33,1.42,1.34.82,2.79,1.24,4.24,1.92.33.14,1.24,1.21,1.25,1.48-.1.39-.88.25-1.31.51-1.2.64-2.01-.83-2.9-1.37-1.12-.55-2.43-.04-3.75-.07-.56-.14-1-.41-1.56-.82-.79-.67-1.76-.03-2.75.35-1.2.64-2.65-.31-3.97-.07-1.76.23-3.04,2.06-4.6,1.51,1.34.55-5.38.83-4.07.33-.11.13-.56-.41-.68-.81,0-.26-.13-.66-.02-.79.86-1.04.6-2.63.79-3.95-.11-.14-3.64.07-5.1-.88-1.12-.81-2.14-1.76-3.46-1.78-.33.12-.42.79-.75.91-.38.06-2.73,1.65-5.12,3.19-.6.38-1.2.76-1.77,1.12-.48.34-.76.64-1.14.9-.7.51-1.29.83-1.47.75-.44-.3-.86-1.17-.65-1.84.32-1.9-.17-2.67,0-4.22.06-.42.26-.94.31-1.36.09-1.13.24-2.45.17-2.68-.06-.71-.15-.9-.53-.48l-.57-.03Z" style="fill: #e1e3e8;"/>
      <path d="m9.97,252.89s.64,1.17.9,2.91c.13.87.16,1.89-.04,2.98l-.04.21-.04.37c-.04.25-.07.51-.11.77-.08.52-.17,1.05-.29,1.58-.23,1.08-.53,2.19-.91,3.36,0,0-.38,1.91-.74,4.11-.36,2.19-.68,4.66-.58,5.46l-.58,2.78s0,.45-.02,1.2c-.05,1.58.23,4.32,1.11,6.33.86,2.03,2.14,3.33,3.17,3.24,0,0,.16.19.41.47.24.29.56.69.91,1.03.67.75,1.33,1.5,1.36,1.84,0,0,.09.15.32.38.23.23.62.58,1.3.97.7.41,1.51.65,2.38.64.9,0,2.03-.12,3.34-.5" style="fill: none; stroke: #b4b7c4; stroke-width: 0px;"/>
      <path d="m56.54,262.55c1.03.2,5.99,1.6,7.41,2.6,2.24,1.45,4.33,2.89,6.58,4.52.22.09.52.1.66-.08,1.15-1.21,2.78-.66,3.94-1.34.51-.25.94-.78,1.52-.77,3.09.05,6.06,1.17,8.89,2.8,1.19.73,2.25,1.8,3.45,2.7.23.27.6.54.61.89.08.27-.44.17-.69.3-.33-.14-.64-.5-1.08-.68-.82-.46-1.77-.39-2.52-.93-.82-.46-1.5-1.08-2.39-1.45-.59-.19-1.11-.29-1.7-.3-2.14-.3-4.2-.34-6.25-.02-.71,1.04-2.05.49-3,.57-.29,0-.59-.19-.96-.28-.88-.02-1.75.5-2.43-.13-1.36-1.43-2.71-2.69-4.28-3.69-1.27-.82-6.46-2.67-7.79-2.87-1.77-.38-3.37.47-5.06.35-.15,0,.89-2.58,5.09-2.2Z" style="fill: #f3f4f6;"/>
    </g>
  </g>
  <g style="opacity: .9;">
    <g style="opacity: .9;">
      <path d="m289.67,49.15c1.01-.29,1.5-1.94,1.76-3.63.06-.44.13-.8.16-1.29.02-.51.05-1,.07-1.44.04-.88.07-1.56.17-1.83.07-.3.11-.63.13-1.01-.1-1.63-.69-3.91-1.84-6.07-1.12-2.18-2.69-4.25-4.26-5.88-3.16-3.28-6.14-4.93-5.83-5.28.52-.41,1.25-2.35,1.6-4.43.36-2.06.33-4.24-.25-4.88-2.76-3.27-6.73-4.51-10.4-4.21-1.76.06-2.24.52-2.73.04-.23-.14-2.01,1.61-4.18,1.95-1.46.16-2.81-.79-4.2-.37-1.26.2-3.58-.03-5.89-.19-2.31-.18-4.62-.3-5.84-.22-4.66.32-6.76.28-10.08-.92-.62-.27-1.23-.44-1.83-.56-.6-.1-1.2-.12-1.79-.14-1.19-.05-2.39.06-3.71-.1-2.79-.13-4.75.3-7.52.47-2.67-.24-5.14-.07-7.87.69-.34.18-.69.35-.89.65-.2.3-.91.4-1.25.59-2.27.23-4.69-.35-6.71.71-.56.28-1.2,1.14-.82,1.58,1.92,2.23,4.2,3.55,6.52,4.73,2.17,1.07,4.21.47,6.48.41,3.14-.16,5.79,2.9,7.47,5.99.61,1.2,1.18,2.81,1.82,4.04.65,1.22,1.35,2.14,2.31,2.01.57-.14,1.11-.31,1.67-.55.55-.24,1.11-.48,1.67-.64,1.12-.38,2.28-.44,3.38.28.72.6,1.38,1.14,2.03,1.68.63.55,1.25.99,1.98,1.39.17.22.96.88,1.25,1.02,1.93.19,3.77,1.82,5.92.07,2.41.07,3.02,1.45,5.34.71,3-1.04,6.42-2.04,9-.93,1.48.57,2.6,1.46,3.32,2.67.14.2.13,1.01-.04,1.84-.13.83-.46,1.68-.61,2.07-.6,1.44.61,1.53,1.81,1.56,2.18-.17,3.87.36,5.12,1.55.03.05.04.09.06.14.04.6-.44,1.23-.38,1.88.06.22.15.39.25.63.1.27.21.53.34.78.25.5.54.98.85,1.45.6.94,1.27,1.84,1.71,2.85,1.7,7.63,2.78,6.6,2.64,6.91.04.78-1.33,1.12-1.58,2.1-.17,1.31.6,2.6,1.41,3.46,2.18,2.54,4.37,5.79,2.98,9.01.3-.18.71-.24.75-.46,1.87-4.5,4.95-8.24,4.59-13.25-.21-.48-.54-1.08-.61-1.66-.02-1.04-.2-1.97-.37-2.89-.11-1.6,3.18-4.54,4.94-5.06Z" style="fill: #c9cace;"/>
      <g style="opacity: .9;">
        <path d="m218.71,18.46c-2.27.07-4.31.66-6.48-.41-2.32-1.18-4.6-2.5-6.52-4.74-.39-.44.26-1.3.82-1.58,2.02-1.06,4.44-.48,6.72-.71.34-.18,1.05-.3,1.25-.59.2-.3.54-.47.89-.65,2.73-.75,5.2-.92,7.88-.68,2.78-.17,4.74-.59,7.53-.46,1.33.15,2.52.05,3.72.1,1.19,0,2.38.15,3.63.7,3.33,1.2,5.44,1.24,10.09.93,1.22-.07,3.53.05,5.84.23,2.31.17,4.63.4,5.9.2,1.39-.42,2.74.54,4.2.38,0,0,.41,1.31,1.34,3.73-3.96-.18-7.78,0-11.48.44-3.69.45-7.28,1.14-10.63,2.18-8.17-1.57-16.64-1.15-24.68.94Z" style="fill: #80828c;"/>
      </g>
      <path d="m263.22,13.38s2.71-.06,5.06.65c2.35.69,4.24,2.1,2.34,4.06,0,0-3.41,1.64-7.15,3.43-3.72,1.75-7.56,3.64-9.65,2.93,0,0-.76-.27-1.74-.55-.97-.29-2.17-.59-3-.72,0,0-.53-.76-1.56-1.46-1.02-.7-2.56-1.35-4.34-1.04,0,0-.86.03-2.15.08-1.29.07-2.99.16-4.7.33-3.41.29-6.81.83-7.34-.07,0,0-.34-.05-.87-.12-.53-.06-1.26-.15-2.05-.29-.78-.11-1.63-.24-2.38-.43-.75-.16-1.41-.37-1.83-.66,0,0-.7-.85-1.75-1.52-1.05-.7-2.46-1.22-3.7-.68,0,0-2.21-.41-4.02-.93-1.8-.51-3.21-1.22-1.23-2.24,0,0,.54-.41,1.24-.88.69-.49,1.57-1.01,2.18-1.3,0,0,1.17-.22,2.95-.47,1.79-.22,4.18-.47,6.61-.48,4.87-.11,9.76.74,10.23,1.39,0,0,1.23.3,3.17.77,1.94.41,4.53,1.07,7.38,1.56,5.72,1.05,12.34,1.93,18.31-1.35Z" style="fill: #9698a0;"/>
      <path d="m264.16,12.2s2.09-.67,4.42-.48c2.31.16,4.89,1.26,5.23,4.1,0,0,1.58,2.61,2.26,5.38.72,2.78.46,5.48-1.69,5.65,0,0-1.04.1-2.71.26-1.66.19-3.88.47-6.25.83-4.78.68-9.99,1.73-13.83.57,0,0-.2-.09-.68,0-.48.09-1.24.32-2.32,1,0,0-1.17.13-2.42-.07-1.26-.21-2.6-.74-3.12-2.26,0,0-.25-.3-.67-.74-.42-.45-1.01-.98-1.7-1.55-1.37-1.11-3.19-2.09-4.38-1.83,0,0-.42-.58-1.04-1.06-.62-.44-1.45-.77-2.13-.3,0,0,.83-.24,2.13-.57.65-.14,1.42-.28,2.26-.42.84-.14,1.75-.2,2.68-.28,1.85-.08,3.78-.03,5.32.33,1.54.35,2.65.91,2.87,1.64,0,0,1.26,1.19,3.64,1.65,2.42.48,5.87.18,11.3-2.27,0,0,1.35-1.3,2.2-3.13.83-1.81,1.11-4.27-1.37-6.44Z" style="fill: #b0b1b7;"/>
      <path d="m272.63,8.44c1.57-.17,3.34-.48,5.02-.31.85.17,1.81.99,2.7,1.42,1.14.66,1.91,1.92,2.41,2.8.93,2.22,2.6,4.49,4.03,7.02,1.42,2.5,2.55,5.29,2.39,7.73.07.73.18,1.23.47,1.87.2.11.73.67.92.79,1.09,1.89,1.77,4,2.6,5.98.59,1.2.82,2.53.87,3.84-.06.92-.24,1.85-.5,2.74-.13.45-.27.89-.43,1.32l-.24.64c-.09.19-.18.34-.27.5-.6,1.16-.95,2.56-1.44,3.83-.83,2.2-4.03,2.5-4.48,4.55-.96,3.28,1.26,6.11.43,9.42-.65,1.91-1.02,3.61-2.09,5.34-1,1.26-1.63,2.68-2.54,4.04-.19.32-1.4,1.06-1.66,1.02-.37-.17-.1-.92-.28-1.4-.44-1.31,1.13-1.89,1.8-2.72.71-1.06.39-2.47.58-3.82.21-.55.54-.97,1.01-1.5.76-.73.24-1.81-.03-2.87-.51-1.3.59-2.7.46-4.09-.07-1.84-1.8-3.31-1.13-4.87-.63,1.33-.49-5.6-.07-4.22-.12-.12.43-.55.84-.66.26.01.67-.09.79.03,1,.95,2.6.78,3.9,1.07.14-.16.16-3.64,1.03-5.77.37-.66.76-1.32,1.07-2.02.26-.91.45-1.93.22-3.04-.23-.5-.93-.57-1.16-1.05-.1-.28-.77-1.26-1.8-2.42-1.03-1.17-2.43-2.47-3.88-3.57-2.9-2.24-5.9-3.58-6.19-4.18-.26-.79-.34-2.09.26-2.43,1.44-1.18.95-2.78,1.54-4.28.2-.37.8-.5,1-.87.4-1.13.55-2.73-.12-3.57-.92-1.68-2.52-3.1-4-3.66-1.33-.94-2.67-1.84-4.02-2.66Z" style="fill: #dddee0;"/>
      <path d="m231.94,29.98s.86-.67,2.17-.85c1.3-.21,3.07.12,4.46,1.9,0,0,.16.11.39.31.24.19.56.45.89.69.67.48,1.39.99,1.72.96l.75.79s1.04.38,2.3.61c1.25.23,2.7.29,3.49-.55,0,0,.62.02,1.25.12.64.1,1.3.28,1.38.53,0,0,.4.24,1.21.26.82.01,2.03-.19,3.8-1.03" style="fill: none; stroke: #aaabb2; stroke-width: 0px;"/>
      <path d="m295.11,38.69c0,.17,0,.39.02.71-.07.56-.19,1.36-.35,2.27-.09.45-.18.93-.27,1.42-.05.24-.1.49-.16.74-.05.25-.11.5-.18.66-.53,1.48-1.14,2.92-1.63,3.58-1.57,2.29-3.16,4.4-4.97,6.6-.11.23-.14.53.02.7,1.11,1.32.4,2.98.96,4.26.2.56.67,1.07.6,1.69-.4,3.24-1.9,6.22-3.95,8.88-.9,1.12-2.13,2.02-3.22,3.08-.3.18-.63.52-.98.46-.28.04-.09-.47-.18-.75.19-.31.6-.56.85-.98.58-.76.66-1.74,1.31-2.42.57-.77,1.29-1.37,1.78-2.23.27-.58.43-1.11.52-1.71.58-2.17.85-4.31.75-6.47-.96-.85-.29-2.17-.28-3.17.03-.31.24-.6.36-.97.09-.92-.36-1.87.32-2.52,1.53-1.3,2.88-2.63,3.96-4.23.4-.58,1.04-1.98,1.65-3.47.16-.33.29-.85.41-1.32.12-.49.23-.96.34-1.41.21-.91.37-1.74.47-2.35-.02-.56-.04-.86-.05-1.09-.04-3.03-1.65-5.55-2.56-8.08-.04-.11.72.03,1.76,1.12,1.01,1.07,2.37,3.25,2.68,7.02Z" style="fill: #f2f2f3;"/>
    </g>
  </g>
  <g style="opacity: .8;">
    <g style="opacity: .8;">
      <path d="m22.67,135.75c.35-.1.71-.18,1.07-.28.03.21.84-.1.93.02-.1.13-.19.27-.29.4-.47.17-.98.37-1.45.55-.36.08-.44.26-.32.33.27.2-.67.57-.21.75-1.02.67-.81.04-.98-.14.23-.04.46-.21.34-.26-.04-.11-.02-.33-.49-.14-.3.11-.72.17-.81.33-.37.31.14-1.86-.1-1.59-.66.47-.35.9-.2,1.3-.89.35.25.54-.6.88-.33.3-.1.64-.62.97-.34.54-.47.98-.37,1.51.35.14-.34.27-.7.61-.03.18-.02.36-.04.54.03.2,0,.41-.01.63-.11.24-.26.48-.41.74.02.04.03.09.05.14.82-.16.69.16-.02.61.02.2,0,.41-.02.61-.26.36.07.6-.09.95-.11.24-.17.47-.24.68.05.14.11.29.15.41.26.04.52.09.78.13.12.2-.63.28-.97.55.1.14.25.27.35.41-.23.04-.46.21-.34.27.3.14-.25.38-.73.54-.13-.09-.26-.17-.35-.27.08-.18.16-.36.24-.54.13-.18.2-.37.28-.55-.29-.13-.58-.26-.84-.41,0-.01-.02-.04-.03-.07.39-.13.83-.27,1.22-.4-.1-.14-.24-.27-.35-.41-.22.07-.44.14-.65.21-.11-.3-.22-.6-.33-.9.24-.68.43-1.35.87-2.12-.02-.2,0-.4.02-.61.36-.23-.12-.31.46-.61.1-.13.19-.27.33-.41-.02-.2,0-.41-.03-.61.31-.48-.14-1.04.39-1.58.02-.09-.26-.19.1-.26.52-.84.66-1.76.55-2.33.98-.4.22-.47.18-.83.21-.21.47-.45.68-.67-.23-.1.18-.31.48-.54.05-.14.09-.28.09-.41.57-.17.97,2.09,1.45,2.07.51-.06,1.03-.13,1.54-.18Z" style="fill: #f4e6cc;"/>
      <path d="m8.19,150.31c.24-.01.47-.04.7-.07-.46.33-.88.65-1.3.97-.92.15-.99-.04-1.03-.29.67-.3,1.15-.45,1.63-.61Z" style="fill: #f4e6cc;"/>
      <path d="m8.68,151.62c.46.2.73.27,1.22.13.06.16.12.33.18.48.01.17-.02.36-.05.54.04.23.02.46.06.68-.05.11-.11.24-.12.34-.3.1-.56.18-.83.27-.27-.07-.54-.13-.81-.2-.44.14-.92.28-1.24.48-.15-.28-.35-.56-.51-.84.51-.21.6-.5.44-.67.18-.43-.44-.26-.4-.41.31-.23.61-.45.92-.68.37-.04.75-.08,1.12-.13Z" style="fill: #f4e6cc;"/>
      <path d="m27.19,134.66c1.05.07.28.36.42.47-.25.24-.47.45-.67.68-.4.1-.71.18-1.07.27.14.64-.99,1.42-.9,2.05-.03.71-.77,1.48-.14,2.12-1.19.48-.3.91-1.37,1.44-.03.33.6.59-.09.95-.04.3.81-.04.57.36-1.69.71.32,1-.98,1.69-.62.43.01-1.68-.2-1.34-.37.2-.09.28-.09.41.21.06.58-.14.47.09-1.4.31-1.6.69-1.92,1.15.27.07.82.1.4.41-1.03.38-1.1.84-.55,1.02.33-.17.66-.33.99-.48.31.19-.1.64-.95.61-.66.45-.56.72-.18.83.65-.21.87-.28,1.04-.34.05.14.1.27-.02.47-.25.24-.47.45-.72.7,2.18.1.18,1.41.73,1.98-.48.41.71.73-.52,1.1-.39.01-.23-.23-.74-.14-.74.77-1.53,1.54-.13,1.64.64.16-.84.5-.43.68.61.06,1.42-.37,1.22.14-.86.45-.7.74-.77,1.08.1.13.24.24.37.34.8-.21.67.09.54.29-.62.43.42.73-1.21,1.08.15.28.35.56.55.83.33-.17.62-.31.99-.48-.03.19.26.33-.26.63-.22.2-.48.41-.7.61.84.03-.48.81.72.76.5.17.81.36-.14.81-.06.1-.12.2-.14.27.31.04.65.04.95.07.32.09-.37.33-.27.47.02.06.04.1.05.14.05.14.1.27.15.41-.23.3-.41.6-.64.9-.25.11-.55.23-.8.34.44.41.16.97-.16,1.42.78-.14.4.29.6.43-1.36,1.32.54,1.99-.26,2.99-.96.82,1.73.59-.42,1.51.04.24.23.48,1.05.2,1.66.53-1.11,2.29,1.13,2.54-.56.74.11,1.1.17,1.64,1.2-.05.75.97,1.99,1.04.06.16.26.3-.51.47-.25.13-.17.2-.14.27.93-.25,1.45-.15,1.05.34,1.1-.06.72.09.13.34.24.13.44.27.64.41,2.02.19.71,4.43.98,5.3-.06.37,1.13.42,1.79.49,1.08-.5,1.98-.45,1.44.06.25.27-.97.54-1.14.75-.59.13-.97.41-.72.55.12.06-.1.27.32.2.75-.35.8-.08,1.14-.07-1.17.67-2.22,1.79-4.14,2.11.09-.16.18-.31.31-.48,0-.16.03-.31.07-.48.03-.06.1-.13.13-.18.33-.17.66-.33.99-.48-.22-.2.18-.83-.86-.49-.04-.11-.08-.23-.13-.34-.27.06-.58.14-.85.2-.03-.09-.07-.19-.1-.27.08-.18.16-.36.24-.54-.28.04-.6.1-.88.14.11-.36.23-.7.35-1.04-.61.18-.37-2.61-.72-2.62-.01-.04-.03-.09-.05-.14-.07-.18-.13-.36-.2-.54-1.17.14-.38-.64-1.37-.54,0-.03-.02-.06-.03-.07-.18-.36-.4-.7-.58-1.04-.89-.56-2.12-1.24-.88-2.39-.07-.06-.01-.17-.29-.13-.71.31-.7.08-.76-.07.71-.2.34-.4.09-.41.02-.21,0-.4.02-.61-.05-.14-.1-.27-.15-.41-.67.16-.92.14-1.36.14.06-.1-.26-.18.14-.27.44-.38-.44-.53.33-.95-.79.1-.43-.37-.64-.56.69-.38.09-.54.14-.81-2.04.28-.19-1.04-.7-1.38.67-.68-1.23-.68.16-1.42.08-.3-.49-.29-1.03-.29,0-.13.05-.27.09-.41-.05-.13-.1-.27-.15-.41-.02-.04-.03-.09-.05-.13,0-.4,1.6-1.08.33-.95.01-.1-.28-.23.12-.34.74-.51.16-.88.67-1.37.02-.08-.26-.19.14-.28.72-.55-1.16-.51.28-1.08-1.54-.22.26-1.67-1.03-2.12.32-.07.41-.23.61-.34.2-.26-.6-.03-.56-.2-.03-.07-.05-.14-.08-.21-.25-.01-.5-.03-.71-.07-.22.07-.44.14-.65.21-.03-.09-.07-.18-.1-.27.16-.21.33-.41.5-.63-.05-.13-.1-.27-.15-.41-.08-.21-.17-.46-.25-.68.26-.08.52-.17.83-.27,0-.01-.01-.04-.02-.06-.22-.06-.39-.13-.56-.2-.1-.13-.24-.24-.37-.34.1-.66.7-1.15.03-1.24-.03-.07-.05-.14-.07-.2.18-.18.35-.37.48-.54.03-.45-.67-.76,0-1.31-.03-.2,0-.4.02-.61-.16-.16-.31-.31-.42-.49,0-.01-.02-.04-.03-.07.13-.31.25-.64.34-.94.03-.18.05-.38.04-.55.3-.65-.02-.85.3-1.17-.09-.26-.18-.5-.28-.76.48-.16,1.02-.4.73-.54-.12-.06.11-.23.34-.27-.1-.14-.25-.27-.35-.41.34-.27,1.09-.35.97-.55-.26-.04-.52-.09-.78-.13-.05-.13-.1-.27-.15-.41.07-.21.13-.44.24-.68.16-.36-.17-.6.09-.95.02-.2.04-.41.02-.61.71-.45.84-.77.02-.61-.02-.06-.04-.1-.05-.14.15-.26.3-.5.41-.74.02-.21.04-.43.01-.63.03-.18.02-.36.04-.54.36-.34,1.05-.47.7-.61-.1-.53.03-.97.37-1.51.51-.33.29-.67.62-.97.85-.34-.29-.53.6-.88-.15-.4-.45-.83.2-1.3.24-.27-.27,1.91.1,1.59.09-.16.5-.21.81-.33.47-.18.45.03.49.14.11.04-.12.21-.34.26.17.19-.04.81.98.14-.46-.19.48-.55.21-.75-.12-.07-.04-.24.32-.33.47-.18.98-.38,1.45-.55.1-.13.19-.27.29-.4.38-.28.77-.57,1.11-.82.81-.33,1.46-.41,1.42,0Z" style="fill: #f8eede;"/>
      <path d="m15.68,146.42c.23.1.51.2.79.29.01.04.03.09.05.13-.08.18-.16.37-.28.55-.08.19-.16.36-.24.54.09.1.22.19.35.27.09.26.18.5.28.76-.39.14-.68.27-1.02.41-.37.2-.09.28-.31.48-.06.24-.11.48-.21.75-.05.4-.32,1.11.86,1.01.01.03.02.06.03.07-.32.18-.64.37-.97.55-.06.23.3.27.61.33.09.1.21.19.3.29-.36.23-.76.45-1.12.67.05.14.1.28.15.41.1.53.58.66.94.7.02.06.05.13.07.2-.25.65-1.36,1.07-1.18,1.31-.35.11-.7.23-1.04.34-.63.01-.5-.3-.62-.5.92-.82-.73-.93-.19-1.7.08-.04.16-.1.19-.14.02-.21,0-.4.02-.61.8-.34.99-.48,1.18-.62.08-.17-.29-.11-.56-.2-.26.09-.57.18-.83.27-.2-.16-.41-.31-.66-.47-.01-.04-.03-.09-.05-.13-.03-.07-.05-.14-.08-.21,0-.01-.01-.04-.03-.07.31-.23.62-.44.92-.68.13-.31.25-.64.38-.95,0-.13.05-.27.09-.41.92-.67,1.16-1.21.76-1.64.42-.44.73-.94.72-1.22.48-.28-.35-.41.69-.77Z" style="fill: #f0ddba;"/>
      <path d="m16.32,150.12c.02.17,0,.37-.04.55-.09.3-.21.63-.34.94-1.18.1-.91-.61-.86-1.01.1-.27.15-.51.21-.75.22-.2-.06-.28.31-.48.34-.14.63-.27,1.02-.41-.32.31,0,.51-.3,1.17Z" style="fill: #f4e6cc;"/>
      <path d="m6.28,155.3s.03.09.05.14c-.25.51-.21.63-.16.74-.22.07-.44.14-.65.21-.47-.23-.79-.41-.45-.7.52-.17.87-.28,1.22-.4Z" style="fill: #f4e6cc;"/>
      <path d="m8.79,155.09c.05.13.08.23.13.34-.11.1-.22.19-.34.27.03.09.07.19.1.27-.44.38-.85.74-1.25,1.09-.22.06-.45.1-.63.14-.13-.09-.26-.17-.34-.27.19-.27.43-.55.62-.82-.11-.04-.18-.09-.29-.13.07-.07.1-.13.16-.21.76-.33,1.28-.5,1.85-.68Z" style="fill: #f4e6cc;"/>
      <path d="m15.96,154.84c.67.09.07.58-.03,1.24.13.1.27.21.37.34.17.07.35.14.56.2,0,.01.02.04.02.06-.3.1-.56.18-.83.27.08.23.17.47.25.68.05.14.11.28.15.41-.17.21-.34.41-.5.63-.51.08-1.01.17-1.51.27-.13-.09-.26-.17-.34-.27-.18-.61-.3-1.23-.44-1.85.01-.1.06-.23.07-.33.35-.11.7-.23,1.04-.34-.19-.24.93-.65,1.18-1.31Z" style="fill: #f4e6cc;"/>
      <path d="m16.71,158.72c.21.04.46.06.71.07.03.07.05.14.08.21-.03.17.76-.06.56.2-.2.11-.29.27-.61.34,1.29.46-.51,1.91,1.03,2.12-1.45.57.44.53-.28,1.08-.4.1-.12.2-.14.28-.5.48.07.85-.67,1.37-.4.11-.11.24-.12.34,1.27-.13-.33.55-.33.95.01.04.03.09.05.13.05.14.11.28.15.41-.04.14-.09.28-.09.41.54,0,1.12-.01,1.03.29-1.39.74.52.74-.16,1.42.52.34-1.34,1.66.7,1.38-.05.27.55.43-.14.81.21.19-.15.65.64.56-.77.43.11.57-.33.95-.41.09-.08.17-.14.27.44,0,.69.02,1.36-.14.05.14.1.27.15.41-.02.21,0,.4-.02.61.25.01.62.21-.09.41.06.16.04.38.76.07.28-.04.22.07.29.13-1.23,1.15,0,1.84.88,2.39.18.34.4.68.58,1.04,0,.01.02.04.03.07.99-.1.2.68,1.37.54.07.19.13.36.2.54.02.06.04.1.05.14.35.01.38,2.61.72,2.62-.39.65,1.27.26.53.9-.28.04-.6.1-.88.14-.34-.13-.72-.23-1.06-.36-.13.04-.26.08-.44.14-.3-.03-.65-.04-.95-.07-.08-.07.07-2.7-.05-2.76-.08-.23-.17-.46-.25-.68-1.43.5.08-.43-.84-.41-.09.03-.13.04-.22.07-.01-.03-.02-.04-.03-.07.1-.13.19-.27.34-.41-.24,0-.49,0-.73.01-.11-.3-.22-.6-.33-.9-.85.08-.74-.29-.86-.49-.1-.01-.16-.04-.26-.06.09-.14.19-.27.33-.43-.16-.16-.3-.3-.42-.47-.82.28-.2-.29-.76-.21-.03-.09-.07-.19-.1-.27-.07-.19-.14-.37-.2-.54.09-.14.19-.27.29-.41.22-.07.44-.14.65-.21.15-.38-.64-.16-.64-.4-.09.03-.13.04-.22.07-.16-.04-.33-.1-.49-.14.09-.14.19-.27.29-.4-.07-.19-.14-.37-.2-.56.26-.34-.68-.12-.78-.27-.05-.13-.08-.23-.13-.34-.01-.03-.02-.06-.03-.07.05-.27.09-.54.14-.81-.06-.16-.12-.33-.18-.48-.02-.04-.03-.09-.05-.13-.08-.23-.17-.47-.25-.68-.3-.03-.25-.14-.28-.23.13-.17.31-.34.48-.54-.03-.21-.02-.44,0-.68-.35.1-.71.18-1.07.27-.03-.21-.02-.44,0-.68.08-.17.16-.36.24-.54-.06-.17-.13-.36-.2-.54-.08-.23-.17-.46-.25-.68.13-.04.26-.08.44-.14.12-.33.21-.63.33-.95,0-.01-.01-.04-.03-.07-.06-.17-.13-.36-.2-.54.04-.17.03-.31.07-.48.05-.27.09-.54.18-.83-.05-.13-.1-.27-.15-.41-.02-.19,0-.4-.03-.6.03-.19.06-.37.04-.56,0-.27-.05-.54-.05-.81-.04-.11-.08-.23-.13-.34.18-.17.37-.33.5-.48.01-.23.03-.46,0-.68.22-.07.43-.14.65-.21Z" style="fill: #f4e6cc;"/>
      <path d="m15.09,165.84c.08.23.17.46.25.68.07.19.14.37.2.54-.08.19-.16.37-.24.54,0,.24-.02.47,0,.68-.15.11-.27.2-.38.28-.05.27-.09.54-.14.81.37-.04.7-.07,1.12-.14.06.04.17.06.23.09.02.04.03.09.05.14-.33.16-.66.31-1,.47,0,.13-.05.27-.05.4.42-.06.88-.13,1.3-.18.02.04.03.09.05.13-.73.53-.69.64-.65.75-.04.03-.12.09-.19.14.29.13.58.26.88.4,0,.01.02.04.03.07.04.11.08.21.13.34-.17.2-.33.41-.51.61.1.26.18.5.28.75-.09.43.58.26.64.41.01.04.03.09.05.13-.02.21,0,.41-.01.63,0,.14-.03.31-.07.47.33-.04.6-.08.92-.14.03.09.07.19.1.27-.69.78.63.51-.56,1.11.02.04.03.09.05.13.47-.04.94-.1,1.37-.13-.34.26-.73.54-1.11.81.04.1.07.19.11.28.13.1.27.21.36.33.02.06.04.1.05.14.86-.06,1.02,0,1.22.14.09-.03.13-.04.22-.07.32.07.68.13,1,.2.01.03.02.04.03.07-.2.24-.66.31-.97.54-1.05.05-.68-.39-.64-.56-.32.06-.6.1-.92.16-.59.13-1.12.25-1.71.4-.39,0-.78,0-1.17,0,0-.01-.02-.04-.03-.07-.01-.43-.02-.85,0-1.3-.09-.26-.18-.5-.28-.76-.03-.2,0-.41-.03-.6-.04.01-.13.04-.17.06-.02-.06-.04-.1-.05-.14-.05-.14-.1-.27-.15-.41-.24-.39-.47-.76-.67-1.15-.04-.24-.04-.5-.03-.76.05-.27.09-.54.14-.81.09-.14.19-.27.33-.41-.27-.07-.54-.14-.8-.2.14-.16.23-.28.34-.41-.21-.31-.38-.64-.6-.96.13-.04.26-.08.44-.14.08-.17.18-.31.27-.47.04-.16.09-.28.09-.41-.24.01-.43.03-.66.06-.04-.24-.04-.5-.03-.75-.04-.11-.08-.23-.13-.34.06-.23.13-.44.19-.67-.06-.16-.07-.31-.37-.34-.2-.14-.4-.29-.6-.43.43-.28-.15-.28-.17-.47.33-.57.12-.61,0-.68.09-.14.19-.27.29-.41.61-.33,1.18-.62,1.75-.95.23.37.46.73.65,1.1Z" style="fill: #edd6ad;"/>
      <path d="m14.19,169.74c0,.13-.05.26-.09.41-.09.16-.18.3-.27.47-.17.06-.3.1-.44.14-.64-.03-1.14-.04-1.06-.36.26-.21.82-.3,1.19-.61.23-.03.42-.04.66-.06Z" style="fill: #f4e6cc;"/>
      <path d="m13.11,178.82c.16.03.31.04.51.06.55-.08,1.16-.17,1.75-.27.01.03.02.06.03.07.39,0,.78,0,1.17,0,.58-.14,1.12-.27,1.71-.4.32-.06.6-.1.92-.16-.03.17-.41.61.64.56-.57.57-.36.75.18.48.79-.1.16.44,1.05.34.16.16.04,2.88.15,3.05.15,0,.29,0,.48-.01.15,0,.29,0,.44.01.26.19.49.4.71.61.02.04.03.09.05.13-.48.16-1,.32-1.48.48-.53.27-1.02.54-1.55.81.15.01.3.01.49,0-.13.17-.22.33-.31.48.03.07.05.14.07.2-.05.13-.06.23-.11.36.71-.06,1.38-.1,2.05-.14-.12.07-.25.13-.37.2-.06.11-.11.24-.12.34-.61.18-1.28.37-1.9.54-.27.2-.5.37-.72.55-.24-.13-.44-.27-.64-.41-.34.14-.68.27-1.02.41-.41.2.11.3-.51.47-.55.1-1.05.2-1.55.28,1.07,0,.3.68-.57.95-.12-.07-.24-.13-.32-.2-.93.13-.57-.36-1.06-.36-.47.17-.03-.34-1.58.21.17-.2.34-.41.5-.63-.04-.11-.08-.23-.13-.34-.13-.34-.39-.4-.66-.47-.01-.17.02-.36.04-.54-.02-.44.24-3.43.23-3.86.44-.14.87-.28,1.26-.41.4-.23.76-.45,1.16-.68-.02-.06-.04-.1-.05-.14-.57-.1-.44-.39-.86-.49-.58.14-1.16.28-1.75.42.15-.26.3-.51.45-.77,0-.01-.02-.04-.03-.07-.05-.13-.1-.27-.15-.4.3-.38.64-.78.94-1.15.31-.1.35-.11.44-.14Z" style="fill: #eace9d;"/>
      <path d="m10.66,179.84c.37.09.7.19,1.08.27.05.13.1.27.15.4-.67.17-1.29.33-1.96.5-.1-.27-.2-.56-.31-.83.35-.11.7-.23,1.05-.34Z" style="fill: #f4e6cc;"/>
      <path d="m26.19,182.7c.04.11.08.23.13.34,1.05-.34.64.29.86.49-.33.16-.66.31-.99.48-.03.06-.1.13-.13.18-.03.17-.07.33-.07.48-.13.17-.22.33-.31.48-.32.2-.63.41-.94.61,1.54.22-.11.9-1.01,1.09-.18.06-.39.13-.61.2-.17-.07-.34-.14-.56-.2-.02-.04-.03-.09-.05-.13.45-.23.95-.47,1.4-.69,0-.01-.01-.04-.03-.07-.07-.19-.13-.36-.2-.54.46-.2.92-.4,1.43-.62-.02-.06-.05-.13-.07-.2.28-.3-.01-.43-.03-.6-.01-.03-.02-.06-.03-.07-.19-.11-.38-.24-.57-.36.31-.23.61-.45.92-.68.27-.06.58-.14.85-.2Z" style="fill: #f4e6cc;"/>
      <path d="m11.7,188.49c1.55-.55,1.11-.04,1.58-.21.49,0,.13.48,1.06.36.07.07.19.13.32.2.88-.27,1.65-.95.57-.95.51-.09,1-.18,1.55-.28.14-.14.32-.31.51-.47.4-.11.69-.26,1.02-.41.2.14.4.29.64.41.22-.18.45-.35.72-.55.62-.17,1.28-.35,1.9-.54.01-.1.06-.23.12-.34.12-.07.25-.13.37-.2.09-.03.17-.06.22-.07.09-.03.13-.04.22-.07.32-.18.65-.35.97-.54.59-.11,1.14-.23,1.73-.34-.03.04-.11.09-.15.13.03.07.05.14.07.2-.5.23-.97.43-1.43.62.07.19.13.36.2.54-.59.13-1.18.24-1.73.34.05.14.1.27.15.41-.39.14-.68.27-1.02.41-.07.07-.14.14-.17.2.15,0,.29,0,.44.02.33-.17.66-.33.99-.48.22.06.39.13.56.2-.43.3-.95.47-1.43.62-.04.01-.13.04-.17.06-.47.3-.9.6-1.33.89-.31-.06-.67-.1-.98-.14-.27-.2-.49-.4-.71-.61-.27.06-.58.14-.85.2-.26-.04-.52-.09-.73-.14-.57.44-.53.54-.5.63-.35.24-.74.5-1.14.75.01.04.03.09.05.14-.13.17-.31.34-.48.54-.34.41-1.2.71-1.99.95-.38-.24-.82-.23-.84-.41.15-.13.34-.27.53-.41-.18-.23-.31-.46-.5-.68.03-.19.02-.36.04-.54-.22.07-.43.14-.61.2-.14-.11-.27-.21-.37-.34.21-.1.38-.17.58-.27Z" style="fill: #edd6ad;"/>
      <path d="m17.42,188.78c.11.03.22.07.29.13.28-.04.6-.1.88-.13,0,.13-.05.26-.05.4-.32.07-.59.13-.9.21-.6.48-1.37.51-1.85.68-.31-.04-.86.06-.95-.07.17-.2.35-.37.48-.54.7-.23,1.39-.45,2.09-.68Z" style="fill: #f4e6cc;"/>
      <path d="m12.69,191.66c.64.27,1.3.49.54.81-.29,0-.63,0-.93,0-.08-.21-.26-.43.38-.81Z" style="fill: #f4e6cc;"/>
      <path d="m9.45,147.38c.05.14.1.27.15.41.34.11.96.23-.05.54.13.1.26.17.34.27-.43.14-.53.41-.97.55-1.15.18-.34-.54-1.32-.42.19-.28.41-.6.6-.88.15-.13.28-.17.41-.21.26-.08.57-.18.83-.27Z" style="fill: #f8eede;"/>
      <path d="m8.9,150.24c.25.27.42.47.48.77.45-.1.9-.2,1.31-.28.4.29-.21.63-.79,1.02-.49.14-.76.07-1.22-.13-.37.04-.75.08-1.12.13-.03-.07-.05-.13-.07-.2.05-.11.06-.23.12-.34.42-.31.84-.64,1.3-.97Z" style="fill: #f8eede;"/>
      <path d="m12.15,152.17c.03.07.05.14.08.21.02.04.03.09.05.13.25.16.46.31.66.47-.08.06-.11.1-.19.14.14.13.25.29.4.41-.02.21,0,.4-.02.61.01.03.02.06.03.07-.04.01-.13.04-.22.07-.63.16-1.25.31-1.92.47-.76.45-1.71.78-2.09.68-.04-.11-.08-.21-.13-.34.32-.33-.03-.47,0-.68.11-.11.21-.21.36-.34.26-.08.52-.17.83-.27.01-.1.06-.23.12-.34-.04-.23-.02-.46-.06-.68.71-.2,1.42-.4,2.12-.61Z" style="fill: #f8eede;"/>
      <path d="m6.77,155.3c.06.16.12.31.17.47-.07.09-.09.14-.16.21.11.04.18.09.29.13-.19.27-.43.55-.62.82-.33.04-.6.08-.88.13-.03-.21-.02-.45-.05-.67.22-.07.44-.14.65-.21-.04-.11-.08-.23.16-.74.18-.06.31-.1.44-.14Z" style="fill: #f8eede;"/>
      <path d="m8.68,155.98c.51.2.58.37.06.83-.45.1-.86.18-1.32.27.41-.36.81-.71,1.25-1.09Z" style="fill: #f8eede;"/>
      <path d="m14.45,158.93c.06.16.12.31.17.47-.15.11-.27.2-.38.28-.36.09-.71.18-1.07.27-.42-.34-1.08-.56-.33-.88.44-.14.83-.27,1.26-.41.09.1.21.19.34.27Z" style="fill: #f8eede;"/>
      <path d="m15.96,158.67c.03.09.07.18.1.27.03.23.02.46,0,.68-.14.16-.32.31-.5.48.04.11.08.23.13.34,0,.27.05.54.05.81.02.19,0,.37-.04.56.02.2,0,.41.03.6.05.14.11.29.15.41-.09.28-.14.55-.18.83-.03.17-.03.31-.07.48.07.19.14.37.2.54.01.03.02.06.03.07-.12.33-.21.63-.33.95-.18.06-.31.1-.44.14-.19-.37-.41-.73-.65-1.1-.64.51-1.3.71-1.75.95-.11-.31-.23-.63-.35-.95.29-.27-.02-.44.63-.81.02-.21.04-.43.01-.63.14-.28.27-.6.4-.9-.02-.19,0-.4-.03-.6.37-.33.74-.64,1.06-.95-.28-.09-.51-.2-.79-.29.13-.06.25-.13.37-.2.11-.24.17-.46.24-.68.11-.08.23-.17.38-.28-.06-.16-.12-.31-.17-.47.5-.1,1.01-.18,1.51-.27Z" style="fill: #f0ddba;"/>
      <path d="m13.64,160.57c.28.09.51.2.79.29-.32.31-.7.62-1.06.95-.05-.53-.92-.66.06-1.17.04-.01.13-.04.22-.07Z" style="fill: #f8eede;"/>
      <path d="m7.65,163.36c.35-.1.71-.18,1.07-.27.06.16.12.31.17.47.18.1.36.19.54.29-.01.23.49.41-.41.74-.35.1-.71.18-1.07.28-.17-.19-.28-.37-.45-.56-.4-.01-.8-.04-1.19-.06-.07-.19-.14-.37-.21-.56.23-.17.5-.37,1.16-.68.1.13.23.23.37.34Z" style="fill: #f8eede;"/>
      <path d="m7.94,167.32c.33.23.74.16.79.29.03.09.07.19.1.27.78.27,1.06.49.3.83-.49.13-.98.25-1.46.4-.21-.03-.37-.09-.54-.13.21-.23.46-.47.68-.68-.38.03-.77.04-1.15.07.02-.21-.33-.36.23-.7.35-.11.7-.23,1.04-.34Z" style="fill: #f8eede;"/>
      <path d="m13.37,168.7c-.42.06-.75.08-1.12.14-.1-.27.14-.68.94-1.15.3.03.31.19.37.34-.06.23-.13.44-.19.67Z" style="fill: #f8eede;"/>
      <path d="m14.47,172.33c-.14.14-.24.27-.33.41-.89-.02-1.2-.2-.47-.61.26.06.53.13.8.2Z" style="fill: #f8eede;"/>
      <path d="m13.99,173.56c0,.26,0,.51.03.76-.65.08-1.06.17-.93,0-.29-.13.15-.38.89-.75Z" style="fill: #f8eede;"/>
      <path d="m15.07,175.96c.02.18,0,.4.03.6-.4.1-.71.18-1.07.27.25-.24-.29-.4.87-.81.04-.01.13-.04.17-.06Z" style="fill: #f8eede;"/>
      <path d="m15.37,178.61c-.6.1-1.2.18-1.75.27-.2-.01-.35-.03-.51-.06.43-.55,1.46-.79,1.23-1.16.35-.11.65-.21,1.05-.34-.03.44-.02.87,0,1.3Z" style="fill: #f8eede;"/>
      <path d="m10.66,179.84c-.35.11-.7.23-1.05.34-.1-.14-.25-.27-.35-.41.54-.13,1.48-.62,1.7-.41-.09.16-.18.31-.31.48Z" style="fill: #f8eede;"/>
      <path d="m8.4,145.2c.17.2.34.4.47.61-.8.34.1.53-.36.88-.3.38.07.73.11.95-.12.07-.25.13-.41.21-.19.28-.41.6-.6.88-.33-.11-.72-.23-1.05-.34-.09.03-.13.04-.22.07-.47-.21-.89-.41-.25-.68-.09-.64.1-1.31.88-2.12-.07-.19-.14-.37-.2-.56.58-.41.16-.9,1.35-1.35,1.46-.27.22.74.29,1.44Z" style="fill: #f0ddba;"/>
      <path d="m16.53,145.54c.1.14.24.27.35.41-.38.16-.81.33-1.19.47,0-.01-.02-.04-.03-.07.07-.2.15-.4.22-.6.22-.07.44-.14.65-.21Z" style="fill: #f0ddba;"/>
      <path d="m7.1,154.35c.32-.2.8-.34,1.24-.48.27.07.54.13.81.2-.15.13-.26.23-.36.34.07.18.14.37.21.55-.08.04-.12.09-.2.13-.57.18-1.09.35-1.85.68-.06-.16-.11-.31-.17-.47-.13.04-.26.09-.44.14-.02-.06-.04-.1-.05-.14-.35.11-.7.23-1.22.4.06-.23.13-.44.19-.67.26-.09.57-.18.83-.27.34-.14.67-.28,1.02-.41Z" style="fill: #f0ddba;"/>
      <path d="m15.55,167.07c-.08.19-.16.37-.24.54.08-.17.16-.36.24-.54Z" style="fill: #f0ddba;"/>
      <path d="m16.39,168.02c0,.24-.02.47,0,.68-.17.2-.35.37-.48.54-.41.07-.74.1-1.12.14.05-.27.09-.54.14-.81.11-.08.23-.17.38-.28.36-.09.72-.17,1.07-.27Z" style="fill: #f0ddba;"/>
      <path d="m16.44,170.16c-.42.06-.88.13-1.3.18,0-.13.05-.27.05-.4.33-.16.66-.31,1-.47.08.21.17.46.25.68Z" style="fill: #f0ddba;"/>
      <path d="m16.67,170.77c-.04.27-.09.54-.14.81-.3-.14-.59-.27-.88-.4.45-.36-.37-.49.84-.9.06.16.12.33.18.48Z" style="fill: #f0ddba;"/>
      <path d="m16.68,171.99c.11.16,1.05-.07.78.27.07.19.14.37.2.56-.1.13-.2.26-.29.4.16.04.33.1.49.14.09-.03.13-.04.22-.07,0,.24.79.02.64.4-.22.07-.44.14-.65.21-.09.14-.19.27-.29.41.06.17.13.36.2.54-.32.06-.6.1-.92.14.04-.16.08-.33.07-.47.02-.21,0-.41.01-.63-.02-.04-.03-.09-.05-.13-.06-.16-.73.01-.64-.41-.1-.26-.18-.5-.28-.75.17-.2.34-.41.51-.61Z" style="fill: #f0ddba;"/>
      <path d="m19.26,175.81c-.14.16-.24.28-.33.43-.43.03-.89.08-1.37.13-.01-.04-.03-.09-.05-.13,1.19-.6-.12-.33.56-1.11.56-.07-.06.5.76.21.11.17.26.31.42.47Z" style="fill: #f0ddba;"/>
      <path d="m22.16,181.94c.3.03.65.04.95.07-.32.18-.64.37-.96.55-.15-.01-.3-.01-.44-.01.14-.28.42-.45.46-.61Z" style="fill: #f0ddba;"/>
      <path d="m25.48,182.09c-.08.18-.16.36-.24.54-.51.08-1.05.18-1.55.28.3-.24.61-.45.92-.68.28-.04.6-.1.88-.14Z" style="fill: #f0ddba;"/>
      <path d="m11.41,187.05c.27.07.54.13.66.47.04.11.08.23.13.34-.17.21-.33.43-.5.63-.05-.13-.1-.27-.15-.41-.26.08-.56.18-.83.27,0-.14.03-.31.07-.47.19-.27.43-.55.62-.82Z" style="fill: #edd6ad;"/>
      <path d="m11.55,188.07c.05.14.1.28.15.41-.21.1-.38.17-.58.27-.15-.13-.3-.27-.4-.41.26-.08.57-.18.83-.27Z" style="fill: #f0ddba;"/>
      <path d="m25.19,184.48s-.11.09-.15.13c-.55.08-1.07.14-1.58.21.02-.07.09-.14.17-.21.46-.2.93-.4,1.39-.6.06.16.12.31.17.47Z" style="fill: #f0ddba;"/>
      <path d="m12.1,188.9c-.03.18-.01.36-.04.54-.19-.11-.38-.23-.56-.34.17-.06.39-.13.61-.2Z" style="fill: #f0ddba;"/>
      <path d="m16.91,187.94c.22.06.48.1.73.14.27-.06.58-.14.85-.2.23.21.44.41.71.61.31.04.67.09.98.14-.38.28-1.31.67-1.65.54,0-.14.05-.27.05-.4-.28.03-.6.08-.88.13-.07-.06-.18-.1-.29-.13-.7.23-1.39.45-2.09.68-.02-.06-.04-.1-.05-.14.39-.26.79-.51,1.14-.75-.03-.09-.07-.19.5-.63Z" style="fill: #f0ddba;"/>
      <path d="m23.89,185.97s.02.06.03.07c-.45.23-.95.47-1.4.69.02.04.03.09.05.13-.33.16-.67.31-.99.48-.15-.01-.3-.01-.44-.02.03-.06.1-.13.17-.2.34-.14.63-.27,1.02-.41-.05-.14-.1-.27-.15-.41.55-.1,1.14-.21,1.73-.34Z" style="fill: #f0ddba;"/>
      <path d="m12.85,190.95c-1.04.61-1.92,1.01-2.63,1.08-.04-.11-.08-.23-.13-.34.19-.28.88-.65,1.92-1.15.02.18.45.17.84.41Z" style="fill: #f0ddba;"/>
      <path d="m6.56,148.4c.33.11.72.23,1.05.34-.27.33-1.07.41-1.36.67-.35-.29-1.24-.46.09-.94.09-.03.13-.04.22-.07Z" style="fill: #edd6ad;"/>
      <path d="m7.61,148.74c.98-.13.17.6,1.32.42-.32.18-.65.35-.97.54.08.21.15.41.23.61-.48.16-.96.31-1.63.61-.3.1-.56.18-.83.27.03-.31.06-.63.09-.94.45-.1.86-.18,1.31-.28.21-.48-.77-.23-.84-.41-.02-.04-.03-.09-.05-.14.3-.26,1.09-.34,1.36-.67Z" style="fill: #f0ddba;"/>
      <path d="m6.3,149.55c.07.18,1.05-.07.84.41-.45.1-.86.18-1.31.28.16-.23.31-.47.47-.7Z" style="fill: #edd6ad;"/>
      <path d="m6.57,150.92c.04.24.11.44,1.03.29-.05.11-.06.23-.12.34.03.07.05.13.07.2-.31.23-.61.45-.92.68-.04.16.58-.01.4.41.16.17.07.46-.44.67.15.28.35.56.51.84-.34.13-.68.27-1.02.41-.26.09-.57.18-.83.27.05-.53.1-1.05.15-1.58.04-.3.08-.58.11-.88.03-.19.01-.37.04-.55.05-.27.09-.54.18-.83.26-.09.52-.17.83-.27Z" style="fill: #edd6ad;"/>
      <path d="m13.76,152.71c.27.09.64.03.56.2-.19.14-.38.28-1.18.62-.15-.13-.25-.28-.4-.41.08-.04.11-.09.19-.14.26-.09.57-.18.83-.27Z" style="fill: #edd6ad;"/>
      <path d="m12.67,178.96c-.3.37-.64.77-.94,1.15-.37-.09-.7-.19-1.08-.27.13-.17.22-.33.31-.48.58-.14,1.12-.27,1.71-.4Z" style="fill: #edd6ad;"/>
      <path d="m13.2,180.93c.43.1.29.39.86.49.02.04.03.09.05.14-.4.23-.76.45-1.16.68-.39.13-.83.27-1.26.41-.1-.27-.2-.54-.3-.83.36-.21.07-.33.07-.47.58-.14,1.16-.28,1.75-.42Z" style="fill: #edd6ad;"/>
      <path d="m22.11,179.18c.12.06-.03,2.69.05,2.76-.04.16-.32.33-.46.61-.19.01-.34.01-.48.01-.11-.17,0-2.89-.15-3.05.48-.16.78-.25,1.04-.34Z" style="fill: #edd6ad;"/>
      <path d="m23.54,181.87c.34.13.72.23,1.06.36-.31.23-.62.44-.92.68.5-.1,1.05-.2,1.55-.28.03.09.07.19.1.27-.31.23-.61.45-.92.68.19.11.38.24.57.36,0,.01.02.04.03.07-.46.2-.93.4-1.39.6-.06-.16-.12-.31-.17-.47.19-.14.34-.27.53-.41-.31-.04-.66-.09-.98-.14-.03-.09-.07-.18-.1-.27-.02-.04-.03-.09-.05-.13-.22-.21-.45-.43-.71-.61.32-.18.64-.37.96-.55.18-.06.31-.1.44-.14Z" style="fill: #edd6ad;"/>
      <path d="m16.38,184.67c.98.02.9.33,1.76.27.02.04.03.09.05.14-.26.21-.49.4-.74.63-1.24.47-.25-.43-1.25-.22-.01-.04-.03-.09-.05-.13.1-.24.17-.47.23-.7Z" style="fill: #edd6ad;"/>
      <path d="m21.42,183.79c.69.03-.52.3-.27.47.28-.04.6-.1.88-.13.32-.18.64-.37.97-.55.31.06.67.1.98.14-.19.14-.34.27-.53.41.06.16.12.31.17.47-.07.07-.14.14-.17.21-.32.18-.65.35-.97.54-.09.03-.13.04-.22.07-.04.01-.13.04-.22.07-.12.07-.25.13-.37.2-.55-.03-1.14-.04-1.68-.06.05-.13.06-.23.11-.36-.02-.06-.05-.13-.07-.2.09-.16.18-.31.31-.48-.19.01-.34.01-.49,0,.53-.27,1.02-.54,1.55-.81Z" style="fill: #e6c68d;"/>
      <path d="m22.9,183.31c.03.09.07.19.1.27-.32.19-.65.37-.97.55-.28.03-.6.08-.88.13-.26-.17.96-.44.27-.47.48-.16,1-.33,1.48-.48Z" style="fill: #e2bd7b;"/>
      <path d="m15.94,151.62s.02.06.03.07c.11.17.27.33.42.49-.02.21-.04.41-.02.61-.67.55.02.85,0,1.31-.13.17-.31.36-.48.54-.36-.04-.84-.17-.94-.7-.05-.13-.1-.27-.15-.41.36-.21.76-.44,1.12-.67-.09-.1-.21-.19-.3-.29-.67-.23-.64-.4.33-.95Z" style="fill: #f4e6cc;"/>
      <path d="m15.09,165.84c.08.23.17.46.25.68-.08-.23-.17-.46-.25-.68Z" style="fill: #f0ddba;"/>
      <path d="m18.93,176.24c.1.01.16.04.26.06.12.2.02.57.86.49.11.3.22.6.33.9.24-.01.48-.01.73-.01-.14.14-.24.28-.34.41-.32-.07-.68-.13-1-.2-.09.03-.13.04-.22.07-.41-.06-.82-.1-1.22-.14-.02-.04-.03-.09-.05-.14-.09-.11-.23-.23-.36-.33-.04-.1-.07-.18-.11-.28.39-.27.77-.55,1.11-.81Z" style="fill: #f0ddba;"/>
      <path d="m22.06,185.5c.09-.03.17-.06.22-.07-.04.01-.13.04-.22.07Z" style="fill: #eace9d;"/>
      <path d="m20.78,178.08c.1,0,.15,0,.24,0,.92-.01-.59.91.84.41.08.23.17.46.25.68-.26.09-.57.18-1.04.34-.89.1-.26-.44-1.05-.34-.53.27-.75.08-.18-.48.33-.17.65-.35.97-.54-.01-.03-.02-.04-.03-.07Z" style="fill: #f0ddba;"/>
      <path d="m19.84,178.69c-.57.57-.36.75.18.48-.53.27-.75.08-.18-.48Z" style="fill: #edd6ad;"/>
    </g>
  </g>
  <g style="opacity: .8;">
    <g style="opacity: .8;">
      <path d="m274.95,163.4c-.36.06-.73.1-1.09.16-.02-.28-.86-.04-.95-.2.1-.15.2-.31.31-.46.49-.13,1.01-.29,1.5-.43.37-.04.46-.25.33-.36-.27-.31.7-.61.24-.94,1.06-.67.83.11.99.38-.23.01-.47.19-.36.26.04.16.01.43.49.28.31-.09.74-.08.83-.27.39-.33-.2,2.4.05,2.09.68-.48.39-1.1.25-1.64.92-.28-.23-.75.64-1.03.34-.32.13-.81.66-1.14.36-.64.51-1.19.43-1.89-.35-.25.35-.28.73-.66.04-.23.03-.46.06-.69-.02-.26,0-.54.03-.81.12-.29.28-.58.44-.88-.02-.06-.03-.12-.05-.2-.84.04-.7-.34.04-.79-.02-.26,0-.54.04-.79.28-.41-.06-.79.12-1.22.12-.29.19-.58.26-.84-.05-.2-.1-.39-.14-.57-.26-.11-.53-.21-.79-.32-.12-.28.65-.25,1-.53-.1-.21-.24-.4-.34-.61.23,0,.47-.19.35-.28-.3-.24.27-.45.76-.56.13.14.26.27.34.42-.09.22-.18.43-.26.66-.13.22-.22.44-.31.67.29.23.58.45.84.7,0,.02.02.06.02.1-.4.09-.85.19-1.25.28.1.2.24.4.34.61.22-.05.45-.1.67-.15.1.41.2.82.31,1.23-.26.84-.48,1.67-.96,2.59.02.26-.01.52-.04.79-.37.23.11.43-.49.71-.1.15-.2.31-.35.47.02.26,0,.54,0,.8-.33.57.11,1.38-.45,1.98-.02.11.26.29-.11.31-.55.99-.73,2.16-.64,2.93-1,.32-.24.57-.21,1.04-.22.24-.49.5-.71.74.23.18-.19.37-.51.61-.05.18-.1.35-.11.52-.59.11-.91-2.92-1.4-2.97-.53-.03-1.05-.04-1.57-.07Z" style="fill: #f4e6cc;"/>
      <path d="m290.14,147.31c-.24-.03-.48-.04-.72-.05.48-.33.92-.68,1.35-1,.94-.02,1,.25,1.04.58-.69.26-1.18.36-1.68.47Z" style="fill: #f4e6cc;"/>
      <path d="m289.69,145.51c-.46-.35-.74-.5-1.23-.41-.05-.22-.11-.45-.17-.67,0-.23.03-.46.06-.7-.03-.3,0-.6-.04-.9.06-.14.12-.29.13-.42.31-.07.58-.13.85-.19.27.15.54.27.81.42.45-.1.94-.19,1.27-.38.15.4.34.79.49,1.19-.52.18-.62.53-.46.78-.2.52.43.42.39.62-.32.24-.64.47-.96.71-.38-.02-.77-.04-1.15-.06Z" style="fill: #f4e6cc;"/>
      <path d="m270.31,163.93c-1.06-.3-.27-.52-.41-.69.26-.26.49-.5.71-.75.41-.05.73-.1,1.1-.14-.12-.86,1.05-1.66.98-2.49.06-.92.83-1.77.22-2.73,1.22-.39.33-1.13,1.44-1.6.04-.42-.59-.88.12-1.22.05-.38-.83-.11-.57-.58,1.74-.59-.29-1.36,1.06-2.01.65-.43-.07,2.18.16,1.78.38-.19.1-.35.11-.52-.22-.12-.6.07-.47-.2,1.43-.13,1.65-.59,1.99-1.12-.27-.15-.83-.29-.39-.62,1.06-.29,1.15-.87.59-1.22-.34.16-.68.29-1.02.43-.31-.3.13-.81.98-.61.69-.46.59-.83.21-1.04-.67.15-.9.2-1.07.24-.05-.2-.09-.37.04-.61.26-.26.49-.5.75-.76-2.21-.56-.14-1.87-.68-2.72.5-.44-.7-1.09.56-1.32.39.06.23.34.74.33.78-.85,1.61-1.7.18-2.11-.65-.33.87-.48.46-.8-.61-.19-1.46.2-1.24-.43.89-.42.74-.82.82-1.25-.09-.19-.23-.36-.36-.52-.82.12-.67-.24-.54-.48.65-.43-.4-1.03,1.27-1.17-.15-.4-.34-.79-.53-1.18-.34.16-.64.28-1.03.43.04-.24-.26-.48.28-.76.23-.22.5-.44.73-.66-.85-.2.51-.96-.7-1.12-.5-.32-.82-.62.17-1.03.06-.12.13-.24.16-.32-.31-.12-.66-.18-.97-.28-.33-.18.38-.35.28-.56-.02-.08-.04-.14-.05-.2-.05-.2-.09-.37-.14-.57.24-.34.44-.7.68-1.04.26-.1.57-.19.82-.29-.44-.63-.13-1.29.21-1.82-.79.03-.39-.45-.59-.67,1.43-1.45-.48-2.7.37-3.84,1.01-.88-1.74-1.1.48-1.88-.03-.32-.22-.67-1.06-.47-1.67-1.02,1.2-2.76-1.06-3.52.59-.85-.08-1.45-.11-2.16-1.22-.16-.73-1.41-1.99-1.75-.05-.22-.25-.44.53-.51.25-.12.18-.23.15-.32-.95.15-1.48-.09-1.06-.65-1.12-.14-.72-.25-.12-.47-.24-.22-.44-.44-.64-.66-2.05-.64-.57-5.9-.82-7.09.07-.47-1.13-.76-1.8-.99-1.12.43-2.02.2-1.46-.36-.24-.4,1-.51,1.18-.76.6-.05,1-.34.75-.58-.12-.1.11-.33-.32-.32-.77.31-.81-.05-1.17-.13,1.21-.64,2.31-1.89,4.28-1.94-.09.19-.19.37-.33.57,0,.21-.04.4-.08.62-.03.07-.1.15-.14.22-.34.16-.68.3-1.02.43.22.3-.21,1.04.86.8.04.16.08.31.12.47.28-.02.6-.07.87-.09.03.12.06.25.09.37-.08.22-.18.43-.26.66.28,0,.61-.01.89-.01-.13.44-.26.86-.39,1.28.63-.12.29,3.46.65,3.55.01.06.03.12.05.2.06.25.12.49.19.74,1.19.05.37.91,1.37.98,0,.04.02.08.02.1.17.5.39.99.55,1.47.88.9,2.11,2.03.82,3.29.07.09,0,.23.29.23.74-.27.72.03.77.24-.72.12-.36.45-.11.52-.03.27-.01.52-.04.79.05.2.09.37.14.57.69-.07.94,0,1.39.09-.06.12.26.29-.16.32-.46.41.43.77-.37,1.18.81.03.42.57.64.85-.71.36-.11.69-.17,1.03,2.08.04.16,1.39.67,1.94-.71.76,1.23,1.13-.21,1.82-.1.37.49.47,1.04.58,0,.17-.06.34-.1.52.04.18.09.37.14.57.02.06.03.12.04.18-.01.52-1.66,1.09-.37,1.18-.01.13.28.35-.13.42-.77.52-.19,1.12-.72,1.65-.02.11.26.29-.15.34-.75.58,1.17.9-.33,1.35,1.56.58-.32,2.11.97,2.96-.32.03-.42.22-.63.32-.21.29.6.15.56.37.02.1.05.2.07.29.25.07.5.14.72.23.23-.05.45-.1.67-.15.03.12.06.25.09.37-.17.25-.35.47-.53.72.04.18.09.37.14.57.07.29.15.63.23.94-.27.06-.54.12-.85.19,0,.02.01.06.02.08.22.12.39.24.56.37.09.19.23.36.36.52-.12.83-.75,1.36-.07,1.61.03.1.05.2.07.27-.18.21-.37.41-.51.61-.04.59.65,1.11-.05,1.7.02.26-.01.52-.04.79.15.23.3.47.41.71,0,.02.02.06.03.1-.14.38-.28.78-.37,1.16-.03.24-.07.49-.06.71-.32.79,0,1.12-.35,1.46.09.35.17.68.26,1.04-.49.11-1.05.32-.76.56.12.1-.12.27-.35.28.1.21.24.4.34.61-.35.28-1.12.25-1,.53.26.11.53.21.79.32.04.18.09.37.14.57-.08.26-.15.55-.26.84-.18.43.16.81-.12,1.22-.03.25-.06.53-.04.79-.74.45-.88.83-.04.79.02.08.03.14.05.2-.16.3-.33.59-.44.88-.03.27-.05.55-.03.81-.04.23-.03.46-.06.69-.38.37-1.08.4-.73.66.08.7-.07,1.25-.43,1.89-.53.32-.32.81-.66,1.14-.88.28.28.74-.64,1.03.14.55.43,1.16-.25,1.64-.26.3.34-2.43-.05-2.09-.09.19-.52.18-.83.27-.48.15-.45-.13-.49-.28-.11-.08.12-.25.36-.26-.16-.27.07-1.05-.99-.38.46.33-.5.63-.24.94.12.12.03.32-.33.36-.48.15-1.01.31-1.5.43-.1.15-.2.31-.31.46-.4.29-.8.59-1.16.85-.83.27-1.5.25-1.44-.28Z" style="fill: #f8eede;"/>
      <path d="m282.4,150.9c-.23-.18-.51-.36-.79-.53-.01-.06-.03-.12-.04-.18.09-.23.17-.45.31-.67.09-.23.18-.43.26-.66-.08-.15-.21-.28-.34-.42-.09-.35-.17-.69-.26-1.04.4-.11.7-.22,1.05-.33.38-.19.1-.35.33-.57.07-.3.13-.61.24-.94.06-.51.36-1.38-.84-1.49,0-.04-.02-.08-.03-.1.33-.18.67-.35,1-.53.07-.28-.29-.41-.61-.55-.08-.15-.21-.28-.3-.43.37-.23.79-.44,1.16-.65-.05-.2-.1-.39-.14-.57-.08-.7-.57-.97-.93-1.09-.02-.08-.04-.18-.07-.27.27-.8,1.42-1.12,1.24-1.47.36-.08.71-.16,1.07-.24.64.11.5.49.62.77-.96.89.71,1.35.13,2.24-.08.04-.16.1-.2.15-.03.27-.01.52-.04.79-.82.29-1.02.43-1.22.58-.09.2.29.2.56.37.27-.06.58-.13.85-.19.2.24.41.49.66.74.01.06.03.12.04.18.02.1.05.2.07.29,0,.02.01.06.02.1-.32.24-.64.45-.96.71-.14.38-.28.78-.42,1.17,0,.17-.06.34-.11.52-.96.69-1.22,1.34-.83,1.98-.44.49-.77,1.08-.77,1.45-.5.28.34.61-.73.86Z" style="fill: #f0ddba;"/>
      <path d="m281.88,145.96c0-.22.02-.48.06-.71.1-.37.23-.77.37-1.16,1.2.11.9.98.84,1.49-.11.33-.17.64-.24.94-.23.22.05.38-.33.57-.35.12-.65.23-1.05.33.34-.34.02-.67.35-1.46Z" style="fill: #f4e6cc;"/>
      <path d="m292.25,141.19c-.01-.06-.03-.12-.05-.2.27-.62.23-.77.19-.93.22-.05.45-.1.67-.15.47.39.78.69.44,1-.54.12-.89.2-1.25.28Z" style="fill: #f4e6cc;"/>
      <path d="m289.69,140.97c-.04-.18-.08-.31-.12-.47.12-.11.23-.2.35-.28-.03-.12-.06-.25-.09-.37.46-.41.89-.79,1.31-1.18.23-.03.46-.04.64-.06.13.14.26.27.34.42-.2.31-.45.64-.66.95.11.08.18.15.29.22-.07.08-.1.15-.17.24-.78.28-1.32.39-1.9.52Z" style="fill: #f4e6cc;"/>
      <path d="m282.4,139.9c-.67-.24-.05-.77.07-1.61-.13-.16-.27-.33-.36-.52-.17-.13-.35-.25-.56-.37,0-.02-.01-.06-.02-.08.31-.07.58-.13.85-.19-.08-.31-.16-.65-.23-.94-.05-.19-.1-.39-.14-.57.18-.25.36-.47.53-.72.52-.01,1.03-.02,1.54-.05.13.14.26.27.34.42.16.83.27,1.65.39,2.5-.02.13-.07.28-.09.41-.36.08-.72.16-1.07.24.18.35-.97.67-1.24,1.47Z" style="fill: #f4e6cc;"/>
      <path d="m281.76,134.69c-.21-.1-.46-.17-.72-.23-.02-.1-.05-.2-.07-.29.04-.22-.77-.08-.56-.37.21-.11.3-.29.63-.32-1.3-.85.59-2.38-.97-2.96,1.49-.45-.43-.77.33-1.35.41-.05.13-.24.15-.34.53-.53-.04-1.13.72-1.65.41-.07.12-.29.13-.42-1.29-.09.36-.66.37-1.18-.01-.06-.03-.12-.04-.18-.05-.2-.1-.39-.14-.57.05-.18.1-.35.1-.52-.55-.11-1.13-.2-1.04-.58,1.43-.69-.5-1.07.21-1.82-.51-.55,1.41-1.9-.67-1.94.06-.34-.54-.66.17-1.03-.21-.28.17-.82-.64-.85.8-.4-.09-.76.37-1.18.42-.03.09-.21.16-.32-.45-.09-.7-.16-1.39-.09-.05-.2-.09-.37-.14-.57.03-.27.01-.52.04-.79-.25-.07-.62-.4.11-.52-.05-.22-.03-.51-.77-.24-.28,0-.22-.14-.29-.23,1.29-1.25.07-2.39-.82-3.29-.17-.48-.38-.97-.55-1.47,0-.02-.02-.06-.02-.1-1.01-.07-.18-.93-1.37-.98-.06-.25-.12-.49-.19-.74-.02-.08-.03-.14-.05-.2-.35-.09-.3-3.46-.65-3.55.42-.77-1.28-.58-.51-1.27.28,0,.61-.01.89-.01.34.23.72.44,1.06.67.13-.03.27-.06.45-.1.3.1.66.19.96.28.08.11-.17,3.5-.05,3.6.08.31.15.63.23.94,1.47-.36-.1.54.84.7.09-.02.13-.03.22-.05,0,.04.01.06.02.1-.11.15-.2.31-.35.47.25.05.5.1.74.13.1.41.21.82.31,1.23.86.06.74.52.86.8.1.04.16.09.27.13-.1.17-.21.31-.35.49.15.23.3.45.41.69.84-.21.2.41.77.43.03.12.06.25.09.37.06.25.13.51.19.74-.1.17-.21.31-.3.48-.22.05-.45.1-.67.15-.17.47.65.33.63.64.09-.02.13-.03.22-.05.16.09.33.2.49.28-.1.17-.2.31-.31.46.06.25.13.51.19.76-.28.39.68.28.79.51.04.18.08.31.12.47,0,.04.02.08.02.1-.06.34-.11.69-.17,1.03.05.21.11.45.16.67.01.06.03.12.04.18.08.31.16.65.23.94.31.1.25.23.28.35-.14.2-.33.38-.51.61.02.28,0,.58-.01.89.36-.06.73-.1,1.1-.14.02.28,0,.58-.01.89-.09.21-.18.43-.26.66.06.23.12.49.19.74.08.31.16.63.23.94-.13.03-.27.06-.45.1-.13.4-.23.77-.37,1.18,0,.02.01.06.02.1.06.23.12.49.19.74-.04.22-.04.4-.08.62-.06.34-.11.69-.21,1.04.04.18.09.37.14.57.01.24-.01.52,0,.78-.04.23-.07.47-.06.71,0,.35.04.71.03,1.07.04.16.08.31.12.47-.19.19-.38.35-.53.53-.02.29-.04.59-.02.89-.22.05-.45.1-.67.15Z" style="fill: #f4e6cc;"/>
      <path d="m283.65,125.75c-.08-.31-.16-.63-.23-.94-.06-.25-.13-.51-.19-.74.09-.23.17-.45.26-.66.02-.31.04-.61.01-.89.16-.12.28-.21.4-.29.06-.34.11-.69.17-1.03-.38-.02-.72-.05-1.14-.04-.06-.07-.17-.11-.23-.16-.02-.06-.03-.12-.05-.2.34-.14.69-.28,1.03-.41,0-.17.06-.34.06-.51-.43,0-.9,0-1.32-.02-.01-.06-.03-.12-.04-.18.76-.54.72-.7.68-.85.04-.03.12-.09.2-.15-.29-.23-.58-.45-.88-.69,0-.02-.02-.06-.02-.1-.04-.16-.07-.29-.12-.47.18-.23.35-.47.53-.7-.09-.35-.17-.68-.26-1.04.1-.54-.58-.45-.64-.66-.01-.06-.03-.12-.04-.18.03-.27,0-.54.03-.81,0-.19.04-.4.09-.6-.33,0-.62,0-.94,0-.03-.12-.06-.25-.09-.37.72-.88-.62-.79.61-1.33-.01-.06-.03-.12-.04-.18-.48-.04-.96-.06-1.39-.11.36-.27.76-.56,1.16-.83-.03-.14-.06-.25-.1-.39-.13-.16-.27-.33-.36-.5-.02-.08-.03-.14-.05-.2-.87-.1-1.04-.2-1.24-.43-.09.02-.13.03-.23.05-.32-.16-.69-.3-1.01-.46,0-.04-.01-.06-.02-.1.21-.27.69-.28,1-.51,1.07.14.68.64.64.85.33-.01.61-.01.94-.02.6-.05,1.15-.11,1.75-.18.4.08.79.16,1.19.23,0,.02.02.06.02.1,0,.56,0,1.12-.05,1.68.09.35.17.69.26,1.04.02.26,0,.54,0,.78.04,0,.13-.03.18-.04.02.08.03.14.05.2.05.2.09.37.14.57.23.55.46,1.08.64,1.63.03.32.02.66,0,.99-.06.34-.11.69-.17,1.03-.1.17-.2.31-.35.47.27.15.54.29.81.42-.14.18-.25.32-.35.47.21.45.37.91.57,1.36-.13.03-.27.06-.45.1-.09.21-.19.37-.29.56-.05.2-.1.35-.11.52.24.03.44.05.67.06.03.32.02.66,0,.99.04.16.08.31.12.47-.07.28-.15.55-.22.83.05.21.06.42.36.52.2.22.39.45.59.67-.45.28.15.4.16.65-.35.68-.14.77-.01.89-.1.17-.2.31-.3.48-.63.3-1.22.58-1.81.89-.23-.53-.45-1.04-.62-1.56Z" style="fill: #edd6ad;"/>
      <path d="m284.69,120.85c0-.17.06-.32.11-.52.09-.19.2-.35.29-.56.18-.04.31-.07.45-.1.65.16,1.15.28,1.06.67-.27.23-.84.23-1.23.56-.24,0-.43-.03-.67-.06Z" style="fill: #f4e6cc;"/>
      <path d="m286.1,109.25c-.16-.07-.31-.12-.51-.18-.57,0-1.18,0-1.79,0,0-.04-.02-.08-.02-.1-.4-.08-.79-.16-1.19-.23-.6.07-1.15.13-1.75.18-.33.01-.61.01-.94.02.04-.22.44-.72-.64-.85.6-.63.39-.91-.17-.67-.81-.03-.15-.61-1.06-.65-.15-.23.06-3.75-.05-3.99-.15-.03-.3-.06-.49-.08-.15-.03-.3-.06-.45-.11-.26-.29-.48-.62-.71-.94-.01-.06-.03-.12-.04-.18.49-.11,1.03-.23,1.52-.34.55-.25,1.05-.5,1.61-.75-.15-.05-.3-.08-.5-.1.14-.2.24-.38.33-.57-.02-.1-.05-.2-.07-.27.06-.16.07-.28.13-.44-.72-.07-1.4-.14-2.08-.22.12-.07.25-.12.38-.19.06-.14.12-.29.13-.42.63-.12,1.31-.23,1.95-.33.28-.21.52-.38.75-.58.24.21.44.44.64.66.35-.12.7-.22,1.05-.33.43-.18-.1-.41.53-.51.56-.02,1.07-.05,1.59-.06-1.09-.21-.28-.95.62-1.13.12.12.24.22.32.32.95.02.57.58,1.06.67.49-.13.02.45,1.61.04-.18.23-.35.47-.53.72.04.16.08.31.12.47.12.47.38.6.66.74,0,.23-.03.46-.06.69,0,.58-.36,4.42-.37,4.97-.45.1-.89.2-1.3.29-.42.22-.79.44-1.2.66.02.08.04.14.05.19.58.24.43.59.86.8.6-.07,1.19-.14,1.79-.21-.16.3-.32.61-.48.91,0,.02.01.06.02.1.04.18.09.37.14.55-.31.44-.67.89-.99,1.31-.31.07-.36.08-.45.1Z" style="fill: #eace9d;"/>
      <path d="m288.62,108.41c-.38-.18-.71-.38-1.08-.57-.04-.18-.09-.37-.14-.55.68-.09,1.33-.17,2.01-.26.09.37.19.76.28,1.14-.36.08-.72.16-1.07.24Z" style="fill: #f4e6cc;"/>
      <path d="m272.93,101.63c-.04-.16-.08-.31-.12-.47-1.07.24-.64-.5-.86-.8.34-.14.69-.27,1.02-.43.03-.07.11-.15.14-.22.04-.22.09-.41.08-.62.14-.2.24-.38.33-.57.33-.2.65-.41.98-.61-1.56-.58.14-1.15,1.06-1.23.18-.04.4-.09.63-.14.17.13.35.25.56.37.01.06.03.12.04.18-.47.21-.98.42-1.45.63,0,.02.01.06.02.1.06.25.12.49.18.74-.48.17-.95.33-1.47.53.02.08.04.18.07.27-.29.33,0,.56,0,.78,0,.04.02.08.02.1.19.19.38.39.57.58-.32.24-.64.47-.95.71-.28.02-.6.07-.87.09Z" style="fill: #f4e6cc;"/>
      <path d="m287.85,96.96c-1.6.41-1.13-.16-1.61-.04-.5-.1-.12-.66-1.06-.67-.07-.11-.19-.21-.32-.32-.9.18-1.71.91-.62,1.13-.52.01-1.03.04-1.59.06-.15.16-.34.34-.53.51-.41.07-.71.2-1.05.33-.2-.22-.39-.45-.64-.66-.23.2-.47.37-.75.58-.64.1-1.32.21-1.95.33-.02.13-.07.28-.13.42-.12.07-.25.12-.38.19-.09.02-.18.04-.22.05-.09.02-.14.03-.22.05-.33.18-.67.33-1,.51-.61.03-1.16.07-1.77.1.04-.05.12-.09.15-.14-.02-.1-.05-.2-.07-.27.52-.2,1-.36,1.47-.53-.06-.25-.12-.49-.18-.74.6-.05,1.21-.08,1.77-.1-.05-.2-.09-.37-.14-.57.4-.11.7-.22,1.05-.33.07-.08.15-.16.18-.23-.15-.03-.3-.06-.45-.11-.34.16-.68.29-1.02.43-.22-.12-.39-.24-.56-.37.44-.3.98-.42,1.47-.53.04,0,.13-.03.18-.04.49-.29.94-.6,1.38-.9.32.14.68.26.99.38.27.31.48.62.7.94.28-.02.6-.07.88-.09.26.11.52.21.74.33.59-.46.56-.6.53-.72.36-.25.77-.5,1.18-.76-.01-.06-.03-.12-.05-.2.14-.2.33-.38.51-.61.35-.47,1.24-.69,2.05-.85.38.39.82.46.84.7-.15.14-.35.28-.55.43.18.33.3.65.48.99-.04.23-.03.46-.06.69.22-.05.45-.1.62-.14.14.18.27.33.36.52-.21.09-.39.15-.6.24Z" style="fill: #edd6ad;"/>
      <path d="m282.05,95.45c-.11-.06-.22-.14-.29-.22-.28,0-.61.01-.9,0,0-.17.06-.32.06-.51.32-.03.6-.05.92-.1.63-.51,1.41-.39,1.9-.52.31.12.87.1.97.28-.18.23-.37.41-.51.61-.72.16-1.43.32-2.15.47Z" style="fill: #f4e6cc;"/>
      <path d="m286.95,92.63c-.64-.48-1.31-.89-.53-1.16.3.06.64.13.94.18.07.29.25.61-.42.98Z" style="fill: #f4e6cc;"/>
      <path d="m288.76,150.88c-.05-.2-.09-.37-.14-.57-.34-.22-.97-.49.06-.7-.13-.16-.26-.27-.34-.42.45-.1.55-.43,1-.53,1.17-.01.33.77,1.33.8-.2.33-.44.7-.64,1.03-.16.14-.29.17-.42.2-.27.06-.58.13-.85.19Z" style="fill: #f8eede;"/>
      <path d="m289.42,147.26c-.24-.4-.41-.69-.46-1.1-.46.04-.92.08-1.34.11-.39-.45.23-.77.84-1.18.5-.09.77.06,1.23.41.38.02.76.04,1.15.06.02.1.04.18.07.27-.06.14-.07.28-.13.42-.44.32-.87.67-1.35,1Z" style="fill: #f8eede;"/>
      <path d="m286.18,144.12c-.02-.1-.05-.2-.07-.29-.02-.06-.03-.12-.04-.18-.25-.25-.45-.5-.66-.74.08-.06.12-.11.2-.15-.14-.2-.24-.42-.39-.62.03-.27.01-.52.04-.79,0-.04-.02-.08-.02-.1.04-.01.13-.03.22-.05.64-.08,1.28-.16,1.97-.23.79-.44,1.76-.68,2.15-.47.04.16.07.29.12.47-.33.36.01.62-.01.89-.11.13-.23.24-.38.37-.27.06-.54.12-.85.19-.02.13-.07.28-.13.42.03.3,0,.6.04.9-.73.12-1.45.24-2.17.38Z" style="fill: #f8eede;"/>
      <path d="m291.75,141.09c-.05-.22-.11-.43-.16-.65.07-.1.1-.17.17-.24-.11-.08-.18-.15-.29-.22.21-.31.45-.64.66-.95.33,0,.62,0,.9,0,.02.28,0,.6.03.88-.22.05-.45.1-.67.15.04.16.08.31-.19.93-.18.04-.31.07-.45.1Z" style="fill: #f8eede;"/>
      <path d="m289.84,139.84c-.51-.36-.57-.6-.03-1.09.46-.04.88-.07,1.35-.09-.42.38-.85.76-1.31,1.18Z" style="fill: #f8eede;"/>
      <path d="m284.07,134.86c-.05-.22-.11-.43-.16-.65.16-.12.28-.21.4-.29.37-.04.73-.1,1.1-.14.41.53,1.08.94.3,1.21-.45.1-.85.19-1.3.29-.08-.15-.21-.28-.34-.42Z" style="fill: #f8eede;"/>
      <path d="m282.53,134.91c-.03-.12-.06-.25-.09-.37-.03-.3,0-.6.02-.89.14-.18.34-.34.53-.53-.04-.16-.08-.31-.12-.47,0-.35-.03-.72-.03-1.07-.01-.24.02-.48.06-.71-.02-.26,0-.54,0-.78-.05-.2-.1-.39-.14-.57.1-.35.16-.7.21-1.04.04-.21.04-.4.08-.62-.06-.25-.13-.51-.19-.74-.01-.04-.02-.08-.02-.1.14-.4.23-.77.37-1.18.18-.04.31-.07.45-.1.18.52.4,1.03.62,1.56.67-.54,1.34-.67,1.81-.89.11.43.21.86.33,1.31-.3.29,0,.58-.66.93-.03.27-.05.55-.03.81-.15.34-.29.72-.44,1.09.01.24-.01.52,0,.78-.38.35-.77.69-1.11,1.03.28.17.51.36.79.53-.13.05-.25.12-.38.19-.11.29-.19.56-.26.84-.12.09-.24.18-.4.29.05.22.11.43.16.65-.51.03-1.03.04-1.54.05Z" style="fill: #f0ddba;"/>
      <path d="m284.95,132.89c-.28-.17-.52-.36-.79-.53.34-.34.73-.68,1.11-1.03.03.69.92,1.04-.1,1.51-.04,0-.13.03-.22.05Z" style="fill: #f8eede;"/>
      <path d="m291.13,130.43c-.36.06-.73.1-1.1.14-.05-.22-.11-.43-.16-.65-.18-.17-.36-.31-.54-.48.02-.29-.49-.64.44-.88.36-.06.73-.1,1.09-.16.16.27.28.54.44.81.4.1.81.21,1.21.31.06.25.13.51.19.76-.24.18-.52.38-1.2.66-.09-.19-.23-.34-.36-.52Z" style="fill: #f8eede;"/>
      <path d="m290.97,125.23c-.33-.36-.75-.35-.79-.53-.03-.12-.06-.25-.09-.37-.79-.51-1.06-.84-.28-1.14.5-.07,1-.14,1.5-.23.21.08.38.18.54.27-.22.25-.48.52-.71.76.39.04.78.1,1.17.13-.03.27.32.53-.26.86-.36.08-.71.16-1.07.24Z" style="fill: #f8eede;"/>
      <path d="m285.49,122.37c.43,0,.76.04,1.14.04.09.37-.16.86-.99,1.31-.31-.1-.31-.3-.36-.52.07-.28.15-.55.22-.83Z" style="fill: #f8eede;"/>
      <path d="m284.5,117.43c.15-.16.25-.3.35-.47.9.19,1.21.5.46.89-.27-.13-.54-.27-.81-.42Z" style="fill: #f8eede;"/>
      <path d="m285.02,115.93c.01-.33.02-.67,0-.99.67.02,1.08-.01.94.18.29.22-.17.47-.93.8Z" style="fill: #f8eede;"/>
      <path d="m284,112.58c-.01-.24.01-.52,0-.78.41-.05.73-.1,1.1-.14-.26.26.28.58-.91.88-.04,0-.13.03-.18.04Z" style="fill: #f8eede;"/>
      <path d="m283.79,109.08c.61-.01,1.23,0,1.79,0,.2.06.36.11.51.18-.45.64-1.51.75-1.28,1.27-.36.08-.67.15-1.07.24.05-.57.05-1.13.05-1.68Z" style="fill: #f8eede;"/>
      <path d="m288.62,108.41c.36-.08.72-.16,1.07-.24.1.21.24.4.34.61-.55.06-1.52.52-1.74.2.09-.19.19-.37.33-.57Z" style="fill: #f8eede;"/>
      <path d="m289.75,153.92c-.17-.29-.34-.59-.46-.89.83-.29-.08-.7.39-1.08.31-.44-.05-.96-.08-1.26.12-.07.25-.12.42-.2.2-.33.44-.7.64-1.03.34.22.72.44,1.06.65.09-.02.13-.03.22-.05.47.37.89.71.23.94.07.85-.15,1.68-.96,2.59.06.25.13.51.19.76-.6.42-.19,1.14-1.42,1.49-1.49.06-.2-1.01-.24-1.93Z" style="fill: #f0ddba;"/>
      <path d="m281.51,151.88c-.1-.21-.24-.4-.34-.61.39-.13.83-.27,1.23-.37,0,.02.02.06.02.1-.08.24-.16.49-.24.73-.22.05-.45.1-.67.15Z" style="fill: #f0ddba;"/>
      <path d="m291.38,142.27c-.33.2-.82.29-1.27.38-.27-.15-.54-.27-.81-.42.15-.14.27-.24.38-.37-.06-.25-.13-.51-.19-.76.08-.04.12-.09.2-.13.58-.13,1.12-.25,1.9-.52.05.22.11.43.16.65.13-.03.27-.06.45-.1.02.08.03.14.05.2.36-.08.72-.16,1.25-.28-.07.28-.15.55-.22.83-.27.06-.58.13-.85.19-.35.12-.69.24-1.05.33Z" style="fill: #f0ddba;"/>
      <path d="m283.23,124.07c.09-.23.17-.45.26-.66-.09.21-.18.43-.26.66Z" style="fill: #f0ddba;"/>
      <path d="m282.4,122.66c.02-.31.04-.61.01-.89.18-.23.37-.41.51-.61.42-.01.76.02,1.14.04-.05.34-.11.69-.17,1.03-.12.09-.24.18-.4.29-.37.04-.73.08-1.1.14Z" style="fill: #f0ddba;"/>
      <path d="m282.42,119.87c.43,0,.9,0,1.32.02,0,.17-.06.34-.06.51-.34.14-.68.27-1.03.41-.07-.29-.16-.63-.23-.94Z" style="fill: #f0ddba;"/>
      <path d="m282.21,119.03c.05-.34.11-.69.17-1.03.3.24.59.47.88.69-.47.37.36.7-.88,1-.05-.22-.11-.45-.16-.67Z" style="fill: #f0ddba;"/>
      <path d="m282.24,117.43c-.1-.22-1.07-.12-.79-.51-.06-.25-.13-.51-.19-.76.1-.15.21-.29.31-.46-.16-.09-.33-.2-.49-.28-.09.02-.13.03-.22.05.02-.31-.8-.17-.63-.64.22-.05.45-.1.67-.15.1-.17.2-.31.3-.48-.06-.23-.12-.49-.19-.74.33-.01.61-.01.94,0-.05.2-.09.41-.09.6-.03.27,0,.54-.03.81.01.06.03.12.04.18.05.21.74.13.64.66.09.35.17.68.26,1.04-.18.23-.36.47-.53.7Z" style="fill: #f0ddba;"/>
      <path d="m279.74,111.95c.14-.18.25-.32.35-.49.44.05.91.07,1.39.11.01.06.03.12.04.18-1.23.54.11.45-.61,1.33-.57-.02.08-.64-.77-.43-.11-.24-.25-.46-.41-.69Z" style="fill: #f0ddba;"/>
      <path d="m277.01,103.41c-.31-.1-.66-.19-.96-.28.33-.18.66-.35,1-.53.15.05.3.08.45.11-.15.34-.44.51-.49.71Z" style="fill: #f0ddba;"/>
      <path d="m273.64,102.57c.09-.22.18-.43.26-.66.52-.01,1.08-.03,1.59-.06-.31.25-.64.47-.96.71-.28,0-.61.01-.89.01Z" style="fill: #f0ddba;"/>
      <path d="m288.09,98.88c-.27-.15-.54-.27-.66-.74-.04-.16-.08-.31-.12-.47.18-.25.35-.49.53-.72.04.18.09.37.14.57.27-.06.58-.13.85-.19,0,.19-.04.4-.09.6-.21.31-.45.64-.66.95Z" style="fill: #edd6ad;"/>
      <path d="m287.99,97.52c-.05-.2-.1-.39-.14-.57.21-.09.39-.15.6-.24.14.2.29.41.39.62-.27.06-.58.13-.85.19Z" style="fill: #f0ddba;"/>
      <path d="m274.01,99.51s.12-.09.15-.14c.57,0,1.09.03,1.61.04-.03.09-.1.17-.18.25-.48.17-.95.33-1.43.5-.06-.22-.11-.43-.16-.65Z" style="fill: #f0ddba;"/>
      <path d="m287.46,96.34c.03-.23.03-.46.06-.69.19.19.38.37.56.56-.18.04-.4.09-.62.14Z" style="fill: #f0ddba;"/>
      <path d="m282.54,96.64c-.22-.12-.48-.22-.74-.33-.28.02-.6.07-.88.09-.22-.32-.44-.63-.7-.94-.31-.12-.67-.24-.99-.38.4-.29,1.36-.61,1.7-.37,0,.19-.06.34-.06.51.29.02.62,0,.9,0,.07.09.18.17.29.22.72-.16,1.43-.32,2.15-.47.02.08.04.14.05.2-.41.25-.82.51-1.18.76.03.12.06.25-.53.72Z" style="fill: #f0ddba;"/>
      <path d="m275.38,97.83s-.02-.08-.02-.1c.47-.21.98-.42,1.45-.63-.02-.06-.03-.12-.04-.18.34-.14.69-.28,1.02-.43.15.05.3.08.45.11-.03.07-.1.15-.18.23-.35.12-.65.23-1.05.33.05.2.09.37.14.57-.56.02-1.17.05-1.77.1Z" style="fill: #f0ddba;"/>
      <path d="m286.76,93.52c1.08-.59,1.98-.93,2.7-.89.04.16.08.31.12.47-.2.33-.92.68-1.99,1.12-.01-.24-.45-.31-.84-.7Z" style="fill: #f0ddba;"/>
      <path d="m291.73,150.12c-.34-.21-.72-.44-1.06-.65.29-.37,1.1-.32,1.41-.6.35.44,1.25.84-.13,1.2-.09.02-.13.03-.22.05Z" style="fill: #edd6ad;"/>
      <path d="m290.67,149.46c-1-.03-.15-.81-1.33-.8.33-.18.67-.33,1-.51-.07-.29-.14-.57-.21-.84.49-.11.98-.22,1.68-.47.31-.07.58-.13.85-.19-.04.4-.08.8-.12,1.2-.46.04-.88.07-1.34.11-.23.59.77.45.84.7.01.06.03.12.05.2-.31.27-1.12.23-1.41.6Z" style="fill: #f0ddba;"/>
      <path d="m292.03,148.67c-.06-.25-1.07-.12-.84-.7.46-.04.88-.07,1.34-.11-.17.26-.33.55-.51.81Z" style="fill: #edd6ad;"/>
      <path d="m291.81,146.84c-.03-.32-.1-.6-1.04-.58.06-.14.07-.28.13-.42-.02-.1-.04-.18-.07-.27.32-.24.64-.47.96-.71.05-.2-.59-.1-.39-.62-.16-.25-.06-.61.46-.78-.15-.4-.34-.79-.49-1.19.35-.1.7-.22,1.05-.33.27-.06.58-.13.85-.19-.07.68-.14,1.35-.2,2.03-.05.38-.1.74-.15,1.13-.04.24-.02.48-.06.71-.06.34-.11.69-.21,1.04-.27.06-.54.12-.85.19Z" style="fill: #edd6ad;"/>
      <path d="m284.56,143.09c-.28-.17-.65-.17-.56-.37.2-.15.4-.29,1.22-.58.14.2.25.42.39.62-.08.04-.12.09-.2.15-.27.06-.58.13-.85.19Z" style="fill: #edd6ad;"/>
      <path d="m286.54,109.15c.32-.42.68-.87.99-1.31.38.19.71.38,1.08.57-.14.2-.24.38-.33.57-.6.07-1.15.13-1.75.18Z" style="fill: #edd6ad;"/>
      <path d="m286.07,106.49c-.43-.21-.28-.56-.86-.8-.01-.06-.03-.12-.05-.19.42-.22.79-.44,1.2-.66.4-.09.85-.19,1.3-.29.09.37.18.74.28,1.14-.37.21-.09.41-.09.6-.6.07-1.19.14-1.79.21Z" style="fill: #edd6ad;"/>
      <path d="m276.96,107.02c-.12-.1.12-3.5.05-3.6.05-.2.33-.36.49-.71.19.02.34.05.49.08.11.24-.1,3.76.05,3.99-.49.11-.8.18-1.07.24Z" style="fill: #edd6ad;"/>
      <path d="m275.59,103.23c-.34-.23-.72-.44-1.06-.67.32-.24.64-.45.96-.71-.51.03-1.07.05-1.59.06-.03-.12-.06-.25-.09-.37.32-.24.64-.47.95-.71-.19-.19-.38-.39-.57-.58,0-.02-.02-.06-.02-.1.48-.17.95-.33,1.43-.5.05.21.11.43.16.65-.2.15-.35.28-.55.43.31.12.67.24.99.38.03.12.06.25.09.37.01.06.03.12.04.18.22.32.44.65.71.94-.33.18-.67.35-1,.53-.18.04-.31.07-.45.1Z" style="fill: #edd6ad;"/>
      <path d="m282.96,101.01c-1-.21-.91-.6-1.78-.7-.02-.06-.03-.12-.05-.2.27-.23.51-.42.78-.67,1.28-.36.24.61,1.26.53.01.06.03.12.04.18-.11.29-.19.58-.26.86Z" style="fill: #edd6ad;"/>
      <path d="m277.81,101.15c-.71-.17.54-.29.29-.56-.28,0-.61.01-.9,0-.33.18-.67.35-1,.53-.32-.14-.68-.26-.99-.38.2-.15.35-.28.55-.43-.05-.22-.11-.43-.16-.65.08-.08.15-.16.18-.25.33-.18.67-.33,1-.51.09-.02.14-.03.22-.05.04,0,.13-.03.22-.05.12-.07.25-.12.38-.19.55.15,1.15.28,1.7.41-.06.16-.07.28-.13.44.02.08.05.18.07.27-.09.19-.19.37-.33.57.19.02.34.05.5.1-.55.25-1.05.5-1.61.75Z" style="fill: #e6c68d;"/>
      <path d="m276.29,101.49c-.03-.12-.06-.25-.09-.37.33-.18.67-.35,1-.53.29.02.61,0,.9,0,.26.27-.99.38-.29.56-.49.11-1.03.23-1.52.34Z" style="fill: #e2bd7b;"/>
      <path d="m282.31,144.08s-.02-.08-.03-.1c-.11-.24-.26-.48-.41-.71.03-.27.06-.53.04-.79.7-.59,0-1.12.05-1.7.14-.2.33-.4.51-.61.36.13.85.39.93,1.09.04.18.09.37.14.57-.37.21-.79.42-1.16.65.08.15.21.28.3.43.67.43.63.64-.37,1.17Z" style="fill: #f4e6cc;"/>
      <path d="m283.65,125.75c-.08-.31-.16-.63-.23-.94.08.31.16.63.23.94Z" style="fill: #f0ddba;"/>
      <path d="m280.09,111.46c-.1-.04-.16-.09-.27-.13-.12-.28,0-.74-.86-.8-.1-.41-.21-.82-.31-1.23-.24-.03-.49-.08-.74-.13.15-.16.25-.32.35-.47.32.16.69.3,1.01.46.09-.02.14-.03.23-.05.41.16.83.29,1.24.43.02.06.03.12.05.2.09.17.23.34.36.5.04.14.07.25.1.39-.4.27-.8.57-1.16.83Z" style="fill: #f0ddba;"/>
      <path d="m277.23,98.8c-.09.02-.18.04-.22.05.04,0,.13-.03.22-.05Z" style="fill: #eace9d;"/>
      <path d="m278.28,108.71c-.1-.02-.15-.03-.25-.05-.94-.16.63-1.07-.84-.7-.08-.31-.16-.63-.23-.94.27-.06.58-.13,1.07-.24.91.05.25.63,1.06.65.55-.25.76.04.17.67-.34.16-.67.33-1,.51,0,.04.01.06.02.1Z" style="fill: #f0ddba;"/>
      <path d="m279.26,108.1c.6-.63.39-.91-.17-.67.55-.25.76.04.17.67Z" style="fill: #edd6ad;"/>
    </g>
  </g>
</svg>