<?xml version="1.0" encoding="UTF-8"?>
<svg id="Layer_1" data-name="Layer 1" xmlns="http://www.w3.org/2000/svg" viewBox="0 0 300 300">
  <path d="m262.55,62.96c-1.69-7.03-6.96-11.12-11.93-13.73-6.69-3.52-14.04-5.45-21.06-7.54-7.6-2.26-15.26-4.17-22.96-5.74-15.34-3.11-30.84-4.88-46.36-5.25-31.34-.74-62.81,4.16-93.09,14.66-3.77,1.31-7.51,2.7-11.24,4.18-2.43.96-1.39,5.91,1.05,4.94,28.86-11.41,58.86-17.66,89.03-18.6,30.15-.94,60.39,3.37,89.62,12.97,5.99,1.97,12.48,3.61,17.81,7.84,4.11,3.25,7.51,9.44,4.58,15.58-1.46,3.05-3.93,5.05-6.61,6.42.65-5.36-.99-10.63-3.98-14.61-3.92-5.21-9.43-8.39-14.75-10.38-6.99-2.61-14.49-3.6-21.69-4.85-32.23-5.63-64.96-6.13-97.27-1.44-16.04,2.33-31.96,5.89-47.66,10.74-12.53,3.87-25.47,8.82-35.52,19.71-2.42,2.63-4.54,5.6-6.46,8.83-.83,1.4.11,3.29,1.18,3.76,15.45,6.82,31.49,9.6,47.66,10.3,1.63.29,3.27.55,4.91.77-1.16.46-2.31.93-3.46,1.41-2.71,1.13-5.48,2.23-7.99,4.01-4.17,2.97-7.4,8.92-5.57,15.23,1.61,5.54,6.23,8.52,10.35,10.13,2.21.86,4.49,1.35,6.79,1.63-4.29,2.47-8.51,5.15-12.65,8.03-1.07.75-1.34,2.95-.4,4.02,4.12,4.71,8.97,7.44,14.12,9.07-5.2,2.07-12.3,5.23-13.6,12.99-1.43,8.62,5.53,12.59,10.81,13.95,3.78.97,7.58,1.82,11.4,2.57-1.27,6.04,2.7,11.35,6.84,14.01,6.5,4.18,14.4,4.25,21.5,4.97,16.72,1.7,33.56,1.32,50.23-1.09,8.26-1.2,16.48-2.87,24.62-5.05,4.17-1.11,8.31-2.36,12.43-3.74,1.3-.43,2.63-.86,3.94-1.39,3.04,4.55,5.22,10.85.69,15.14-2.72,2.57-6.46,3.68-9.65,4.84-.34.13-.69.24-1.04.36-5.66-8.02-14.63-9.72-22.58-10-10.89-.39-21.69,2.61-31.58,8.5-1.65.98-1.01,4.06.47,4.68,15.26,6.38,31.63,7.69,47.4,3.93,1.58-.38,3.16-.81,4.72-1.29.48,1.12.79,2.33.82,3.64.11,4.21-2.53,7.03-5.2,8.69-.39.25-.8.47-1.2.69-4.63-3.54-10.42-5.46-15.53-6.52-6.51-1.35-13.13-1.25-19.61.29-7.3,1.74-14.31,5.43-20.46,10.8-1.26,1.1-1.34,4.29.47,4.68,10.3,2.24,20.77,2.92,31.19,1.82,5.16-.55,10.31-1.49,15.38-2.85,2.65-.71,5.39-1.43,8.01-2.52,2.33,2.2,3.8,5.21,2.28,9.39-2.59,7.14-9.11,7.53-14.6,7.18-.77-.08-1.54-.14-2.31-.18-2.56-.11-2.52,4.91,0,5.12.62.05,1.25.1,1.89.14,5.25.53,10.33,2.3,15.06,5.26l-3.63,5.35c-1.68,2.47,1.11,6.11,2.8,3.62,1.79-2.64,3.59-5.29,5.38-7.93.82-1.2.77-3.18-.4-4.02-2.32-1.67-4.74-3.07-7.22-4.19,1.73-.96,3.31-2.35,4.65-4.34,3.61-5.37,3.93-12.64.26-17.62.11-.08.23-.15.34-.23,5.39-3.77,7.56-11.02,5.46-17.56.98-.36,1.95-.74,2.92-1.14,3.25-1.35,6.85-2.8,9.29-6.05,4.45-5.94,2.86-13.83-.61-19.71.48-.34.94-.7,1.39-1.11,3.55-3.28,4.76-8.11,4.02-12.83,2.29-1.02,4.54-2.18,6.74-3.5,5.9-3.56,13.1-9.04,15.99-16.99,3.4-9.32-.35-16.13-6.09-21.11,3.02-2.13,5.8-4.85,7.81-8.48,1.06-1.91,1.77-4.04,2.13-6.24,4.78-3.71,8.64-8.99,10.47-16.61,1.58-6.56.82-13.63-2.42-19.1,2.46-1.08,4.81-2.54,6.86-4.56,4-3.94,6.16-10.32,4.62-16.74Zm-82.5,171.87c-4.49,1.18-9.02,2.03-13.58,2.53-8.4.92-16.87.72-25.24-.61,8.05-5.46,17.13-8.07,26.26-7.62,5.52.27,10.99,1.7,16.15,4.25.2.1.41.21.62.31-1.42.41-2.83.77-4.22,1.13Zm7.68-19.56c-7.25,1.51-14.66,1.83-21.97,1.09-5.33-.54-10.6-1.71-15.77-3.45,6.32-2.99,12.99-4.73,19.72-5.11,7.37-.42,15.57-.03,21.91,5.41.31.27.63.56.94.87-1.6.45-3.21.84-4.83,1.18Zm27.92-122.46c-1.41-.35-2.82-.68-4.21-1.02-2.07-.5-4.14-.97-6.21-1.41,4.78-.47,9.55-.93,14.33-1.4,7.55-.73,15.22-1.05,22.73-2.29-.41.32-.84.61-1.27.88-5.46,3.3-11.8,3.6-17.69,4.33-2.56.32-5.11.62-7.67.91Zm-155.42-.57c-2.39-.88-4.74-1.9-7.04-3.09,9.33-7.84,21.07-9.86,31.85-11.96,13.94-2.72,27.97-4.62,42.03-5.75,28.1-2.26,56.36-1.39,84.34,2.61,6.63.95,13.3,1.93,19.87,3.42,3.69.84,7.56,1.95,10.97,4.15-5.92,1.13-12.05,1.21-17.97,1.78l-38.57,3.75c-19.73-2.36-39.64-2.01-59.31,1.07-10.64,1.67-21.21,4.09-31.63,7.31-7.16.37-14.33.49-21.48.2-4.4-.8-8.76-1.91-13.06-3.49Zm125.53.04c.94.11,1.88.22,2.81.34,3.78.51,7.55,1.12,11.31,1.83-.12.01-.25.02-.37.04-16.02,1.51-32.07,2.56-48.13,3.13-8.7.31-17.41.48-26.12.51,20.17-1.92,40.33-3.89,60.49-5.86Zm-149.01-2.75c-2.56-.84-5.1-1.78-7.62-2.81,7.66-11.13,18.93-16.93,29.81-20.91,14.16-5.17,28.77-8.68,43.33-11.38,30.54-5.67,61.63-6.59,92.35-2.88,7.71.93,15.39,2.16,23.04,3.69,6.25,1.25,12.69,2.27,18.56,5.49,4.26,2.33,9.46,6.13,11,12.2.6,2.35.52,4.56-.02,6.56-2.81-2.57-6.13-4.25-9.41-5.42-6.2-2.21-12.72-3.01-19.08-4.04-7.53-1.22-15.07-2.22-22.64-2.99-15-1.53-30.05-2.16-45.09-1.9-15.04.26-30.07,1.42-45.03,3.46-7.46,1.02-14.91,2.26-22.33,3.72-6.6,1.29-13.25,2.61-19.66,5.1-5.85,2.27-11.33,5.6-16.14,10.49-.95.96-.68,3.39.4,4.02.66.39,1.32.75,1.98,1.11-4.51-.91-8.99-2.06-13.44-3.51Zm28.22,32.03c-2.84-5.73,2.68-10.12,6.16-11.82,5.77-2.81,11.72-5.16,17.75-7.2,1.2.07,2.39.13,3.58.18,16.49.71,33.02.7,49.52.3,16.98-.41,33.94-1.35,50.88-2.81,7.54-.65,15.07-1.41,22.6-2.27,3.74.95,7.46,2.04,11.08,3.47,4.34,1.72,9.38,4.39,11.73,9.77.83,1.89,1.14,3.85,1.07,5.75-5.08,3.39-10.84,4.8-16.45,5.92-2.79.56-5.6,1.06-8.4,1.53-13.74-5.74-28-9.33-42.39-10.89-28.85-3.12-58.37,2.19-85.39,15.71-.47-.02-.93-.04-1.4-.06-2.94-.13-5.95-.05-8.88-.58-3.88-.71-9.2-2.42-11.48-7Zm139.8,4.32c-1,.14-2.01.29-3.01.42-14.03,1.87-28.11,2.99-42.2,3.57-14.12.58-28.24.62-42.36.34-6.53-.13-13.06-.32-19.59-.56,15.4-6.46,31.45-10.32,47.63-11.49,19.88-1.45,40.2,1,59.53,7.73Zm-115.18,8.57c15.16.64,30.32,1.08,45.49,1.04,26.42-.06,53.04-1.34,79.28-5.89,3.23,1.39,6.42,2.91,9.57,4.55-.25.1-.51.2-.76.3-6.27,2.41-12.74,4.17-19.13,5.94-11.11,3.08-22.31,5.6-33.58,7.54-6.72-1.54-13.5-2.63-20.31-3.27-15.84-1.48-31.8-.42-47.45,3.06-4.95,1.1-9.86,2.45-14.72,4.06-1.87-.24-3.74-.56-5.58-1.01-4.43-1.08-8.77-2.91-12.48-6.18,5.67-3.8,11.49-7.2,17.43-10.2.75.02,1.5.04,2.24.07Zm65.07,15.82c-11.13,1.38-22.3,2.21-33.48,2.47-5.9.14-11.81.11-17.71-.06,5.56-1.22,11.15-2.12,16.74-2.71,11.45-1.21,23.01-1.13,34.45.3Zm-83.53,23.99c-5.87-5.37,2.73-11.64,6.33-13.2,3.52-1.53,7.1-2.9,10.7-4.13,3.93.47,7.89.61,11.72.76,14.83.59,29.68.2,44.48-1.17,8.68-.8,17.34-1.95,25.97-3.42,5.08,1.2,10.13,2.65,15.13,4.38,6.46,2.24,13.6,4.38,19.41,8.79,1.98,1.5,4.67,4.01,6.37,6.99-4.6,1.79-9.35,3.11-14.11,4.2-1.25-.73-2.5-1.43-3.75-2.11-6.87-3.76-13.98-6.72-21.26-8.81-14.4-4.14-29.36-5.03-43.99-2.55-7.4,1.25-14.71,3.3-21.82,6.24-3.45,1.43-6.84,3.07-10.17,4.9-2.21,1.21-4.6,2.51-6.33,4.7-3.44-.67-6.87-1.41-10.28-2.22-2.8-.67-6.01-1.16-8.39-3.34Zm118.79,4.71c-2.05.4-4.08.78-6.08,1.16-29.16,5.49-58.99,5.74-88.21.76.96-.56,1.92-1.03,2.71-1.45,3.16-1.7,6.38-3.2,9.65-4.53,25.81-10.5,54.24-9.42,79.56,2.9.78.38,1.57.77,2.37,1.16Zm3.5,12.48c-14.98,4.3-30.25,6.87-45.58,7.71-7.63.42-15.27.41-22.9-.02-7.52-.43-15.22-.96-22.65-2.58-3.42-.75-11.74-4.01-10.94-10.25.05-.35.13-.67.22-.99,3.21.58,6.42,1.1,9.63,1.57,17.03,2.48,34.21,3.21,51.32,2.2,14.76-.88,29.52-3,44.05-6.5,2.57,1.58,5.04,3.4,7.22,5.59-3.44,1.21-6.91,2.27-10.39,3.27Zm18.59-8.96c-.88,1.81-2.26,2.99-3.77,3.85-1.72-2.03-3.62-3.76-5.63-5.27,3.43-.92,6.85-1.97,10.2-3.26.17,1.53-.04,3.11-.8,4.68Zm24.33-34.35c.93,8.27-7.01,14.56-11.7,17.96-3.05,2.2-6.26,4.02-9.58,5.54-.31-.7-.67-1.38-1.07-2.04-4.23-6.97-10.6-10.27-16.9-12.97-5.07-2.17-10.21-4.06-15.41-5.66,2.2-.45,4.4-.91,6.59-1.41,7.37-1.66,14.71-3.56,22-5.71,6.26-1.84,12.74-3.45,18.7-6.64,0,0,.01,0,.02-.01,3.48,2.5,6.78,6.05,7.34,10.93Zm-.44-22.25c-1.96,2.43-4.33,4.3-6.84,5.78-2.1-1.38-4.28-2.58-6.38-3.62.86-.17,1.72-.34,2.57-.52,4.1-.86,8.34-2.13,12.29-4.12-.47.88-1.03,1.72-1.64,2.48Zm14.08-25.27c-1.01,5.39-3.55,9.89-6.86,13.23-.22-1.7-.65-3.38-1.31-4.96-2.4-5.83-7.28-9.2-11.89-11.4-.66-.32-1.33-.61-2-.89,3.65-.48,7.27-1.17,10.74-2.47,3.44-1.29,6.85-3.38,9.31-6.67,2.13,3.71,2.9,8.4,2.01,13.16Z" style="fill: #212b50;"/>
</svg>