<?xml version="1.0" encoding="UTF-8"?>
<svg id="Layer_1" data-name="Layer 1" xmlns="http://www.w3.org/2000/svg" viewBox="0 0 300 300">
  <path d="m284.49,215c-12.04,0-21.5-8.44-28.13-25.07-4.14-10.38-7.3-23.63-10.36-36.44-2.34-9.78-5.84-24.42-9.31-33.11-3.47,8.69-6.97,23.33-9.31,33.11-3.06,12.81-6.23,26.06-10.36,36.44-6.63,16.64-16.09,25.07-28.13,25.07s-21.5-8.44-28.12-25.07c-4.13-10.38-7.3-23.63-10.36-36.44-2.34-9.78-5.84-24.42-9.31-33.11-3.47,8.69-6.97,23.33-9.31,33.11-3.06,12.81-6.23,26.06-10.36,36.44-6.63,16.64-16.09,25.07-28.12,25.07s-21.5-8.44-28.12-25.07c-4.14-10.38-7.3-23.63-10.36-36.44-3.17-13.27-8.48-35.47-12.96-39.64.32.3,1.68,1.15,3.65,1.15v-30c12.04,0,21.5,8.44,28.12,25.07,4.14,10.38,7.3,23.63,10.36,36.44,2.34,9.78,5.84,24.42,9.31,33.11,3.47-8.69,6.97-23.33,9.31-33.11,3.06-12.81,6.23-26.06,10.36-36.44,6.63-16.64,16.09-25.07,28.12-25.07s21.5,8.44,28.12,25.08c4.13,10.38,7.3,23.63,10.36,36.44,2.34,9.78,5.84,24.42,9.31,33.11,3.47-8.69,6.97-23.33,9.31-33.11,3.06-12.81,6.23-26.06,10.36-36.44,6.63-16.64,16.09-25.07,28.12-25.07s21.5,8.44,28.13,25.07c4.14,10.38,7.3,23.63,10.36,36.44,3.17,13.27,8.48,35.47,12.96,39.64-.32-.3-1.68-1.15-3.65-1.15v30Z" style="fill: #03081b;"/>
  <path d="m254.49,215c-12.04,0-21.5-8.44-28.13-25.07-4.14-10.38-7.3-23.63-10.36-36.44-2.34-9.78-5.84-24.42-9.31-33.11-3.47,8.69-6.97,23.33-9.31,33.11-3.06,12.81-6.23,26.06-10.36,36.44-6.63,16.64-16.09,25.07-28.13,25.07s-21.5-8.44-28.12-25.07c-4.13-10.38-7.3-23.63-10.36-36.44-2.34-9.78-5.84-24.42-9.31-33.11-3.47,8.69-6.97,23.33-9.31,33.11-3.06,12.81-6.23,26.06-10.36,36.44-6.63,16.64-16.09,25.07-28.12,25.07s-21.5-8.44-28.12-25.07c-4.14-10.38-7.3-23.63-10.36-36.44-3.17-13.27-8.48-35.47-12.96-39.64.32.3,1.68,1.15,3.65,1.15v-30c12.04,0,21.5,8.44,28.12,25.07,4.14,10.38,7.3,23.63,10.36,36.44,2.34,9.78,5.84,24.42,9.31,33.11,3.47-8.69,6.97-23.33,9.31-33.11,3.06-12.81,6.23-26.06,10.36-36.44,6.63-16.64,16.09-25.07,28.12-25.07s21.5,8.44,28.12,25.08c4.13,10.38,7.3,23.63,10.36,36.44,2.34,9.78,5.84,24.42,9.31,33.11,3.47-8.69,6.97-23.33,9.31-33.11,3.06-12.81,6.23-26.06,10.36-36.44,6.63-16.64,16.09-25.07,28.12-25.07s21.5,8.44,28.13,25.07c4.14,10.38,7.3,23.63,10.36,36.44,3.17,13.27,8.48,35.47,12.96,39.64-.32-.3-1.68-1.15-3.65-1.15v30Z" fill={state.brand}/>
</svg>