<?xml version="1.0" encoding="UTF-8"?>
<svg id="Layer_1" data-name="Layer 1" xmlns="http://www.w3.org/2000/svg" viewBox="0 0 300 300">
  <path d="m177.97,300H0v-119.51h96.48c10.56,0,20.32,5.64,25.6,14.78l51.93,89.95c2.64,4.58,3.96,9.68,3.96,14.78Z" fill={state.mid}/>
  <path d="m300,30.49v239.02h-53.09c-10.56,0-20.32-5.64-25.6-14.78l-51.93-89.95c-5.28-9.15-5.28-20.41,0-29.56l51.93-89.95c5.28-9.14,15.04-14.78,25.6-14.78h53.09Z" fill={state.brand}/>
  <path d="m171.85,0c0,5.1-1.32,10.2-3.96,14.78l-51.93,89.95c-5.28,9.14-15.04,14.78-25.6,14.78H0V0h171.85Z" fill={state.darkest}/>
</svg>