<?xml version="1.0" encoding="UTF-8"?>
<svg xmlns="http://www.w3.org/2000/svg" viewBox="0 0 300 300">
  <g id="Layer_2" data-name="Layer 2">
    <path d="m265.48,237.16c-75.3-.26-150.59-2.01-225.82-5.24-6.48-.28-12,5.71-12,12,0,6.73,5.5,11.72,12,12,75.23,3.23,150.52,4.97,225.82,5.24,15.44.05,15.47-23.95,0-24Z" style="fill: #d7a449; opacity: .5;"/>
  </g>
  <g id="Layer_1" data-name="Layer 1">
    <path d="m57.98,238.82c-3.65.12-7.3.2-10.95.24-1.9.02-3.8.02-5.69.02-.88,0-1.75,0-2.63-.02-.16,0-.32,0-.48,0,.06-.7-.05-1.76-.04-2.2.02-.9.04-1.8.05-2.7.04-1.8.07-3.6.11-5.4.08-3.9.15-7.8.23-11.69.06-2.94-4.52-2.94-4.57,0-.09,4.5-.18,9-.27,13.49-.05,2.4-.09,4.8-.14,7.2-.03,1.58-.26,3.29.85,4.58.86,1.01,2.14,1.21,3.39,1.29,2.32.14,4.68.03,7.01.02,4.38-.02,8.76-.11,13.14-.25,2.94-.1,2.95-4.67,0-4.57Z" style="fill: #212b50;"/>
    <path d="m80.15,217.57c-1.1-.71-2.16-.33-2.78.45-2.46-1.05-5.29-1.36-8.02-.78-6.63,1.39-10.16,8.19-9.46,14.57.77,7.09,6.19,12.42,13.1,13.8,6.6,1.31,15.77-.58,18.67-7.41,3.87-9.12-4.8-16.28-11.5-20.63Zm6.05,20.69c-4.35,4.42-12.89,4.09-17.61.55-4.53-3.4-6.02-11.05-1.72-15.27,3.49-3.43,10.77-2.45,12.49,2.41.82,2.32,4.09,1.85,4.51-.03.95.89,1.81,1.86,2.5,2.97,1.79,2.86,2.37,6.78-.17,9.37Z" style="fill: #212b50;"/>
    <path d="m126.03,243.69c-1.23-3.22-2.46-6.44-3.68-9.66.28-1.01-.08-2.24-1.07-2.8-.69-1.81-1.38-3.61-2.07-5.42-1.5-3.94-3.04-9.29-7.67-10.55-4.62-1.25-8.35,2.44-10.5,6.09-.16.27-.3.55-.45.82.06-.41.12-.83.18-1.24.45-2.88-3.95-4.12-4.41-1.22-.95,6.05-1.43,12.13-1.35,18.26.03,2.5,3.94,3.2,4.49.61.69-3.21,6.03-23.1,11.88-18.3,1.24,1.02,1.88,2.76,2.45,4.2.83,2.08,1.6,4.18,2.39,6.27-4.05-.2-8.1-.41-12.15-.61-2.94-.15-2.93,4.43,0,4.57,4.64.23,9.29.46,13.93.7,1.21,3.17,2.42,6.33,3.62,9.5,1.04,2.72,5.46,1.54,4.41-1.22Z" style="fill: #212b50;"/>
    <path d="m150.69,225.33c-4.42-8.56-16.4-11.23-24.38-6.28-2.39,1.48-.39,5.18,2,4.11-.26,3.62-.51,7.25-.77,10.87-.21,2.94,4.37,2.92,4.57,0,.29-4.04.57-8.08.86-12.12.01-.2,0-.39-.02-.56,4.68-.86,9.84.79,12.79,4.67,1.15,1.51,2.18,3.68,1.76,5.62-.42,1.92-2.34,2.98-3.97,3.77-4.03,1.95-8.66,2.39-13.01,1.46-2.87-.61-4.1,3.79-1.22,4.41,5.83,1.24,11.93.58,17.21-2.26,5.34-2.87,6.98-8.26,4.18-13.68Z" style="fill: #212b50;"/>
    <path d="m156.81,222.91c-.57,3.77-1.13,7.54-1.7,11.31-.43,2.88,3.97,4.12,4.41,1.22l1.7-11.31c.43-2.88-3.97-4.12-4.41-1.22Z" style="fill: #212b50;"/>
    <path d="m191.24,217.06c-.33,4.98-.66,9.96-.98,14.94-.16,2.41-.32,4.83-.48,7.24-.05.8.14,2.18-.26,2.9-.08.14.04-.23-.23-.63-.25-.38-1.21-.85-1.55-1.1-6.84-5.02-12.59-11.44-17.02-18.65-.93-1.52-3.85-1.5-4.18.55-.09.56-.18,1.12-.27,1.68-.14.18-.26.39-.36.63-1.96,5.04-2.73,10.42-2.24,15.81.21,2.35,4.06,3.35,4.49.61.64-4.01,1.28-8.02,1.91-12.03,1.93,2.65,4.03,5.17,6.31,7.52,1.94,2,4,3.88,6.17,5.63,1.82,1.47,3.95,3.54,6.21,4.26,5.88,1.88,5.54-6.49,5.76-9.89.43-6.49.86-12.98,1.28-19.47.19-2.94-4.38-2.93-4.57,0Z" style="fill: #212b50;"/>
    <path d="m229.39,233.93c-3.07-.06-6.12.14-9.16.6-2.31.35-5.28.54-6.56,2.81-1.02,1.8-1.24,3.25-3.61,3.62-1.96.31-3.88-.43-5.09-2.01-3.04-3.97-1.34-9.97,1.47-13.55,2.99-3.8,7.59-6.09,12.41-6.14,2.94-.03,2.95-4.6,0-4.57-11.8.1-24.13,12.43-18.88,24.62,2.17,5.05,7.86,7.69,13.04,5.5,1.12-.48,2.11-1.15,2.93-2.06.72-.8,1.06-2.54,1.63-3.07.76-.72,4.23-.8,5.39-.92,2.14-.23,4.28-.29,6.42-.25,2.94.06,2.94-4.52,0-4.57Z" style="fill: #212b50;"/>
    <path d="m239.09,242.26c-2.94,0-2.95,4.57,0,4.57s2.95-4.57,0-4.57Z" style="fill: #212b50;"/>
    <path d="m252.02,240.64h-1.62c-1.2,0-2.34,1.05-2.29,2.29.06,1.24,1,2.29,2.29,2.29h1.62c1.2,0,2.34-1.05,2.29-2.29-.06-1.24-1-2.29-2.29-2.29Z" style="fill: #212b50;"/>
    <path d="m264.15,241.45h-1.62c-1.2,0-2.34,1.05-2.29,2.29.06,1.24,1,2.29,2.29,2.29h1.62c1.2,0,2.34-1.05,2.29-2.29-.06-1.24-1-2.29-2.29-2.29Z" style="fill: #212b50;"/>
    <g>
      <path d="m166.57,117.57c.44-2.21-.23-4.63-2.66-6.18-4.43-2.82-10.84-5.56-16.69-5.44-4.3-.91-8.63-.8-12.25,1.14-8.11,4.33-10.02,14.22-7.79,22.47,1.06,3.9,2.86,9.14,5.72,12.12,3.45,3.6,9.31,4.02,14.03,4.03,7.8.03,13.74-3.64,16.57-9.97.02-.01.04-.02.06-.04,6.97-4.81,6.93-12.29,3.01-18.14Z" style="fill: #db3f29;"/>
      <path d="m165.15,129.93c.27-.25.51-.58.7-1,3.9-8.78.3-19.12-7.87-24.11-8.53-5.21-20.79-4.23-28.91,1.38-9.11,6.29-7.77,16.89-2.76,25.42,2.65,4.52,5.95,9.16,10.82,11.44,4.4,2.05,9.6,2.12,14.19.65,6.33-2.04,12.17-7.57,13.83-13.77Zm-21.01,8.59c-5.25-.28-8.54-3.84-11.24-8-2.14-3.3-4.25-7.04-4.52-11.05-.66-9.66,12.71-12.81,20.17-11.61,4.94.79,9.86,4.3,11.94,8.88-2.56-.67-5.32,2.72-3.05,5.15,7.55,8.08-5.8,17.03-13.3,16.63Z" style="fill: #212b50;"/>
    </g>
    <g>
      <path d="m120.72,63.91c.05-3.24-4.05-3.84-5.6-1.8-.02-.02-.04-.04-.06-.06-2.32-2.17-5.24-1.98-7.43-.62-1.7.19-3.32,1.05-4.45,2.75-3.51,5.28,1.13,12.49,7.37,11.44,2.73-.46,4.87-2.25,6-4.5,2.38-1.58,4.12-4.21,4.17-7.21Z" style="fill: #db3f29;"/>
      <path d="m180.43,65.78c-.05-.07-.09-.13-.13-.2-1.93-2.6-4.84-3.57-7.85-3.52-1.39-.51-2.85-.8-4.32-.89-.26-.11-.52-.21-.79-.3-4.03-1.35-8.34-.63-11.36,2.44-1.19,1.21-1.55,3.3-.62,4.78.4.63.84,1.21,1.31,1.77.11.17.22.33.34.49.23.29.47.57.73.85-.78,2.21-.35,4.59,2.24,6.86,4.72,4.15,12.03,2.18,17.44-1.28.58-.3,1.14-.64,1.67-1.06.26-.21.5-.43.72-.65,1.03-.83,1.94-1.7,2.67-2.56,2.23-2.6.39-6-2.05-6.73Z" style="fill: #db3f29;"/>
      <path d="m200.68,111.12c-.24.04-.47.11-.68.22-5.66-2.9-12.74,3.47-9,9.63.67,1.11,1.62,2.01,2.72,2.67.89,1.72,2.54,2.98,4.81,3,4.02.04,8.47-3.94,9.36-7.76,1.07-4.58-2.73-8.42-7.21-7.76Z" style="fill: #db3f29;"/>
      <path d="m187.64,166.4c-.58-.36-1.17-.69-1.78-.98,1.22-1.81.41-4.96-2.43-4.94-3.44.03-7.44.55-10,3.1-.26.26-.49.54-.71.83-.69.21-1.36.47-2.03.77-2.8,1.28-4.03,2.91-3.69,6.07.29,2.74,1.85,4.86,4.07,6.4,2.11,1.46,4.14-.24,4.46-2.23.96.56,2.04.92,3.19,1.02,4.28.38,7.89-2.3,10.04-5.8.9-1.46.28-3.35-1.11-4.23Z" style="fill: #db3f29;"/>
      <path d="m114.63,162.47c-.17-.66-.56-1.28-1.24-1.77-.32-.23-.65-.45-.98-.66-.68-.58-1.48-1.04-2.39-1.33-.1-.03-.2-.05-.31-.08-3.15-1.3-6.68-1.65-9.82-.09-3.6,1.79-6.08,6.08-5.2,10.13,1.88,8.63,16.9,8.24,20.78,1.51,1.48-2.57.88-5.55-.84-7.71Z" style="fill: #db3f29;"/>
      <path d="m102.6,107.2c.07-.09.14-.17.2-.26.95-1.31.26-3.51-1.11-4.23-2.32-1.22-6.06-2.13-9.57-2.02-4.68-2.02-9.96-1.09-13.7,2.53-.9.87-1.27,2.67-.48,3.75,2.21,3.04,5.32,4.96,8.67,5.78.35.11.72.2,1.1.28.08.26.17.52.28.79,3.73,8.83,15.32,5.33,17.19-2.81.47-2.06-.99-3.49-2.59-3.8Zm-7.89,5.42c1.34-.33,2.59-.77,3.6-1.27-.89,1.27-2.25,2.18-3.6,1.27Z" style="fill: #db3f29;"/>
      <path d="m187.95,75.55c-1.64-7.67-4.98-16.19-12.26-20.18-5.99-3.28-14.49-3.14-19.35,2.12-11.17,12.07,6.03,32.21,20.13,27.84,3.2-.99,5.83-3.29,7.42-6.12,1.99.55,4.63-.99,4.06-3.66Zm-17.69,3.99c-5.81-1.24-11.2-7.11-11.11-13.2.1-6.57,7.51-8.29,12.63-6.04,3.32,1.46,5.58,4.27,7.17,7.5-.62.83-.81,1.96-.17,3.14,2.93,5.37-3.83,9.6-8.53,8.6Z" style="fill: #212b50;"/>
      <path d="m210.32,115.65c-.32-.93-.93-1.54-1.64-1.87-1.24-4.21-5.1-7.78-10.04-8.22-8.33-.74-15.36,6.57-15.15,14.78.21,8.07,7.92,14.26,15.83,13.28,8.29-1.03,13.65-10.15,11.01-17.96Zm-20.39,6.33c-1.1-3.84,1.21-8.48,4.97-9.87,2.22-.82,5.3-.58,6.94,1.3,1.56,1.78,1.42,4.42-.28,6-2.11,1.95-.48,4.82,1.69,5.26-.91,1.27-2.2,2.25-3.86,2.68-3.85,1-8.37-1.54-9.46-5.36Z" style="fill: #212b50;"/>
      <path d="m189.41,167.17c-.16-8.06-6.69-15.67-15.09-15.63-7.95.04-15.18,7.15-14.73,15.2.43,7.68,7.85,14.26,15.57,13.28,5.45-.69,9.73-4.87,11.23-9.91,1.54.01,3.06-.96,3.02-2.95Zm-14.98,6.75c-4.37.58-8.63-3.59-8.68-7.87-.05-4.53,4.46-8.51,8.9-8.32,2.77.12,5.16,1.68,6.71,3.85-.71.65-1.1,1.64-.79,2.87,1.05,4.07-1.8,8.89-6.14,9.46Z" style="fill: #212b50;"/>
      <path d="m120.49,170.11c1.11-5.27-.28-10.8-3.57-14.89-.38-.89-.79-1.74-1.21-2.53-.77-1.46-2.15-1.8-3.37-1.46-.42-.25-.85-.48-1.29-.69-3.83-1.82-8.69-2.26-12.32.27-3.77,2.64-4.58,7.5-3.9,11.78,1.3,8.27,9.46,16.61,18.31,12.51,1.63-.76,2.87-1.74,3.8-2.89,1.48.4,3.15-.16,3.55-2.09Zm-9.23-.99c-4.85,3.43-9.44-2.96-10.26-7.06-.49-2.45-.5-5.79,2.36-6.69,2.17-.68,4.85.41,6.59,1.67.64.46,1.23.99,1.75,1.58,1.53,3.59,2.72,8.27-.45,10.51Z" style="fill: #212b50;"/>
      <path d="m104.65,93.93c-1.87-2.72-5.97-1.11-5.96,1.4-5.82-2.47-13.59-1.81-17.41,3.58-4.65,6.58,2.07,15.84,6.96,20.29,5.59,5.1,14.62,6.66,19.8.11,6.41-8.1,1.67-18.05-3.38-25.38Zm-16.74,14.95c-1.72-2.76-3.45-5.94.29-7.89,2.35-1.23,5.29-1.08,7.71-.14,5.99,2.34,7.8,9.11,7.04,14.94-4.96,5.78-12.41-2.7-15.04-6.92Z" style="fill: #212b50;"/>
      <path d="m127.87,71.53c.02-.19.03-.38.03-.56,1.38-5.32-.29-11.46-4.42-15.31-1.83-1.7-4.29-.64-5.13,1.05-2.34-.88-4.93-1.11-7.56-.45-7.38,1.87-11.16,11.11-7.9,17.83,3.64,7.49,14.22,8.91,20.48,3.93,1.6-1.27,2.79-2.83,3.61-4.54.47-.48.8-1.12.88-1.94Zm-7.56.95c-2.91,3.18-9.38,3.26-11.67-.74-1.74-3.04-.34-8.01,3.05-9.32,5.18-1.99,9.72,3.06,10,7.85-.32.79-.77,1.53-1.39,2.2Z" style="fill: #212b50;"/>
    </g>
  </g>
</svg>