<?xml version="1.0" encoding="UTF-8"?>
<svg id="Layer_1" data-name="Layer 1" xmlns="http://www.w3.org/2000/svg" viewBox="0 0 300 300">
  <path d="m270.64,92.2c-.12-.8-.51-1.36-1.02-1.7,1.14-1.36.4-4.26-1.84-4.13-13.71.8-27.43-.05-41-2.54-1.36-.25-2.25.71-2.49,1.83-8.78.54-17.57.57-26.37.08-2.87-.16-2.42,4.65.42,4.81,1.88.11,3.76.18,5.63.24-.84.58-1.54,1.42-2.07,2.52-.25.52-.31,1.01-.23,1.45-.08.04-.15.08-.23.12,0-.07,0-.15,0-.22-.05-3.01-4.24-2.72-4.45.11-.14-.18-.27-.35-.41-.53,0-1.02-.55-1.98-1.79-2.1-8.79-.87-17.6-1.41-26.42-1.62-.49-.35-1.05-.6-1.67-.72-1.16-.24-3.64.56-4.58-.22-1.21-1-3.05-.46-3.54.96-.04.01-.08.04-.12.05-.73-.43-1.67-.35-2.37.13-9.22-.54-18.44-.77-27.66-.65-.33-.81-1.05-1.38-2.13-1.16-15.22,3.09-30.73,4.27-46.25,3.52-1.26-.06-1.88.83-1.93,1.87-.68.52-1.13,1.4-.92,2.47-8.77-.2-17.55-.41-26.32-.61-.63-.51-1.3-.63-1.89-.49-.88-.12-1.78.27-2.23,1.03-8.88-.51-17.76-.47-26.63.18-2.87.21-2.45,5.01.42,4.81,5.75-.42,11.5-.59,17.26-.51-2.21,15.03-1.57,30.34,1.75,45.21-.76,1.35.04,3.85,2.08,3.96,4.26.22,8.52.44,12.77.66,1.08,12.93,1.68,25.9,1.8,38.88-1.45.07-2.91.14-4.36.21-.79-2.08-3.92-2.48-5.37-.49-.19.26-.33.54-.43.82-6.87.42-13.73.94-20.58,1.57-.54.05-.97.26-1.28.57-3.17-29.51-5.18-59.14-6.02-88.8-.09-3.1-4.54-2.71-4.45.39.84,29.62,2.84,59.2,6,88.66-1.31-.03-2.62-.07-3.93-.1-2.88-.07-2.44,4.73.42,4.81,1.35.03,2.69.07,4.04.1.03.24.05.48.08.73.06.49.21.89.44,1.21-1.81,1.29-1.22,4.98,1.26,4.43,12.05-2.65,24.39-2.72,36.51-.16.97.2,1.7-.21,2.12-.88,9.05.44,18.07,0,27.01-1.36.24.07.5.1.79.08,9.64-.71,19.32-.83,28.99-.27.45.03.86-.07,1.2-.26.14.02.29.03.44.02,4.58-.26,9.16-.36,13.74-.32.31.93,1.07,1.71,2.21,1.72l76.33.76c.13.06.26.1.39.13,1.43.26,2.86.51,4.3.77.79.14,1.57-.18,2.07-.78,11.86.31,23.71.62,35.57.93.66.02,1.14-.22,1.47-.6,1.61.02,3.22.03,4.83.05,1.23.01,1.85-.86,1.94-1.87,2.12.04,4.24.09,6.36.13.63.01,1.1-.21,1.42-.56.77,2.06,4.28,1.44,4.31-1.3.36-35.91,2.06-72.33-3.39-108Zm-228.98,14.11c.11-.03.21-.06.31-.1.02.07.05.14.08.2.03.05.05.1.08.16-.19.08-.36.17-.53.29.02-.18.03-.37.05-.55Zm-.39,21.68c.06.18.15.35.26.52,1.03,1.55,1.97,3.14,2.86,4.77-1.03-.08-2.05.75-2.37,1.81-.32-2.36-.57-4.73-.74-7.1Zm2.67,17.66s-.01-.09-.03-.14c-.65-2.81-1.18-5.65-1.62-8.5.02.03.04.06.06.1,1.02,1.39.75,2.39.87,3.98.09,1.11.75,2.26,1.4,3.08.53.67,1.18,1.21,1.88,1.62-.86-.04-1.72-.09-2.58-.13Zm2.15-18.84c-.44-.5-.88-1.01-1.31-1.51-1.32-1.51-3.26-.22-3.59,1.45-.34-5.33-.31-10.67.07-15.99.69,1.73,1.44,3.41,2.26,5.05-1.23.44-2.15,2.07-1.28,3.7,1.26,2.35,2.56,4.66,3.92,6.94-.02.12-.04.24-.07.36Zm.64-21.13c-.26-.49-.51-.98-.77-1.47-.62-1.18-1.9-1.24-2.87-.7-.12-.75-.23-1.49-.35-2.24,1.31.05,2.62.11,3.92.19-.1.55.02,1.16.45,1.76.53.74,1.07,1.48,1.6,2.22-.7-.27-1.43-.15-1.99.24Zm4.89,40.37c.51-.4.87-.98,1.01-1.61.34-.41.57-.93.6-1.5.15.11.31.2.47.27.1.99.2,1.97.29,2.96-.79-.04-1.58-.08-2.37-.12Zm-26.84,52.49c.02-.19.02-.38,0-.59,0-.07-.01-.14-.02-.2.16.04.32.07.48.07,1.21.03,2.41.06,3.62.08-1.36.18-2.72.4-4.07.64Zm32.67.16c-.31-.06-.63-.11-.95-.17.37,0,.74.02,1.11.03-.06.05-.12.09-.17.14Zm3.82-97.52c-.11.23-.18.49-.21.79l-.12,1.53c-.87-.83-1.76-1.62-2.68-2.39l3.01.07Zm-3.34,17.41c-.02-.16-.05-.31-.09-.46.3-.17.56-.42.75-.72.19,2.6.38,5.2.58,7.79-.41,5.09-.83,10.17-1.24,15.26-.12-1.18-.25-2.35-.38-3.53.92-6.05,1.05-12.21.38-18.34Zm26.06,63.94c-.91.26-1.61,1.07-1.37,2.39l.78,4.27c-7.58.03-15.15.19-22.72.48-.11-12.84-.7-25.67-1.75-38.46l2.18.11c.06.75.11,1.5.17,2.26.23,3.14,4.47,2.67,4.45-.39,0-.58,0-1.16,0-1.74,1.76-.5,1.62-3.42-.02-4.41-.07-14.94-.13-29.88-.2-44.82,0-.36-.08-.68-.21-.95,2.5.06,5,.12,7.5.17.12,3.73.23,7.45.35,11.18-.55,5.29-.65,10.63-.28,15.97.05.76.38,1.31.82,1.67.02.75.05,1.51.07,2.26.02.66.23,1.16.55,1.51.05,1.71.09,3.42.15,5.13.03.78.34,1.33.78,1.68.11.25.25.46.42.63.05.72.11,1.44.16,2.16.06.83.41,1.41.89,1.75,0,.34.01.68.02,1.02,0,1.41,1.32,2.17,2.44,2.21.76.03,1.52.02,2.27,0,.62,11.31,1.48,22.61,2.58,33.89Zm-3.19-47.13c-.14-2.27-.31-4.54-.53-6.81.02-.5.04-1,.06-1.51.06.13.13.26.21.37.07,2.65.16,5.29.26,7.94Zm149.68-46.08c1.43.22,2.86.43,4.29.62-.04.21-.07.44-.06.69.82,18.93,1.64,37.85,2.45,56.78-.7.1-1.4.21-2.09.33-.08-.55-.15-1.1-.23-1.64.87-1.03,1.35-2.32.98-3.93-.15-.65-.43-1.22-.78-1.71.45-1.5.32-3.21-.34-4.67,2-10.75,1.63-21.85-1.02-32.46.27-3.63.57-7.25.93-10.86.3-3.07-4.1-3.99-4.41-.9-.1,1.04-.2,2.08-.29,3.13-.04,0-.07.01-.11.03-.07-1.22-.14-2.43-.2-3.65-.02-.38-.1-.71-.24-.99.49-.13.85-.41,1.1-.77Zm-10.86,1.51s0-.08,0-.12c1.9-.07,3.79-.16,5.69-.28-.11.3-.16.65-.14,1.04.07,1.51.16,3.02.25,4.53-.02,0-.04.01-.06.02-.46-.21-1-.24-1.5-.1-.11-.82-.23-1.64-.35-2.46-.35-2.39-2.7-2.68-3.84-1.34-.01-.43-.03-.86-.05-1.29Zm6.35,58.74c.06-.04.08-.06.09-.07.04-.02.09-.04.15-.07.17-.08.4-.15.54-.14.3,0,.37.08.74.33.02.02.05.03.07.04-.69.23-1.38.47-2.06.73.01-.05.02-.09.03-.14.06-.32,0-.26.23-.5-.18.2.15-.13.22-.18Zm.92-5.11c.09-.16.17-.32.23-.51.05.2.13.38.22.55-.15-.02-.3-.04-.45-.04Zm-20.72-12.46c.24,4.22.43,8.44.58,12.66-.2-4.22-.39-8.44-.58-12.66Zm-8.69-2c0,.29,0,.58.01.87-.08-.27-.16-.53-.23-.8.08-.02.15-.05.22-.07Zm-8.63-32.16c.37-.12.71-.38,1.01-.81.11-.17.21-.33.29-.49.74.06,1.47.13,2.21.19-.5.42-.8,1.07-.64,1.95.3,1.68.63,3.36.96,5.04-.45-1.23-.92-2.45-1.42-3.66-.5-1.23-1.49-1.65-2.39-1.49,0-.23-.02-.47-.02-.72Zm6.56,52.56c-.07,0-.14,0-.22,0-.09-.19-.18-.39-.26-.58.05,0,.09.02.14.03.09.2.2.38.34.56Zm-6.77-33.82c.27.91.53,1.82.8,2.74-.27.08-.52.2-.75.37-.02-1.04-.04-2.07-.05-3.11Zm.23,9.64c.71,2.39,1.5,4.75,2.35,7.09-.74-.07-1.49.2-1.97.71-.16-2.6-.28-5.2-.38-7.8Zm.62,11.49c.71,1.73,1.42,3.46,2.13,5.18-.62-.06-1.23.13-1.68.54-.16-1.91-.31-3.81-.45-5.72Zm-26.21-34.06c1.45-.24,2.27-2.49,1.37-3.82-.47-.69-.96-1.35-1.47-1.99-.01-.69-.02-1.38-.04-2.07,0-.19-.02-.36-.06-.52,1.01,0,2.01.02,3.02.04.11,1.27-.17,3.65-.18,4.27-.02,1.96-.04,3.92-.06,5.88-.64-.74-1.71-1-2.57-.72,0-.36-.01-.71-.02-1.07Zm-2,41.35c1.25.15,2.7-.74,2.67-2.51v-.73c.77-.17,1.44-.77,1.57-1.84-.02,2.36-.05,4.73-.07,7.09,0,.65.22,2.28-.17,2.9-.5.81-1.88.53-2.6.5-.7-.03-1.39-.07-2.09-.1.21-1.77.43-3.54.68-5.31Zm-73.45-47.56c0,.28,0,.55.01.83-.41.42-.68,1.04-.65,1.82.01.32.02.64.04.95-.15-1.21-.34-2.42-.57-3.62.39,0,.78.01,1.18.01Zm-2.66,35.4s.08,0,.11,0c-.02.67-.03,1.33-.05,2-.03-.67-.04-1.33-.07-2Zm30.5,57.72l-17.1-.49c-.4-.45-.96-.76-1.67-.77-2.58-.04-5.17-.07-7.75-.08-1.45-13.62-2.55-27.28-3.3-40.95.13-.02.26-.04.39-.06.74.24,1.62.07,2.22-.43.84-.18,1.67-.39,2.5-.63.59-.17,1.05-.72,1.28-1.36,1.08,1.91,4.2,1.29,4.12-1.41l-.51-16.9c.03-.47.06-.94.07-1.41.38-.42.64-.99.65-1.71.13-8.23-.37-16.45-1.5-24.61-.21-1.5-1.58-2.3-2.75-2.13,0-.06,0-.13,0-.19,8.95-.14,17.88-.91,26.73-2.33.11.01.22.02.33.01.81-.03,1.62-.05,2.43-.08-1.81,31.73-2.61,63.54-2.41,95.36-1.24.06-2.49.12-3.73.17Zm39.44.57c-7.4-.02-14.81-.05-22.21-.07-1.49-.04-2.98-.09-4.47-.13-.4-.54-1.02-.9-1.84-.86-.91.04-1.82.08-2.73.12-.21-31.79.59-63.57,2.43-95.28,9.1-.18,18.22-.03,27.32.45.16.19.36.36.6.51.26.16.52.34.77.51-.29.46-.44,1.05-.39,1.67-1.34.14-2.4,1.67-1.89,3.22.02.05.04.1.05.15-.28.05-.55.15-.8.3.03-1.4.07-2.79.11-4.19.1-3.09-4.36-2.68-4.45.39-.33,10.68-.31,21.38.12,32.07.12,2.99.27,5.98.45,8.97-.34,1.85-.69,3.7-1.07,5.55-.3,1.47.58,2.43,1.63,2.69.29,3.76.76,7.18,5.06,7.53.61.05,1.22.09,1.83.12-1.12,12.03-1.28,24.17-.51,36.27Zm-1.1-41.17c-.67-.29-.25.18-.61-.57-.08-.17-.1-.48-.1-.78.75.7,1.62,1.23,2.56,1.52-.66.02-1.37.03-1.84-.17Zm-1.8-43.38c-.11,1.66-.24,3.32-.38,4.98,0-1.82.01-3.65.03-5.47.12.16.23.32.34.47,0,0,0,0,0,.01Zm45.6,85.96c-3.68-.06-7.36-.12-11.05-.19-.39-.65-1.05-1.12-1.95-1.12-8.41-.03-16.82-.05-25.23-.08-.79-12.06-.62-24.12.52-36.08.17,0,.34.01.51.02,2.01.1,4.31.54,6.21-.33,3.98-1.82,3.08-7.75,3.11-11.49l.33-33.07c.03-3.04.06-6.07.09-9.11.02-1.78.27-3.81.16-5.7,4.66.13,9.32.38,13.98.7-.31,2.52-.15,5.31-.21,7.8-.09,3.3-.13,6.6-.13,9.9.02,12.74.73,25.47,2.09,38.14.07.64.32,1.13.66,1.48.31.93,1.07,1.71,2.21,1.72,1.2.01,2.4.03,3.59.04.91,1.08,2.25.86,3.09.03.63,0,1.26.01,1.89.02.08,12.44.12,24.87.11,37.31Zm-.29-58.34c.01.98.02,1.95.03,2.93-.3-.72-.6-1.44-.89-2.17.34-.17.64-.43.86-.76Zm38.08,56.69c-8.22.97-16.48,1.59-24.75,1.86-2.86-.05-5.72-.1-8.58-.14,0-12.19-.03-24.38-.1-36.57,1.3.51,3.18-.33,3.22-2.29,1.3-.55,1.68-2.19,1.24-3.38.21-.38.34-.84.31-1.39-.05-1.02-.1-2.05-.15-3.07.36,2.79,4.53,2.32,4.43-.67-.37-11.4-1.09-22.8-2.18-34.16-.24-2.53-.51-5.05-.79-7.58.43-3.61.91-7.21,1.44-10.8.09-.59-.06-1.26-.37-1.8,1.95.01,3.89,0,5.84-.04-.01.12-.02.25-.01.38.49,15.45,1.43,30.89,2.82,46.29-.03,1.2-.06,2.41-.09,3.61-.02.71.21,1.24.58,1.59.35,3.64.72,7.27,1.12,10.9.03.25.09.48.17.69-.12,1.63,1.15,3.39,2.9,2.53,2.85-1.4,5.77-2.5,8.77-3.33,1.97,12.72,4.34,25.38,7.12,37.95.12.54.35.92.64,1.18.16.59.5,1.15,1,1.52l-2.34-.07c.42-1.48-.4-3.42-2.25-3.2Zm34,7.2c-.4-.48-.98-.82-1.71-.83-.51-.01-1.02-.02-1.53-.03.07-.35.06-.72-.01-1.07.76-.04,1.51-.09,2.27-.15.4-.03.73-.17,1.01-.36-.01.82-.02,1.63-.03,2.45Zm.09-6.45c-.25-.19-.54-.34-.89-.41-6.37-1.3-12.74-2.61-19.12-3.91-1.59-.33-2.54,1.02-2.56,2.37-1.46,0-2.93.03-4.39.07-2.72-12.33-5.04-24.75-6.95-37.23.93-.17,1.86-.31,2.8-.43,1.46-.17,2.07-1.52,1.92-2.75.67-.4,1.16-1.14,1.12-2.2-.82-18.89-1.63-37.78-2.45-56.67,9.03.96,18.1,1.23,27.16.8-.16.36-.22.8-.14,1.31,4.99,32.7,3.98,66.05,3.5,99.04Z" style="fill: #212b50;"/>
</svg>