<?xml version="1.0" encoding="UTF-8"?>
<svg id="Layer_1" data-name="Layer 1" xmlns="http://www.w3.org/2000/svg" viewBox="0 0 300 300">
  <path d="m33.06,154.22V37.28c32.29,0,58.47,26.18,58.47,58.48s-26.18,58.47-58.47,58.47Z" style="fill: #03081b;"/>
  <path d="m150,37.28v116.95c-32.29,0-58.47-26.18-58.47-58.48s26.18-58.47,58.47-58.47Z" fill={state.darkest}/>
  <path d="m150,37.28h116.95c0,32.29-26.18,58.47-58.48,58.47s-58.47-26.18-58.47-58.47Z" style="fill: #e8e2d8;"/>
  <path d="m33.05,154.22h233.89c0,64.58-52.36,116.94-116.95,116.94s-116.94-52.36-116.94-116.94Z" fill={state.brand}/>
  <path d="m150,95.75h116.94c0,32.29-26.18,58.47-58.47,58.47s-58.47-26.18-58.47-58.47Z" fill={state.mid}/>
</svg>