<?xml version="1.0" encoding="UTF-8"?>
<svg id="Layer_1" data-name="Layer 1" xmlns="http://www.w3.org/2000/svg" viewBox="0 0 300 300">
  <path d="m151.2,263.56c-.5,0-.94-.09-1.4-.2-1.4-.35-2.56-1.21-3.27-2.45-2.4-4.16,1.43-8.01,4.52-11.11,2.62-2.63,6.49-6.16,11.82-10.78,9.8-8.49,22.82-19.18,36.6-30.5,11.55-9.49,25.37-20.84,36.21-30.14-20,11.52-49.02,29.57-70.87,43.16-57.36,35.68-57.97,35.53-61.37,34.67-1.37-.34-2.52-1.2-3.22-2.42-2.52-4.36,1.67-7.97,6.11-11.79,3.38-2.92,8.37-6.91,15.24-12.19,12.72-9.78,29.95-22.51,48.19-35.98,16.44-12.14,37.09-27.4,54.08-40.4-13.7,8.35-29.29,18.06-43.41,26.85-23.64,14.71-48.08,29.93-67.36,41.35-34.14,20.23-36.94,19.52-39.64,18.85-1.5-.38-2.75-1.3-3.5-2.61-2.75-4.76,2.31-9.1,7.21-13.29,4.18-3.58,10.35-8.4,18.87-14.73,15.73-11.7,36.73-26.54,58.97-42.26,18.27-12.92,39.83-28.16,57.6-41.2-17.33,10.28-37.7,22.56-56.04,33.62-93.98,56.67-98.47,58.59-102.37,57.59-1.36-.35-2.5-1.21-3.19-2.41-2.56-4.44,1.7-7.95,7.1-12.41,3.92-3.24,9.69-7.69,17.63-13.61,14.73-10.99,34.66-25.34,55.75-40.53,21.51-15.49,47.24-34.02,67.3-49.02-20.03,11.85-44.58,26.8-65.23,39.38-87.46,53.25-88.47,52.99-92.24,52.02-1.37-.35-2.51-1.21-3.22-2.43-2.69-4.66,1.79-9.17,8.42-15.03,5-4.42,12.31-10.31,22.37-18,18.43-14.11,42.6-31.64,65.96-48.59,9.5-6.89,19.41-14.08,28.62-20.83-16.11,9.77-33.97,20.9-48.58,30.01-63.46,39.57-69.27,42.55-73.41,41.51-1.41-.35-2.58-1.23-3.29-2.47-2.31-4,1.13-7.09,4.78-10.36,2.53-2.27,6.24-5.4,11.36-9.58,9.5-7.75,22.59-18.1,36.45-29.05,15.58-12.31,35.44-28.01,50.99-40.8-11.41,6.96-24.31,15.05-35.4,22-52.91,33.19-58.32,35.89-62.4,34.88-1.42-.35-2.61-1.24-3.33-2.49-2.22-3.84.11-6.3,8.77-15.43,5.16-5.44,12.2-12.61,19.65-20.21,5.58-5.68,12.28-12.51,18.47-18.94-4.56,2.71-5.21,2.65-6.96,2.21-1.32-.33-2.47-1.19-3.14-2.37-1.38-2.39-.56-5.45,1.83-6.83.4-.23.81-.4,1.23-.51,1.6-.84,6.39-3.83,10.31-6.27,17.71-11.05,18.74-11.39,21.43-10.72,1.31.33,2.51,1.23,3.19,2.4,2.21,3.82.56,6.5-12.56,20.5-7.46,7.96-17.22,17.91-26.66,27.53-2.61,2.66-5.38,5.48-8.1,8.26,10.19-6.22,22.18-13.74,32.95-20.49,59.04-37.04,66.63-40.78,71.21-39.65,1.46.36,2.68,1.27,3.41,2.55,2.62,4.55-2.09,8.98-7.09,13.67-4.12,3.87-10.12,9.07-18.35,15.88-15.05,12.47-34.48,27.82-53.26,42.67-2.88,2.28-5.81,4.59-8.73,6.9,7.05-4.37,14.31-8.9,21.35-13.29,21.42-13.36,43.58-27.17,61.29-37.66,31.6-18.72,34.32-18.03,36.95-17.38,1.5.38,2.75,1.3,3.5,2.6,2.54,4.39-1.7,7.98-6.18,11.77-3.41,2.89-8.45,6.85-15.39,12.09-12.87,9.72-30.45,22.47-49.05,35.97-18.64,13.52-42.25,30.64-61.13,44.93,14.89-8.92,32.3-19.52,48.76-29.54,24.6-14.98,50.04-30.47,69.76-42.06,34.85-20.48,36.76-19.99,39.41-19.32,1.41.36,2.57,1.24,3.29,2.47,2.69,4.67-1.73,8.77-9.17,15.09-5.32,4.52-13.1,10.62-23.76,18.65-19.61,14.76-45.51,33.41-70.56,51.45-8.72,6.28-17.73,12.77-26.39,19.04,13.3-7.96,27.4-16.46,40.47-24.34,93.92-56.63,98.42-58.55,102.3-57.55,1.36.35,2.5,1.21,3.19,2.41,2.71,4.69-1.87,9.25-8.13,14.71-4.85,4.23-11.98,9.86-21.82,17.21-18.09,13.53-42.53,30.81-66.17,47.52-16.29,11.52-34.44,24.35-49.53,35.34,19.61-11.71,43.71-26.71,63.94-39.31,73.95-46.03,81.9-50.12,86.44-48.99,1.43.36,2.61,1.24,3.33,2.49,2.59,4.48-1.41,8.55-7.81,14.25-4.58,4.08-11.28,9.54-20.49,16.69-16.9,13.13-39.28,29.66-60.91,45.64-3.16,2.33-6.36,4.7-9.56,7.07,18.62-11.58,38.77-24.06,55.04-33.67,32.74-19.34,35.5-18.65,38.18-17.98,1.5.38,2.74,1.3,3.5,2.6,2.47,4.28-1.58,8.4-4.84,11.71-2.87,2.91-7.09,6.79-12.92,11.86-10.68,9.28-25.22,21.23-39.28,32.78-5.82,4.78-12.03,9.88-18.04,14.86.77-.49,1.54-.97,2.3-1.45,48.71-30.71,55.11-33.79,59.43-32.72,1.46.36,2.68,1.27,3.42,2.55,1.38,2.39.56,5.45-1.83,6.83-1.04.6-2.2.78-3.29.61-6.44,2.22-33.95,19.57-52.39,31.2-34.85,21.97-41.01,25.44-44.22,25.44Zm93.09-59.04s0,0,0,0c0,0,0,0,0,0Zm0-.01s0,0,0,0c0,0,0,0,0,0Zm0-.01s0,0,0,0c0,0,0,0,0,0ZM86.04,60.05s0,0,0,0c0,0,0,0,0,0Zm-1.73-1.76c.69.42,1.3,1.01,1.73,1.76-.46-.79-1.07-1.37-1.73-1.76Z" fill={state.brand}/>
</svg>