<?xml version="1.0" encoding="UTF-8"?>
<svg id="Layer_1" data-name="Layer 1" xmlns="http://www.w3.org/2000/svg" viewBox="0 0 300 300">
  <path d="m150,276.04h0s.27.01.27.01c-.09,0-.18,0-.27-.01Zm0-249.99h.27-.27Z" style="fill: #db3f29;"/>
  <path d="m150.27,276.05h.27-.27Zm0-250c.09,0,.18,0,.27.01h0s-.27-.01-.27-.01Z" style="fill: #db3f29;"/>
  <path d="m242.38,240.41c-10.69-11.68-21.68-23.09-32.95-34.21-11.27-11.12-22.82-21.96-34.64-32.5-11.82-10.54-23.9-20.78-36.23-30.71-8.84-7.12-17.81-14.07-26.9-20.87,4.4-4.65,8.8-9.29,13.2-13.94,4.1-4.33,8.2-8.66,12.3-12.99,2.21-2.34-1.32-5.88-3.54-3.54-8.67,9.16-17.34,18.31-26.01,27.47-2.31-1.71-4.61-3.42-6.94-5.1-12.45-9.03-25.12-17.75-37.99-26.16,16.26-1.1,32.65-.29,48.71,2.53,5.25.92,10.46,2.06,15.63,3.39,3.12.79,4.45-4.02,1.33-4.82-21.45-5.42-43.86-10.95-66.15-8.36-6.2.72-12.3,2.03-18.19,4.12-1.56.55-2.29,2.17-1.49,3.67,8.99,17,17.99,33.99,26.98,50.99,2.56,4.84,5.12,9.67,7.67,14.51.74,1.4,2.85,1.64,3.93.51,9.04-9.54,18.07-19.08,27.11-28.62,7.63,5.7,15.18,11.49,22.63,17.42,12.33,9.81,24.42,19.94,36.24,30.35,11.82,10.42,23.38,21.14,34.67,32.14,11.34,11.05,22.4,22.39,33.16,34,1.31,1.42,2.62,2.84,3.93,4.26,2.18,2.38,5.71-1.17,3.54-3.54Zm-152.5-102.55c-3.32,3.51-6.64,7.01-9.96,10.52-8.47-16-16.93-32-25.4-48-2.08-3.93-4.16-7.86-6.24-11.79,1.59-.49,3.2-.93,4.81-1.31.2.33.48.64.88.89,13.26,8.52,26.31,17.36,39.12,26.53,3.72,2.66,7.41,5.35,11.08,8.07-4.77,5.03-9.53,10.07-14.3,15.1Z" style="fill: #db3f29;"/>
</svg>