<?xml version="1.0" encoding="UTF-8"?>
<svg id="Layer_1" data-name="Layer 1" xmlns="http://www.w3.org/2000/svg" viewBox="0 0 300 300">
  <path d="m266.7,154.98c-24.81-15.27-50.84-28.45-77.83-39.42-2.29-.93-4.37.69-4.38,3.06-.06,17.18-.13,34.36-.19,51.54-35.3-7.03-70.9-12.5-106.68-16.39-.19-4.66-.38-9.33-.57-13.99-.15-3.58-5.15-3.47-6.01-.51-12.66-.37-25.16,1.21-37.35,4.82-2.32.69-2.51,3.8-.9,5.25l20.59,18.45c3.28,2.94,6.57,5.88,9.85,8.83,1.79,1.6,3.58,3.21,5.37,4.81,1.27,1.13,2.53,2.5,4.19,3.03,3.04.96,5.52-1.06,5.84-4.07.46-4.21-.29-8.83-.47-13.06l-.3-7.34c36.54,4.01,72.89,9.67,108.93,16.96,2.11.43,3.61-1.37,3.62-3.3.06-16.9.12-33.8.19-50.71,25.43,10.6,50,23.17,73.47,37.62,3.38,2.08,5.97-3.51,2.63-5.57Zm-194.86,8.1c.15,3.79.31,7.58.46,11.38.01.29-.03,1.08-.06,1.98-.49-.44-.99-.89-1.48-1.33-9.91-8.88-19.82-17.76-29.73-26.64,9.83-2.41,19.96-3.47,30.09-3.09.11,2.58.21,5.17.32,7.75-.29-.03-.57-.06-.86-.09-3.92-.4-5.05,5.65-1.11,6.06.74.08,1.48.16,2.22.24.05,1.25.1,2.51.15,3.76Z" style="fill: #212b50;"/>
</svg>