<?xml version="1.0" encoding="UTF-8"?>
<svg id="Layer_1" data-name="Layer 1" xmlns="http://www.w3.org/2000/svg" viewBox="0 0 300 300">
  <path d="m173.86,243.61c-.35,0-.58-.05-.77-.1-.59-.14-1.08-.49-1.36-.98-.4-.69-.19-1.58.49-2.01l67.11-43.3c-10.15,5.88-22.01,12.89-34.12,20.12-5.18,3.19-10.27,6.26-15.12,9.06-9.33,5.62-18.44,11.14-26.66,16.14-.35.21-.76.27-1.15.17-.39-.1-.73-.35-.93-.7-.21-.37-.31-.78-.24-1.26-2.63.83-4.68,1.14-6,.85-1.28-.28-1.93-1-2.24-1.54-.38-.66-.69-1.2,1.06-2.86-6.2,3.07-10.03,4.39-11.69,3.98-.79-.2-1.21-.66-1.41-1.02-.18-.32-.36-.84-.17-1.54.09-.34.21-.78.91-1.6-.98.08-1.52-.04-1.92-.13-1.11-.26-1.68-.88-1.95-1.36-.27-.46-.33-1.02-.17-1.56,1.01-3.56,16.51-12.23,54.31-32.64,15.46-8.35,33.39-18.03,48.94-26.98,2.76-1.62,5.45-3.18,8.04-4.69,16.49-9.77,28.81-18.12,29.93-22.06,0-.02.01-.04.02-.06-2.21.03-11.58,3.21-50.53,26.44-26.04,15.54-56.4,34.69-76.49,47.37q-23.73,14.97-24.66,14.73c-.4-.1-.74-.36-.95-.71-.26-.45-.51-1.2-.23-2.21.19-.67.64-1.43,1.35-2.3-4.36,2.21-7.03,3.12-8.25,2.83-.56-.14-1.02-.47-1.29-.94-.41-.7-.18-1.6.52-2.03,1.25-.77,2.56-1.57,3.93-2.4-1.46.3-2.67.35-3.62.14-1.44-.32-2.18-1.15-2.55-1.78-.41-.71-.18-1.61.52-2.03,50.49-30.84,141.85-86.8,162.91-100.18-2.01.72-4.91,1.95-9.06,3.99-8.25,4.85-19.45,11.07-33.92,18.93-34.54,22.21-66.95,42.74-90.85,56.38-31.61,20.01-34.34,21.49-35.64,21.17-.4-.1-.78-.38-.98-.73-.31-.54-.61-1.45-.26-2.69.08-.29.21-.6.37-.92-.67.05-1.24.02-1.71-.1-1.15-.28-1.73-.93-2.01-1.42-.41-.7-.18-1.6.51-2.03l3.17-1.95c-3.17,1.29-5.47,1.8-6.88,1.48-1.07-.25-1.63-.87-1.9-1.35-.97-1.69-1.12-1.95,27.66-19.92,14.63-9.14,35.12-21.73,60.89-37.42,3.26-1.99,6.52-3.97,9.77-5.95-5.73,2.97-11.71,6.04-17.9,9.22-8.46,4.35-16.75,8.6-24.67,12.72-34.74,21.8-63.63,40.64-63.98,40.87-.34.23-.77.3-1.17.2-.4-.1-.74-.35-.95-.71-.3-.52-.59-1.39-.24-2.57.29-.98,1.06-2.12,2.3-3.41-2.05,1.19-3.35,1.94-4.21,2.4l-.79.48-.04-.06c-.71.34-.87.3-1.13.23-.58-.15-1.01-.64-1.1-1.23-.09-.59.19-1.18.7-1.5l187.13-114.29c-11.19,5.05-36.58,18.63-93.81,53.33-47.28,28.67-93.67,58.06-94.13,58.36-.35.22-.76.29-1.16.19-.4-.1-.74-.35-.94-.71-.34-.59-.66-1.58-.27-2.96.31-1.09,1.12-2.39,2.38-3.86-.48-.14-.87-.44-1.11-.85-.31-.53-.6-1.42-.25-2.66.07-.23.16-.48.27-.73-1.91.68-3.27.91-4.11.71-.81-.2-1.24-.68-1.45-1.04-.2-.35-.26-.77-.14-1.17.11-.39.38-.72.74-.91.18-.09,6.7-3.55,17.24-9.22,15.24-11.1,43.17-27.22,77.97-46.45,49.21-31.56,81.68-51.93,93.19-55.12,3.14-2.76,4.24-4.28,4.61-5.08-3.64.96-16.06,7.16-39.17,20.19-14.32,8.53-32.89,19.3-55.94,32.56-28.12,16.74-63.06,37.96-105.64,64.34-.34.21-.76.28-1.16.18-.39-.1-.73-.35-.93-.7-.24-.42-.3-.92-.17-1.42.36-1.33,3.62-4,10.08-8.28-4.64,2.52-7.34,3.53-8.59,3.23-.55-.13-1.01-.46-1.28-.92-.2-.35-.4-.93-.19-1.72.3-1.12,1.9-2.83,4.68-5.1-5.28,2.94-7.84,3.94-8.91,3.68-.49-.12-.89-.41-1.13-.83-.28-.49-.55-1.3-.24-2.4.46-1.62,2.35-3.78,5.54-6.44-.57.36-1.14.72-1.72,1.08-.34.22-.76.28-1.16.19s-.73-.35-.94-.71c-.3-.52-.58-1.38-.24-2.55.34-1.19,1.37-2.6,3.06-4.24-.34.03-.62.01-.86-.05-.57-.14-1.03-.48-1.31-.95-.22-.39-.44-1.03-.19-1.88.22-.77.94-1.72,2.15-2.85-2.01.84-3.35,1.15-4.09.97-.54-.13-.98-.45-1.24-.9-.2-.35-.26-.8-.15-1.18.11-.4.45-.85,1.91-1.88-2.85.89-5,1.2-6.34.88-1.18-.29-1.78-.95-2.07-1.46-.25-.43-.31-.94-.17-1.45.18-.68.46-1.72,6.23-6-1.32-.4-2-1.18-2.35-1.79-.33-.57-.64-1.53-.25-2.87.31-1.06,1.1-2.33,2.37-3.82-.54.29-.96.51-1.31.68-.32.19-.5.3-.53.32l-.03-.05c-.73.32-.9.28-1.12.22-.58-.16-1.02-.64-1.1-1.24-.08-.6.2-1.19.71-1.5,5.82-3.48,11.89-7.13,18.14-10.88,5.94-4.28,13.43-9.25,22.49-14.93-19.04,10.48-33.82,18.4-38.52,20.9-.71.38-1.58.13-1.99-.55-.41-.69-.21-1.57.45-2.02.12-.08,3.91-2.61,10.28-6.81-5.72,2.65-7.95,2.94-9.18,2.64-.86-.21-1.3-.71-1.52-1.1-.26-.44-.5-1.18-.21-2.16.46-1.58,2.56-3.69,6.15-6.33-2.31,1.46-4.56,2.89-6.77,4.29-.35.22-.77.29-1.16.19-.4-.1-.74-.35-.94-.71-.22-.37-.42-.99-.2-1.83.34-1.24,2.05-3.11,4.98-5.53-4.23,2.38-5.91,2.96-6.75,2.75-.46-.11-.83-.39-1.06-.78-.41-.7-.18-1.6.51-2.03,11.57-7.11,25.45-15.64,40.08-24.65-17.87,9.72-31.89,17.09-36.21,19.35-.72.38-1.62.11-2.01-.61-.39-.72-.14-1.61.56-2.02L190.64,28.28c6.67-4.8,9.97-7.78,11.57-9.61-10.03,5.8-40.05,23.17-70.08,40.52-18.4,10.63-36.8,21.26-50.61,29.23-6.9,3.98-12.66,7.3-16.69,9.61-2.02,1.16-3.6,2.07-4.69,2.69-2.09,1.19-2.95,1.68-3.71.38-.85-1.48.18-3.05,4.35-6.21-.39-.01-.66-.08-.88-.13-.89-.21-1.35-.73-1.58-1.12-.26-.44-.5-1.18-.21-2.2.26-.91.75-2.67,6.89-7.66-.11,0-.22-.01-.33-.04-.4-.09-.75-.35-.96-.71-.25-.42-.48-1.13-.21-2.11.35-1.23,1.73-2.9,3.88-4.88-1.81.95-2.08.88-2.48.78-.39-.1-.75-.37-.95-.72-.41-.72-.17-1.63.55-2.05,7.04-4.08,14.16-8.26,21.2-12.43.88-.54,1.77-1.08,2.67-1.63-13.99,7.54-16.1,7.04-17.12,6.8-.83-.2-1.27-.68-1.48-1.05-.4-.7-.18-1.59.5-2.02,6.33-4,13.38-8.49,20.55-13.09-1.94.83-3.35,1.14-4.32.92-.67-.15-1.21-.54-1.53-1.1-.67-1.15-.16-1.53,1.98-3.15l4.19-3.16c2.35-1.77,5.24-3.94,8.29-6.24-1.68.69-2.12.58-2.38.52-.47-.11-.86-.39-1.09-.8-.41-.72-.17-1.63.55-2.05.37-.21.79-.25,1.17-.14,2.47-.68,14.33-7.95,24.79-14.84.68-.45,1.58-.27,2.05.39.47.66.32,1.58-.33,2.06-8.21,6.16-21.29,16-29.5,22.18,6.49-3.84,15.68-10.17,22.61-14.95,17.93-12.35,25.51-17.31,28.4-16.66.59.13,1.08.48,1.37.98.98,1.69,1.34,2.32-37.45,27.48-10.52,6.82-21.15,13.62-28.44,18.26,14.04-7.01,42.97-24.3,83.43-51.09.34-.23.77-.3,1.17-.21.4.09.75.35.96.71.49.86,1.04,1.8-2.75,5.21,6.41-3.38,9.54-4.56,10.7-4.27.48.12.88.42,1.12.83.2.35.25.77.15,1.16-.11.39-.37.72-.73.91-.76.42-1.52.83-2.27,1.24,4.07-1.7,7.2-2.57,8.8-2.2.99.23,1.5.8,1.75,1.23.2.35.25.77.15,1.16-.11.39-.37.72-.73.91C106.23,57.84,63.63,85.87,61.11,91.87c1.33-.09,4.34-1.2,9.18-3.5,3.2-2.07,7-4.45,11.43-7.17,15.33-9.39,35.37-21,54.75-32.24,9.34-5.41,19.14-11.09,27.91-16.25,9.06-5.79,18.77-12.07,29.16-18.87.35-.23.77-.3,1.17-.2.4.1.75.35.95.71.92,1.59-.73,2.94-4.72,5.64-2.79,1.89-6.91,4.48-12.59,7.91-4.22,2.55-9.05,5.41-14.31,8.49-5.11,3.25-10.61,6.73-16.31,10.3,20.42-11.8,40.7-23.53,56.48-32.66.34-.2.76-.25,1.14-.15.38.1.71.35.91.7.3.52.58,1.39.23,2.59-.25.85-.87,1.85-1.83,3l3.79-2.19c.72-.42,1.64-.17,2.05.55.4.69.32,1.18-.15,1.69,2.95-1.04,5.11-1.44,6.41-1.13,1.04.25,1.56.84,1.83,1.3.2.35.26.84.15,1.22-.19.69-1.27,1.7-5,4.09,8.21-3.82,9.66-3.46,10.51-3.25.78.19,1.19.65,1.39,1,.35.61.69,1.63.28,3.02-.05.18-.11.35-.19.54,1.53-.58,2.58-.78,3.2-.63.53.13.96.44,1.21.89.28.49.55,1.32.22,2.46-.17.59-.53,1.26-1.08,2.02.37.03.64.1.88.15,1.17.27,1.75.92,2.04,1.42.88,1.53,1.19,2.06-21.3,16.3,18.01-9.68,30.29-16.09,30.52-16.21.72-.38,1.61-.11,2.01.61.39.71.14,1.61-.56,2.02,0,0-45.74,26.55-91.56,53.07-26.61,15.4-47.83,27.67-63.09,36.45-6.19,3.56-11.07,6.38-14.93,8.59-6.74,5.09-10.96,9.09-11.67,11.55-.07.24-.08.45-.04.53.05.08.18.32.79.46.76.18,1.75.16,2.95-.03,11.18-7.8,34.87-22.88,85.33-52.88,30.88-18.36,61.9-36.41,79.22-46.44,11.28-7.3,13.83-8.54,14.97-8.28.4.09.83.4,1.03.76.2.34.25.75.15,1.14-.1.38-.36.71-.7.91-4.43,2.55-9,5.18-13.67,7.89-7.46,4.82-17.31,11.36-27.45,18.1-61.33,40.74-117.86,77.48-137.67,81.55-4.04,2.82-6.79,4.93-7.97,6.2,1.48.05,5.95-.73,18.71-7.08,10.21-5.08,24.29-13,41.87-23.54,32.09-19.25,70.13-43.81,95.3-60.07,30.81-19.9,30.92-19.87,32-19.61.4.1.76.36.96.72.22.38.43,1.01.2,1.86-.17.62-.67,1.4-1.5,2.32,1.57-.4,2.78-.51,3.62-.31.99.24,1.5.81,1.76,1.25.33.57.65,1.53.29,2.84,3.03-1.31,5-1.83,6.01-1.58.57.14,1.04.48,1.31.96.31.54.61,1.43.25,2.66-.26.89-.87,1.9-1.84,3.02.76-.1,1.14,0,1.44.07.75.19,1.15.63,1.34.97.23.39.45,1.04.2,1.92-.08.27-.21.55-.4.86,1.91-.49,3.39-.62,4.41-.37,1.15.28,1.73.93,2.01,1.42.22.38.27.83.16,1.26-.13.47-.78,1.17-2.16,2.24.82-.04,1.53.01,2.14.15,1.54.36,2.32,1.22,2.7,1.88.25.44.31.96.17,1.48-.25.93-1.73,2.42-4.47,4.53,6.24-2.82,7.31-2.55,7.97-2.39.54.14.98.46,1.24.9.29.5.57,1.35.23,2.53-.23.8-.6,2.07-3.24,4.75.35.24.57.52.71.76.24.41.29.89.16,1.36-.54,1.9-6.97,6.05-26.83,17.11-5.64,3.68-12.4,7.93-20.48,12.85,3.92-2.12,7.84-4.23,11.74-6.33,10.93-5.89,20.95-11.29,27.38-14.87,2.56-1.58,5.08-3.13,7.55-4.65.35-.21.76-.28,1.15-.18.39.1.73.35.93.7.2.35.26.81.15,1.2-.15.54-.25.88-3.72,2.93,8.99-4.14,10.6-3.75,11.54-3.52.82.2,1.25.68,1.46,1.05.41.71.18,1.61-.52,2.03l-72.12,44.05c2.63-1.53,5.23-3.03,7.79-4.52,61.6-35.7,62.18-35.54,63.14-35.29.39.1.73.36.93.71.37.64.72,1.7.29,3.15-.38,1.31-1.4,2.8-3.02,4.49.09.11.17.23.23.33.41.71.18,1.61-.53,2.04-1.67,1-3.36,2.02-5.07,3.05,1.91-.51,3.42-.65,4.52-.4,1.28.3,1.93,1.03,2.26,1.59.41.7.18,1.6-.51,2.03l-96.63,59.58c9.82-5.38,20.36-11.09,31.5-17.09,6.21-3.35,12.59-6.79,18.84-10.19.48-.28.94-.56,1.41-.84,2.53-1.63,5.02-3.23,7.45-4.8,39.3-25.31,42.72-27.27,44.29-26.89.4.1.8.39,1,.75.2.35.4.93.18,1.69-.35,1.23-2.2,3.01-5.69,5.49.64-.04,1.16,0,1.6.1.96.24,1.46.79,1.7,1.21.75,1.29-.14,1.87-2.3,3.28-1.21.79-3,1.93-5.29,3.37-.5.31-1.03.65-1.58,1,.76-.08,1.43-.05,2,.07,1.31.29,1.98,1.04,2.31,1.62.83,1.44.38,1.73-7.21,6.63-.14.09-.27.18-.41.27,4.43-1.9,6.35-2.09,7.48-1.82.9.22,1.37.75,1.6,1.15.2.34.39.91.18,1.66-.35,1.25-2.24,3.09-5.83,5.66,1.28-.3,2.18-.33,2.81-.18.85.21,1.29.71,1.51,1.09.31.54.61,1.44.26,2.67-.3,1.05-1.09,2.26-2.34,3.64.65-.37,1.01-.58,1.04-.59.7-.4,1.59-.17,2.02.51.43.69.23,1.58-.44,2.04-.32.21-32.27,21.71-65.48,42.54-40.49,25.41-59.21,35.04-68.19,38.57-1.54,1.16-2.73,2.14-3.54,2.92,11.07-3.19,61.08-34.59,91.77-53.86,37.79-23.73,41.38-25.71,42.93-25.33.4.1.79.39,1,.74.82,1.42-.33,2.17-3.73,4.39-2.06,1.34-5.09,3.25-9.27,5.83-7.83,4.83-18.87,11.51-30.55,18.58-29.49,17.85-73.12,44.27-80.37,50.44,1.1-.01,3.24-.4,7.62-2.23,6.91-6.46,27.4-19.33,77.28-48.38,9.79-5.7,19.23-11.2,24.99-14.71,3.7-2.54,5.87-4.06,5.94-4.11.34-.24.78-.33,1.18-.23.41.09.76.35.97.71.79,1.37.27,2.04-6.33,6.07-3.33,2.3-7.73,5.32-12.85,8.8,12.28-6.74,13.23-6.5,13.91-6.32.44.11.8.38,1.02.77.4.69.19,1.58-.49,2.01l-84.51,54.52c16.37-8.7,47.06-27.71,75.11-46.05.35-.23.77-.3,1.17-.2.4.1.75.35.95.71.76,1.32-.21,2-2.81,3.81-1.48,1.04-3.64,2.5-6.61,4.48-5.52,3.68-12.98,8.58-20.88,13.76-6.49,4.26-13.95,9.15-20.62,13.57,13.82-8.06,32.02-19.09,45.32-27.31.35-.21.76-.28,1.15-.18.39.1.73.35.93.7.84,1.46.23,2.4-7.3,7.64-3.9,2.71-9.14,6.18-14.37,9.63.16,0,.31.02.44.05.5.12.91.42,1.15.84.41.72.17,1.63-.55,2.05-.42.24-.91.26-1.33.08-2.92.67-16.86,9.8-21.53,12.86q-4.63,3.03-5.34,2.87c-.4-.1-.75-.35-.95-.71-.81-1.4-.71-2.24,9.22-9.06-24.83,14.66-26.08,14.35-27.01,14.11-.44-.11-.8-.38-1.02-.76-.64-1.12.02-1.91,2-3.38-13.14,7.33-16.94,8.38-18.46,8.38Zm.35-29.33c-15.99,8.74-30.01,16.7-33.22,19.8.9,0,2.59-.33,5.76-1.56,4.61-3.49,12.8-9.07,27.46-18.24Zm2.88-12.41c-7.43,4.22-14.46,8.29-20.77,12.08-13.63,8.19-20.55,13.12-24.05,16.07,4.23-2.62,10.59-6.64,17.85-11.22,9.69-6.11,18.66-11.74,26.97-16.94Zm46.82.01c-15.19,8.93-32.13,19.06-44.11,26.89,3.14-1.73,6.68-3.74,10.68-6.09,3.06-1.84,6.25-3.76,9.53-5.72,4.74-2.9,9.98-6.16,15.78-9.86,2.72-1.73,5.44-3.48,8.12-5.22Zm-27.03-22.94c-33.76,20.71-66.78,40.89-76.19,46.64,10.29-1.02,44.64-24.7,76.19-46.64Zm38.09,2.25c-25.75,15.14-51.71,30.76-69.37,42.11,10.76-5.86,26.04-14.8,47.72-28.37,7.37-4.61,14.69-9.27,21.65-13.74Zm-121.7,38.49c-.38.42-.7.82-.97,1.2.95-.54,2.16-1.25,3.6-2.11-.94.35-1.82.66-2.64.91Zm-1.09-3.02l-1.14.7c.19-.05.4-.11.61-.17.17-.18.35-.35.53-.53Zm74.19-42.17c-27.09,14.81-53.24,29.65-66.29,39.34,5.34-2.46,12.97-6.39,23.9-12.62,2.28-1.45,4.63-2.93,7-4.44,13.01-8.25,24.77-15.65,35.38-22.28Zm2.69-13.27c-39.65,24.16-74.12,45.45-83.74,52.1,3.17-.97,10.01-4.09,24.69-13.17,15.05-9.31,33.97-22.04,53.99-35.53,1.71-1.15,3.39-2.28,5.06-3.41Zm-69.67,32.29c-.36.2-.72.41-1.07.61-12.86,7.34-19.36,11.88-22.62,14.64,5.04-3.26,13.34-8.63,23.69-15.25Zm-29.6,3.9c-1.7,1.56-2.99,2.94-3.8,4.13,3.2-2.02,8.8-5.55,16.12-10.14-5.96,3.14-9.8,4.96-12.32,6.01Zm-.74-5.43c-1.46,1.42-2.43,2.63-2.83,3.61.56-.15,1.28-.41,2.17-.76,2.58-2.31,5.89-4.91,9.83-7.75-3.55,2.01-6.6,3.65-9.17,4.91Zm124.94-69.34c-37.78,20.51-87.49,48.09-112.76,65.87,23.41-12.43,68.54-39.11,112.76-65.87Zm65.26,16.68c-2.54.5-9.75,3.42-30.17,15.66-13.86,8.31-30.59,18.94-47.45,29.74,4.01-2.23,8.16-4.52,12.42-6.87,26.82-14.81,59.76-33,65.2-38.53Zm-141.3,1.99c-8.48,4.96-16.63,9.76-24.12,14.27-27.86,16.75-37.75,23.95-40.98,27.04,8.51-3.72,36.19-22.11,63.06-39.95.68-.45,1.36-.9,2.04-1.36Zm138.75-8.73c-9.88,1.38-44.12,25.2-74.53,46.36-.99.69-1.98,1.38-2.96,2.06,35.36-21.81,68.79-42.57,77.49-48.42Zm-136.36.17c-15.19,8.33-29.63,16.38-41.71,23.52-24.29,14.34-30.73,20.19-32.33,22.48,7.4-3.2,36.12-21.65,63.97-39.54,3.4-2.18,6.75-4.33,10.07-6.46Zm135.33-20.4c-12.44,2.56-55.16,31.33-89.98,54.78-4.39,2.96-8.62,5.8-12.69,8.53l102.67-63.31Zm-93.67,3.56c-15.15,9.82-30.51,20.02-44.43,29.26-14.18,9.42-25.68,17.02-34.9,23,15.08-8.96,35.45-20.72,61.67-35.79,4.76-2.74,9.65-5.54,14.58-8.38,23.01-13.7,40.32-23.75,53.35-31.11,18.09-10.81,31.57-19.34,34.09-22.29-.09-.04-.2-.07-.33-.1-1.72-.4-4.63.2-8.49,1.64-9.55,5.97-27.87,16.53-60.87,35.39-4.79,2.74-9.7,5.54-14.66,8.38Zm-104.87,46.6c-3.57,2.47-5.86,4.29-7.32,5.64,4.76-2.98,12.93-8.07,23.26-14.47-6.53,3.82-11.82,6.76-15.94,8.84Zm54.44-35.79c-28.86,15.31-57.5,30.8-62.73,36.31,1.4-.44,3.51-1.39,6.22-2.76,9.09-6.35,23.73-14.75,43.09-25.24,4.39-2.7,8.89-5.49,13.42-8.31Zm139.17-18.85c-4.73,1.83-12.74,5.57-26.34,13.03-14.46,7.94-33.37,19.04-56.27,33.06,20.21-10.4,40.91-21.14,57.51-30.54,8.08-4.88,15.09-9.11,20.48-12.36,1.67-1.11,3.22-2.18,4.62-3.19Zm-85.05-31.3c-42.81,25.13-85.9,50.99-109.48,66.38,24.58-10.88,73.29-42.45,109.48-66.38Zm-26.33,39.93c-12.51,7.53-26.35,15.96-41.55,25.32,14.94-8.38,32.5-17.95,52.15-28.6,2.37-1.28,4.73-2.56,7.07-3.83,8.84-5.57,17.2-10.78,25-15.56-11.96,6.47-25.6,13.68-40.75,21.65-.64.34-1.28.67-1.92,1.01Zm16.03,22.35s-.1.06-.15.09c.27-.15.54-.31.81-.46-.22.12-.44.24-.66.37Zm2.86-26.7c-13.52,8.52-27.35,17.38-40.52,25.84,12.97-7.57,27.41-15.87,42.99-24.8,9.33-6.05,18.14-11.67,26.31-16.75-8.68,4.79-18.3,10.02-28.78,15.71Zm-47.88,10.21c-5.51,3.52-10.62,6.78-15.37,9.79,8.22-4.4,17.39-9.27,27.48-14.6,7.96-4.21,16.26-8.6,24.56-13.03,40.33-25.28,66.15-41.19,79.76-48.12,1.14-1.22,1.87-2.27,2.12-3.15.05-.18.07-.33.05-.45-.76-.19-2.95.11-9.24,3.05-16.9,12.95-58.91,37.59-109.36,66.5Zm5.76-40.74c-1.05.54-2.1,1.09-3.17,1.65-18.98,9.86-36.91,19.18-50.4,26.85-16.86,9.59-20.93,13.38-21.8,14.82,2.1-.25,9.16-2.85,32.8-16.96,12.61-7.52,27.38-16.76,42.56-26.35Zm50.14-26.68c-12.51,7.18-27.5,16.21-44.78,26.98-18.71,11.66-37.24,23.58-51.9,33.12,15.47-8.49,34.95-19.32,54.28-30.43,24.73-14.21,44.37-26.1,58.38-35.32,7.01-4.61,12.09-8.23,15.76-11.04-4.31,1.9-10.19,4.78-18.21,9.13-1.72.93-3.51,1.92-5.37,2.95-2.58,1.49-5.3,3.02-8.16,4.61Zm71.5,33.46c-5.06,2.6-12.21,6.59-22.34,12.67-6.7,4.02-14.06,8.57-21.82,13.44,10.72-5.84,21.1-11.5,29.94-16.42,5.88-3.83,10.53-7.02,14.22-9.69Zm-89.07,18.62c-1.98,1.24-3.95,2.48-5.89,3.7-1.96,1.23-3.9,2.44-5.79,3.63.77-.4,1.54-.81,2.31-1.22,6.11-3.68,11.83-7.11,17.2-10.31-2.56,1.38-5.17,2.77-7.82,4.19Zm-57.36-21.91c-5.36,3.17-10.56,6.27-15.49,9.26-12.5,7.58-20.95,13.04-26.64,16.96,10.28-6.46,25.39-15.91,42.13-26.22Zm111.77-59.74c-9.14.51-85.39,46.55-143.97,83.25,12.64-7.27,30.45-16.59,52.43-28.01,11.53-5.99,23.89-12.41,35.67-18.72,26.69-16.9,43.38-27.25,52.7-32.15,1.71-1.6,2.78-2.98,3.11-4.09.03-.11.05-.2.06-.28Zm56.21,74.45c-1.94,1.01-5.14,2.78-9.36,5.16,3.47-1.32,5.37-1.7,6.53-1.75,1.35-1.28,2.31-2.42,2.84-3.41Zm-155.17-25.81c-.83.53-1.66,1.06-2.48,1.59,13.73-8.01,29.01-16.77,45.27-26.06,20.5-11.71,40.04-22.88,46.75-27.31-3.53.91-11.64,4.36-30.21,15.11-12.73,7.91-29.99,18.58-51.35,31.75-2.66,1.64-5.33,3.29-7.98,4.92Zm-4.4-28.95c-22.66,13.43-38.39,23.7-46.64,30.06,10.08-6.67,27.41-18.02,45.17-29.14.47-.29.96-.6,1.47-.92Zm135.31,22.7c-2.45,1.87-5.68,4.06-9.65,6.57,3.93-1.95,7.43-3.53,10.46-4.67,3.01-1.86,5.29-3.34,6.68-4.35-1.25.15-3.49.76-7.48,2.46Zm-3.38-3.44c-2.15,1.65-4.74,3.44-7.73,5.4,3.6-1.83,6.81-3.35,9.59-4.52,1.82-1.38,2.85-2.32,3.43-2.97-1.14.32-2.89,1-5.29,2.09Zm-3.23-5.47c-2.92,2.94-7.6,6.49-13.82,10.61,7.32-3.92,12.37-6.39,15.87-7.95,3.3-2.54,5.39-4.63,5.94-6.12-1.44.28-4.21,1.5-7.99,3.46Zm-9.7-5.96c-.23.14-.46.29-.69.44.1-.05.2-.09.3-.14.13-.1.27-.2.4-.3Zm-66.18-34.65c-9.53,4.36-26.51,13.9-49.94,28.46,19.61-11.52,39.04-22.41,49.94-28.46Zm53.64,16.92c-1.38,1.31-3.06,2.75-5.02,4.3,3.08-2.03,5.4-3.62,6.84-4.69-.47.07-1.06.19-1.83.39Zm-127.64.98s0,0,0,0c0,0,0,0,0,0Zm0,0s0,0,0,0c0,0,0,0,0,0Zm123.07-3.95c-.85.78-1.81,1.61-2.89,2.46,2.62-1.1,4.62-1.8,6.16-2.24,1.4-1.38,2.07-2.29,2.38-2.87-1.21.4-3.14,1.31-5.65,2.65Z" fill={state.brand}/>
  <path d="m249.31,269.62s-.09,0-.13-.02c-.13-.03-.25-.12-.32-.24-.13-.23-.06-.52.15-.66,2.15-1.47,4.66-3.18,7.08-4.84l-2.19,1.27c-1.96,1.15-3.56,2.06-4.36,2.52-.24.14-.54.05-.68-.19-.14-.24-.05-.54.18-.68l4.31-2.49c4.87-2.86,9.45-5.72,12.25-7.7l-13.36,7.72q-3.56,2.05-3.81,1.62c-.16-.28-.27-.47.56-1.16-.57.23-.98.34-1.18.29-.13-.03-.33-.17-.4-.29-.22-.38-.69-1.2,9.22-8.25-2.22,1.36-4.95,3.16-7.49,4.94-.11.08-.26.11-.4.08-.14-.03-.25-.12-.32-.24-.17-.3-.46-.8,3.23-3.59-.62.38-1.21.74-1.76,1.07q-5.25,3.19-5.54,3.11c-.13-.03-.24-.12-.31-.24-.13-.23-.06-.53.17-.67,3.73-2.36,7.61-4.88,10.86-7.08-5.22,3.19-10.15,6.01-10.96,5.82-.13-.03-.3-.16-.37-.27-.13-.22-.07-.51.14-.66,2.1-1.49,4.87-3.46,7.16-5.13-.07-.06-.13-.12-.18-.21-.12-.2-.15-.25.78-1.65-5.16,3.18-5.47,3.1-5.68,3.05-.13-.03-.26-.13-.33-.24-.14-.24-.06-.54.18-.68.08-.05.18-.07.26-.07.7-.26,4.48-2.55,7.03-4.14.2-.13.46-.09.63.08.16.17.19.43.05.63,0,0-.54.79-1.07,1.57.23-.18.46-.37.64-.52,1.23-1.01,1.85-1.48,2.36-1.39.19.03.35.15.45.31.25.43.35.61-6.88,5.8,4.08-2.37,9.77-5.9,13.83-8.49.12-.07.26-.1.39-.06.13.03.25.12.31.24.16.28.41.71-3.31,3.48,1.34-.71,1.72-.81,1.94-.75.13.03.27.13.33.25.13.23.06.53-.16.67-1.62,1.03-3.27,2.11-4.84,3.16,1.69-.95,3.06-1.58,3.61-1.45.2.04.36.16.46.33.13.23.06.52-.15.66-5.27,3.61-10.83,7.71-12.71,9.51,2.65-1.23,9.67-5.55,15.94-9.64.11-.08.26-.1.39-.07.13.03.25.12.32.24.32.55.35.6-5.8,4.52,3.15-1.82,6.37-3.68,8.81-5.09.12-.07.25-.09.38-.05.13.03.24.12.3.23.07.12.13.31.06.58-.14.5-1.07,1.36-2.48,2.42.04.03.07.08.1.12.09.16.15.26-.23.61l.04.08-.42.24c-.38.3-.95.71-1.8,1.31,2.27-1.29,3.27-1.69,3.7-1.58.13.03.31.16.38.28q.28.48-4.12,3.62c-.84.6-1.89,1.35-2.97,2.13,6.13-3.7,6.62-3.58,6.81-3.53.13.03.28.14.35.26.32.56-.16,1.13-2.36,2.73.13.04.26.13.32.25.14.24.06.54-.18.68-.08.05-.18.07-.27.07-.33.15-1.3.8-2.02,1.29-2.51,1.68-3.06,1.98-3.49,1.88-.13-.03-.3-.15-.36-.27-.34-.59.12-.97,3.46-3.32.49-.34,1.05-.74,1.6-1.14-2.53,1.45-6.34,3.78-9.85,5.99-.11.07-.25.1-.39.06-.13-.03-.25-.12-.31-.24-.37-.64-.07-1.12,9.01-7.62-2.67,1.57-6.03,3.69-8.47,5.23-5.08,3.2-5.79,3.61-6.11,3.61Z" style="fill: #03081b;"/>
  <path d="m37.56,64.44s-.09,0-.13-.02c-.13-.03-.26-.13-.33-.24-.53-.92,1.05-2.15,10.54-8.27,2.14-1.38,4.6-2.96,6.31-4.15-3.84,2.09-11.08,6.57-15.94,9.67-.11.07-.26.09-.39.06-.13-.03-.25-.12-.31-.24-.58-1.01,1.19-2.34,11.16-8.38,3.52-2.14,8.06-4.88,10.07-6.45-2.11,1.15-6.08,3.67-9.43,5.8-8.21,5.22-10.71,6.7-11.46,6.53-.13-.03-.3-.16-.37-.27-.42-.73.09-1.18,7.97-5.86,3.62-2.15,8.86-5.26,10.31-6.63-2.05.77-8.01,4.68-12.11,7.38-6.71,4.41-8.47,5.5-9.14,5.34-.13-.03-.3-.15-.37-.27q-.29-.5,5.9-4.54c1.57-1.02,3.51-2.29,5.51-3.62-10.11,6.43-16.55,10.15-18.07,9.79-.28-.07-.43-.23-.5-.36-.23-.39-.41-.72,4.29-3.93-.1,0-.2-.01-.28-.03-.36-.08-.55-.29-.64-.45-.08-.14-.16-.37-.07-.68.17-.64,1.25-1.68,2.92-2.98-2.16,1.24-3.36,1.93-4.06,2.27-.12.08-.25.16-.37.24l-.04-.06c-.49.2-.55.09-.67-.11-.13-.23-.06-.52.16-.67,8.92-5.81,21.84-14.31,25.57-17.01-.18.06-.37.14-.58.23-2.15,1.49-5.13,3.45-9.28,6.02-7.42,4.6-15.07,9.02-15.15,9.06-.23.14-.53.06-.67-.17-.14-.23-.08-.53.14-.68,3.34-2.3,17.99-12.29,24.3-14.99,2.09-1.45,3.64-2.62,4.4-3.38-2.09,1.06-7.09,4.27-11.59,7.15-11,7.05-16.34,10.33-17.59,10.02-.19-.05-.35-.16-.44-.32-.07-.12-.14-.31-.06-.57.34-1.2,4.44-3.51,13.71-8.5,6.18-3.32,15.3-8.24,16.58-10.01-3.41,1.09-21.77,12.33-33.18,19.56-.11.07-.25.1-.39.06-.13-.03-.25-.12-.31-.24-.64-1.11,2.38-3.4,22.49-15.54,3.02-1.82,5.93-3.58,7.79-4.75-4.68,2.23-15.54,9.14-22.54,13.6-10.18,6.48-11.16,7.02-11.66,6.89-.13-.03-.27-.13-.34-.25-.13-.23-.06-.53.17-.67,2.33-1.46,5.61-3.53,9.23-5.81-3.8,2.1-6.75,3.67-7.69,4.17-.24.13-.54.04-.67-.2-.13-.24-.05-.54.19-.68l28.75-16.6c1.84-1.22,3.27-2.25,4.17-3.03q-32.1,18.57-32.37,18.52c-.13-.03-.24-.12-.3-.23-.17-.29-.19-.58.63-1.28-.18.03-.32.04-.43,0-.2-.05-.36-.16-.45-.33-.35-.6-.88-1.52,12.09-9.88,2.9-1.87,5.84-3.7,8.16-5.13-4.34,2.42-11.09,6.74-17.35,11.03-.12.08-.26.11-.39.08-.14-.03-.25-.12-.32-.24-.21-.37-.48-.83,2.12-2.85-5,3.04-5.05,3.03-5.33,2.96-.13-.03-.25-.12-.31-.24-.14-.24-.06-.54.18-.68,4.26-2.56,9.67-5.88,14.44-8.93-6.24,3.81-12.48,7.37-13.52,7.13-.18-.04-.32-.15-.41-.3-.13-.23-.06-.52.16-.67,2.44-1.6,5.49-3.63,8.31-5.52-.18-.06-.33-.17-.43-.34-.15-.23-.2-.3,1.56-2-4.49,2.73-4.85,2.64-5.04,2.59-.13-.03-.27-.13-.34-.25-.14-.24-.06-.54.18-.68.1-.06.21-.07.31-.06.83-.28,5.42-3.07,8.51-5.03.22-.14.5-.09.66.12.16.2.14.49-.05.67-.67.63-1.87,1.77-2.93,2.77.69-.49,1.42-1.03,1.98-1.45,2.64-1.97,3.69-2.7,4.35-2.57.19.04.35.15.45.32.27.46.43.74-12.01,8.99,5.42-3.06,13.94-8.39,19.87-12.21.11-.07.25-.1.39-.07.13.03.25.12.32.24.21.37.43.74-2.39,2.86,1.17-.59,1.76-.78,2.01-.72.13.03.28.14.35.26.14.24.06.54-.18.68-1.56.9-3.14,1.83-4.69,2.75,2.06-1.09,3.65-1.74,4.29-1.59.29.07.44.23.52.36.14.24.06.54-.18.68-10.83,6.47-22.47,14.04-24.19,16.21.76-.21,2.22-.92,4.14-1.96,2.61-1.64,6.49-3.98,12.23-7.38,1.11-.66,2.26-1.34,3.37-2,3.15-1.99,6.23-3.97,8.87-5.69.12-.08.26-.1.39-.07.13.03.25.12.32.24.35.6.42.73-8.82,6.24-.21.13-.42.26-.63.4,4.77-2.76,9.53-5.51,13.22-7.64.12-.07.25-.09.38-.05.13.03.24.12.3.23.08.14.16.39.07.72-.13.44-.69,1.07-1.58,1.84.02.02.03.04.05.07.11.19.17.3-.21.64h0c1.22-.54,2.03-.75,2.45-.65.27.07.41.23.48.35q.36.62-9.86,6.8c5.73-3.34,10.4-5.82,11.26-5.62.17.04.32.15.4.29.09.15.17.4.08.73-.08.27-.29.58-.62.93.13.04.27.16.33.26.24.42.57.98-3.24,3.82.28.08.43.25.51.38.25.43.39.69-12.46,9.18,1.97-1.14,4-2.32,6.03-3.49,5.44-3.25,10.43-6.08,12.39-7.19.24-.14.54-.05.68.19.14.24.05.54-.18.68,0,0-5.3,3.08-11.68,6.77-10.25,6.12-18.64,11.67-19.15,13.12.44.12,1.5-.26,2.94-.98,2.24-1.48,5.16-3.35,8.93-5.74,4.59-2.91,9.24-5.79,12.41-7.76,3.78-2.53,4.04-2.62,4.37-2.54.13.03.27.13.33.25.14.23.06.53-.17.68-1.25.77-2.57,1.58-3.93,2.42-.79.53-1.66,1.11-2.53,1.7-7.37,4.96-14.31,9.54-18.63,11.68-3.01,1.98-5.33,3.57-6.44,4.46,3.85-1.31,17.82-10.37,23.4-13.98q4.91-3.18,5.21-3.11c.13.03.25.12.32.24.28.49-.05,1.14-3.59,3.69,1.38-.73,2.23-1.01,2.68-.91.2.05.37.17.46.33.19.34.13.71-.36,1.25,2.23-1.32,3.21-1.75,3.63-1.64.13.03.3.16.37.27.5.87-.87,2.07-6.26,5.44,1.24-.63,2.11-.98,2.41-.91.13.03.3.15.37.27.43.74-.19,1.31-8.8,6.86-1.36.88-2.89,1.86-4.34,2.81.02,0,.03-.02.04-.03,8.83-5.59,12.67-7.89,13.62-7.66.13.03.33.17.39.29q.27.47-4.15,3.81c-.51.39-1.09.82-1.7,1.28.65-.34.99-.42,1.23-.36.13.03.31.16.38.28.14.24.06.54-.18.68-.13.08-.29.09-.42.04-.64.19-2.96,1.73-4.24,2.58-2.35,1.56-2.46,1.6-2.76,1.53-.13-.03-.26-.12-.33-.24-.32-.56-.4-.69,7.42-6.58.39-.29.79-.6,1.18-.89-2.83,1.62-7.01,4.26-9.9,6.1-5.63,3.57-6.48,4.06-6.86,4.06Zm1.57-22.26c-4.39,2.37-9.01,4.92-10.57,6.18,1.84-.75,6.16-3.4,10.57-6.18Zm-14.28-12.56s0,0,0,0c0,0,0,0,0,0Zm0,0s0,0,0,0c0,0,0,0,0,0Zm0,0s0,0,0,0c0,0,0,0,0,0Zm0,0s0,0,0,0c0,0,0,0,0,0Zm0,0s0,0,0,0t0,0Z" fill={state.mid}/>
  <path d="m45.22,289.58c-.06,0-.12,0-.16-.02-.18-.04-.33-.15-.41-.3-.19-.33-.38-.67,2-2.44-.19-.09-.3-.22-.36-.33-.07-.12-.09-.35-.06-.48.23-.85,2.85-2.41,12.38-7.75,7.04-3.94,18.63-10.42,19.57-12.32-3.18.49-24.29,13.82-32.39,18.93q-6.12,3.86-6.42,3.8c-.13-.03-.25-.12-.32-.24-.08-.14-.15-.36-.07-.66.14-.51.84-1.25,2.04-2.19-3.54,2.12-5.37,3.01-5.99,2.86-.18-.04-.32-.15-.41-.3-.13-.23-.06-.53.17-.67,1.18-.74,2.56-1.6,4.08-2.54-.53.14-.97.17-1.31.09-.45-.1-.69-.36-.8-.56-.14-.23-.06-.53.17-.68,9.15-5.61,23.15-14.21,33.41-20.55,1.02-.66,1.95-1.23,2.79-1.73,3.78-2.34,6.83-4.24,8.62-5.37-6.14,2.49-25.68,14.87-35.71,21.22-11.44,7.25-11.84,7.45-12.27,7.34-.13-.03-.26-.12-.32-.24-.1-.17-.19-.45-.08-.84.09-.33.34-.71.75-1.15-.09,0-.17-.02-.25-.03-.35-.09-.53-.29-.62-.44-.13-.23-.06-.53.17-.67l.74-.46c-.97.4-1.69.56-2.13.46-.35-.08-.53-.28-.62-.44-.35-.6-.44-.76,24.03-15.89.73-.45,1.47-.91,2.2-1.36-1.71.88-3.5,1.8-5.34,2.74-2.57,1.32-5.35,2.74-8.12,4.18-6.83,4.27-13.63,8.64-19.38,12.39-.12.08-.26.1-.39.07-.13-.03-.25-.12-.32-.24-.1-.17-.19-.45-.08-.82.06-.21.19-.44.4-.69-.44.25-.79.45-1.06.6l-.69.42-.02-.04c-.26.12-.3.11-.36.1-.19-.05-.34-.21-.37-.41-.03-.2.06-.39.24-.5l59.79-36.33c-9.89,4.71-38.93,22.46-58.96,35.09-.11.07-.25.1-.39.06-.13-.03-.25-.12-.31-.24-.1-.18-.21-.49-.09-.91.24-.85,1.49-2.11,3.51-3.68-.07-.16-.11-.4-.03-.69.01-.04.02-.08.04-.11-1.38.66-2.26.94-2.71.83-.27-.06-.41-.22-.48-.34-.07-.12-.08-.26-.05-.39s.13-.24.25-.3c2.69-1.43,5.41-2.88,8.1-4.34,3.87-2.65,9.7-6.08,16.75-10.07.27-.17.53-.34.79-.51,16.76-10.84,27.09-17.39,29.2-16.87,0,0,0,0,.01,0,2.14-1.56,3.46-2.72,3.74-3.38-4.5,1.16-41.01,23.1-65.19,38.02-.12.07-.25.09-.38.06-.13-.03-.24-.12-.31-.23-.61-1.05,2.13-2.97,30.47-19.44,13.72-7.97,30.68-17.82,32.48-19.86-.02,0-.03-.01-.05-.01-.74-.18-2.18.26-4.14,1.14-.53.32-1.12.68-1.77,1.06-3.93,2.34-9.45,5.53-15.3,8.9-.56.32-1.13.65-1.71.99-5.61,3.6-11.48,7.49-16.69,10.95-14.2,9.43-19.67,12.98-20.88,12.68-.18-.04-.33-.15-.42-.3-.24-.42-.51-.88,2.83-3.29-4.09,2.5-5.71,3.29-6.22,3.17-.13-.03-.3-.15-.37-.27-.09-.16-.18-.42-.08-.77.22-.8,1.54-2.01,3.79-3.6-.1.04-.21.05-.32.03-.13-.03-.25-.12-.31-.24-.1-.17-.19-.44-.08-.81.2-.69,1.15-1.64,2.78-2.84-.08.01-.14,0-.19-.02-.19-.05-.34-.16-.43-.32-.07-.12-.14-.32-.06-.59.04-.13.12-.28.25-.45-.97.46-1.57.64-1.88.56-.18-.04-.33-.15-.41-.3-.11-.2-.19-.33.19-.68-2.51,1.16-4.3,1.73-5.12,1.53-.38-.09-.58-.31-.67-.47-.23-.39-.49-.84,5.09-4.6-.29-.14-.45-.34-.54-.5-.1-.18-.2-.49-.08-.92.14-.49.63-1.13,1.41-1.9-.47.26-.84.46-1.12.61-.41.25-.63.38-.65.39l-.03-.05c-.27.13-.31.11-.36.1-.19-.05-.34-.21-.37-.41s.06-.39.23-.5c4.05-2.46,8.54-5.2,13.1-8,2.46-1.56,5.16-3.22,7.97-4.9,2.16-1.33,4.29-2.65,6.36-3.93-11.61,6.79-23.42,13.22-25.88,14.56-.24.13-.53.05-.67-.18s-.07-.52.15-.67c.74-.5,2.45-1.66,4.8-3.22-2.17,1.11-3.61,1.64-4.22,1.49-.28-.07-.43-.24-.5-.36-.08-.14-.16-.38-.07-.69.1-.35.46-.77,1.05-1.28-1.13.71-2.23,1.41-3.29,2.08-.11.07-.25.1-.39.06-.13-.03-.25-.12-.31-.24-.25-.43-.54-.94,2.91-3.46-4.33,2.68-5.5,3.26-5.94,3.15-.13-.03-.28-.14-.35-.26-.14-.23-.06-.54.17-.68,2.97-1.81,6.41-3.91,10.06-6.15-3.89,2.07-6.8,3.58-7.87,4.13-.24.12-.54.03-.67-.2-.13-.24-.05-.54.19-.67l46.79-27.02c.87-.68,1.51-1.26,1.88-1.71-3.21,1.86-13.11,7.58-23.02,13.31-6.02,3.48-12.05,6.96-16.57,9.57-2.26,1.3-4.15,2.39-5.46,3.15q-2.5,1.44-2.76,1.01c-.09-.15-.11-.33-.06-.5.07-.25.38-.61.96-1.09,0,0-.01,0-.02,0-.29-.07-.44-.24-.52-.37-.08-.14-.16-.38-.07-.7.23-.84,2-2.39,4.66-4.32-.22.15-.43.29-.65.44-.11.08-.26.1-.39.07-.14-.03-.25-.12-.32-.24-.08-.14-.15-.36-.07-.67.11-.38.58-.93,1.33-1.6-3.29,1.98-3.38,1.95-3.62,1.89-.13-.03-.25-.12-.31-.24-.14-.24-.06-.54.18-.68,2.14-1.24,4.49-2.61,6.93-4.06,1.05-.64,2.17-1.32,3.3-2.01.37-.23.74-.45,1.1-.67-4.67,2.68-8.4,4.58-9.3,4.35-.26-.06-.39-.21-.46-.33-.13-.23-.06-.53.17-.67,2.9-1.82,6.29-3.97,9.56-6.06-.04,0-.08,0-.12-.02-.23-.05-.42-.18-.53-.38-.17-.3-.21-.36,2.05-2.18-3.29,1.91-3.66,1.83-3.81,1.79-.13-.03-.28-.14-.35-.26-.14-.24-.06-.54.18-.68.11-.06.24-.08.36-.05.98-.28,6.56-3.7,10.31-6.11.22-.14.52-.09.68.13.15.22.11.52-.1.68-1.66,1.32-4.19,3.33-6.07,4.82,1.39-.9,3.08-2.12,4.4-3.07,4.13-2.98,5.9-4.18,6.75-4,.2.04.37.16.47.34.29.5.52.9-19.27,13.39,6.56-3.47,19.48-11.56,28.15-17.2.12-.07.26-.1.39-.07.13.03.25.12.32.24.19.33.4.7-1.51,2.26,1.23-.6,1.89-.81,2.17-.74.13.03.3.15.36.27.07.12.08.25.05.38s-.12.24-.24.3c-.7.39-1.4.77-2.11,1.17,1.75-.72,2.22-.61,2.49-.55.33.08.5.26.58.41.07.12.08.25.05.38-.04.13-.12.24-.24.3-17.14,9.63-35.42,20.89-36.51,23.33.32-.01.83-.17,1.52-.45,3.62-2.46,10.81-6.66,22.45-13.34,3.21-1.84,6.58-3.78,9.53-5.5,3.01-1.92,5.89-3.78,8.49-5.48.12-.08.26-.1.39-.07.13.03.25.12.32.24.07.12.09.3.05.43-.16.58-2.26,1.96-8.89,5.83-.11.07-.23.15-.34.22,4.95-2.86,9.68-5.6,13.57-7.85.12-.07.25-.09.38-.05.13.03.24.12.3.23.1.17.19.46.08.86-.11.37-.43.82-.94,1.35.01.02.02.03.03.05.04.06.07.12.08.18,1.31-.53,2.23-.76,2.73-.64.33.08.49.27.58.41.26.45.35.6-3.04,2.65,2.77-1.4,4.68-2.17,5.28-2.02.25.06.39.21.45.33.11.19.22.51.09.95-.03.09-.07.19-.12.29.02,0,.04,0,.06.01.17.04.32.15.4.29.09.15.17.42.07.78-.16.57-.94,1.43-2.19,2.48.2.11.32.25.38.37.24.42.39.68-7.6,5.78,7.17-3.94,12.88-6.97,14.58-7.86.24-.13.54-.04.67.2.13.24.05.54-.19.67-28.58,16.59-42.97,24.91-50.25,29.08-3.4,2.38-5.59,4.24-5.88,5.25-.03.09-.02.13-.01.14.01.02.06.1.25.14.19.04.41.05.68.02,4.35-2.87,11.55-7.35,23.45-14.47,10.11-6.05,20.36-12.05,26-15.34,3.56-2.32,4.37-2.71,4.74-2.63.13.03.27.13.34.25.14.24.06.54-.18.68-1.4.81-2.84,1.65-4.32,2.51-2.21,1.44-5.09,3.36-8.04,5.33-18.6,12.43-35.75,23.61-41.61,24.6-3.01,1.97-5.02,3.41-5.64,4.08,3.72.67,35.75-20.07,47.99-27.99,9.5-6.14,9.53-6.14,9.89-6.05.13.03.25.12.32.24.24.41-.1,1.05-1.21,2.07.78-.26,1.36-.35,1.73-.27.33.08.5.27.59.42.07.12.14.3.14.54,2.36-1.26,3.76-1.82,4.31-1.68.19.05.34.16.44.32.1.17.19.46.08.85-.18.62-.9,1.42-2.14,2.4.09,0,.17,0,.24.02.25.06.38.21.44.32.07.13.15.34.07.62-.03.09-.07.19-.14.3,1.55-.64,2.66-.91,3.25-.77.36.09.55.29.64.45.19.33.31.53-1.22,1.58.39-.05.72-.04.98.02.49.11.74.39.86.6.26.46-.17,1.14-2.63,2.87,2.76-1.41,4.59-2.18,5.07-2.06.17.04.31.15.4.29.09.16.18.43.07.8-.24.84-1.76,2.25-4.15,4.03,0,.04,0,.07-.02.1-.14.51-1.56,1.48-6.03,4.03-3.4,2.19-7.42,4.63-11.66,7.12,2.23-1.23,4.47-2.45,6.69-3.67,3.11-1.7,5.96-3.25,7.83-4.31.79-.49,1.57-.97,2.33-1.45.11-.07.25-.09.39-.06.13.03.24.12.31.23.07.12.09.27.05.4-.03.1-.05.18-.28.35,6.51-3.45,7.27-3.26,7.66-3.16.26.06.39.22.46.33.14.24.06.54-.17.68l-18.17,11.04c15.49-8.96,15.7-8.91,15.96-8.84.13.03.24.12.31.24.12.2.23.54.09,1-.33,1.13-2.19,2.71-5.33,4.74.46-.1.84-.13,1.13-.06.41.09.62.33.73.51.13.23.06.53-.17.67l-28.47,17.78c4-2.25,8.51-4.74,13.4-7.41,1.45-.79,2.93-1.6,4.4-2.41,1.47-.94,2.84-1.82,4.07-2.62,11.63-7.49,12.56-8.02,13.05-7.9.13.03.26.13.33.25.06.11.13.3.06.54-.17.62-1.49,1.65-4.23,3.33.36-.08.64-.09.84-.04.3.07.45.25.53.38.26.45.28.48-5.94,4.35.03,0,.06,0,.08.02.41.09.62.33.73.51.19.33.28.48-3.33,2.85,2.16-1.12,3.57-1.66,4.17-1.51.28.07.42.23.49.35.09.15.11.34.06.52-.17.61-1.53,1.68-4.43,3.49,1.3-.57,2.17-.82,2.57-.73.26.06.39.22.46.33.09.15.17.4.08.73-.12.44-.58.99-1.35,1.66,1.2-.7,1.91-1.1,1.93-1.12.23-.14.53-.06.67.17.14.23.08.53-.14.68-.94.63-4.1,2.77-8.15,5.41,6.06-3.76,6.4-3.88,6.75-3.79.13.03.26.13.32.24q.31.53-9.26,6.6c-5.83,3.7-14.3,9.08-16.58,10.84,1.2-.32,3.88-1.79,7.23-3.86,1.84-1.27,4.4-2.97,7.96-5.29.82-.53,1.65-1.07,2.38-1.55.78-.54,1.56-1.09,2.32-1.64.11-.08.26-.11.4-.08.14.03.26.12.33.24.12.21.19.34-.14.66h0s-.01.01-.02.02c-.33.3-1.02.78-2.36,1.66-1.56,1.09-3.62,2.5-5.8,3.94,3.42-1.96,3.67-1.91,3.82-1.86.13.03.26.13.32.24.14.24.06.54-.18.68-.08.05-.17.06-.26.07-.99.35-8.03,4.57-12.33,7.2-.12.07-.25.09-.38.06-.13-.03-.24-.12-.31-.23-.09-.15-.12-.31-.04-.52-1.74.87-3.1,1.37-3.75,1.23-.34-.07-.51-.27-.6-.42-.17-.29-.28-.49,1.09-1.53-4.39,2.57-6.93,3.84-7.84,3.84Zm3.61-3.09c-1.03.69-1.85,1.28-2.42,1.73,1.71-.76,4.97-2.62,8.66-4.84-2.52,1.41-4.71,2.53-6.24,3.1Zm4.77-7.7c-4.75,2.79-9.3,5.56-11.76,7.39.98-.61,2.16-1.36,3.41-2.15,2.95-1.86,5.74-3.61,8.35-5.24Zm-.64,3.81c-2.43,1.4-4.45,2.61-5.34,3.29.16-.03.33-.09.54-.16,1.19-.82,2.75-1.84,4.8-3.14Zm2.12-8.8c-7.5,4.61-14.17,8.7-16.63,10.21,2.67-.54,9.67-5.31,16.63-10.21Zm-19.27,8.3c-.59.48-1.02.89-1.26,1.23.74-.42,1.97-1.17,3.51-2.14-.86.39-1.61.7-2.25.91Zm-.35-.91l-.33.21s.08-.02.13-.04c.07-.06.13-.11.2-.17Zm-3.97-3.82c-2.37,1.38-4.28,2.59-5.41,3.5,1.34-.87,3.19-2.07,5.41-3.5Zm23.64-11.06c-10.4,6.44-19.39,12.08-22.1,13.96,3.01-.94,12.92-7.7,21.05-13.24.35-.24.7-.48,1.05-.72Zm.72,3.55c-5.91,3.3-12.01,6.79-16.2,9.51,4.17-2.17,10.13-5.74,16.2-9.51Zm-28.93,5.78c-1.59,1.17-2.76,2.18-3.36,2.94,1.62-1.02,4.87-3.05,9.05-5.65-2.6,1.39-4.6,2.36-5.69,2.71Zm52.23-13.28c-3.08.91-15.18,8.66-24.21,14.45-.13.08-.26.17-.39.25,2.35-1.37,4.93-2.85,7.69-4.43,7.08-4.05,15.01-8.6,16.91-10.27Zm-51.37,11.12c-.49.43-.84.79-1.03,1.09,1.46-1.07,3.21-2.25,5.21-3.54-1.62.98-3.01,1.8-4.19,2.45Zm43.43-9.63c-3.63,2.31-8.1,5.48-12.28,8.45-.15.1-.29.21-.44.31,8.5-5.35,16.28-10.29,18.92-12.05-.96.26-2.41,1-4.18,2.05-.65.4-1.32.82-2.01,1.24Zm-31.94-4.65c-9.59,5.65-18.22,10.94-20.43,13,2.77-1.28,11.16-6.85,19.31-12.26.37-.25.75-.5,1.12-.74Zm17.32-1.37c-8.3,4.6-17.72,9.96-24.45,14.27,5.72-3.1,14.9-8.51,24.45-14.27Zm-16.97-1.43c-11.46,6.35-23.42,13.2-24.93,15.48,2.42-1.08,11.58-6.94,20.45-12.62,1.52-.97,3.01-1.93,4.48-2.86Zm38.86-3.25c-3.94,1.14-14.86,8.58-23.82,14.7-1.06.72-2.08,1.42-3.06,2.09l26.89-16.79Zm-40.03,13.85c-.49.31-.97.61-1.44.91.8-.48,1.61-.97,2.45-1.47-.34.19-.68.37-1.02.56Zm-6.47-8.9c-6.23,3.47-11.62,6.67-13.59,8.46,2.98-1.87,7.88-4.94,13.59-8.46Zm45.81-6.89c-3.68,1.34-12.58,6.41-22.77,12.61,5.39-2.76,10.87-5.6,15.53-8.17,3.11-1.91,5.67-3.47,7.25-4.44Zm-40.77,2.4c-7.65,4.08-15.11,8.14-16.92,9.79,2.29-.82,9.28-5.03,16.92-9.79Zm12.35-4.91c-7.31,4.37-15.34,9.29-22.8,13.93,5.4-3.15,12.27-6.96,20.26-11.35,2.23-1.23,4.56-2.51,6.89-3.79,7.45-4.63,13.65-8.32,18-10.53,1.05-.72,1.79-1.3,2.14-1.71-.5.12-1.3.45-2.37.95-4.57,3-12.15,7.16-22.13,12.5Zm4.86-.36c-6.47,4.02-13.17,8.31-18.56,11.76-.41.26-.82.52-1.21.78,6.37-3.8,13.73-8.06,20.54-11.99,7.82-5.01,14.24-8.86,18.52-10.8,1.86-1.12,3.24-2,3.94-2.5-.88.08-2.66.84-5.05,2.07-3.31,2.34-9.57,5.92-18.17,10.67Zm-2.14-9.97c-11.59,6.85-23.17,13.82-30.89,18.73,7.11-3.2,20.4-11.78,30.89-18.73Zm-11.46,11.37c-.57.37-1.12.72-1.66,1.07-2.05,1.32-3.92,2.53-5.64,3.63,2.16-1.16,4.58-2.45,7.27-3.88,2.7-1.43,5.54-2.94,8.35-4.45,9.85-6.2,16.78-10.5,21.18-12.97.25-.28.41-.53.47-.74.02-.06.02-.1.01-.11-.5-.21-2.2.52-4.66,1.83-4.35,3.07-12.26,7.92-25.31,15.61Zm34.76-5.63c-2.79,1.26-8.06,4.43-13.82,8.06,3.71-2.05,7.43-4.1,10.31-5.75,1.28-.82,2.46-1.59,3.51-2.31Zm-25.88,2.84c-.58.37-1.16.73-1.74,1.09-1.41.89-2.77,1.74-4.06,2.56.72-.38,1.44-.77,2.18-1.17.9-.48,1.82-.97,2.76-1.48,8.83-5.28,17.24-10.12,22.01-12.38,2.81-1.79,4.64-3.2,4.81-3.93-.71.14-2.44,1.01-4.82,2.35-2.59,2.67-10.38,7.15-21.15,12.96Zm33.27.48c-.95.5-2.74,1.51-5.13,2.87.93-.32,1.61-.46,1.99-.37.1.02.18.05.25.09,1.47-1.04,2.48-1.92,2.89-2.59Zm-44.9-9.33c-9.1,4.71-20,10.37-21.11,12.11,2.06-.23,11.78-6.21,21.11-12.11Zm23.01-11.76c-6.33,2.83-20.29,11.32-34.93,20.94,14.32-7.98,27.84-15.99,34.93-20.94Zm-30.24,12.68c-5.04,3-9.71,5.87-12.87,8.02,3.42-2.15,7.95-4.98,12.87-8.02Zm34.96-18.62c-2.86.3-23.68,12.77-41.31,23.73,3.6-1.99,8.23-4.4,13.73-7.24,3.1-1.6,6.4-3.31,9.6-5,9.34-5.94,14.66-9.25,17.21-10.41.41-.41.68-.76.76-1.06,0,0,0-.01,0-.02Zm-34.4,17.06c-.46.29-.91.58-1.35.86,5.71-3.41,12.04-7.06,17.8-10.38,6.42-3.7,12.54-7.23,14.58-8.61-1.11.27-3.28,1.32-6.09,2.87-4.55,3.22-11.54,7.37-18.65,11.4-.77.47-1.53.94-2.3,1.41-1.33.82-2.67,1.64-3.99,2.45Zm-3.66-7.59c-3.11,1.92-5.75,3.65-7.65,5.01,2.06-1.37,4.75-3.14,7.65-5.01Zm39.6,2.2c-.89.57-1.95,1.25-3.11,2,.43-.24.85-.46,1.25-.67.7-.48,1.32-.93,1.86-1.33Zm-19.88-12.65c-3.75,1.65-11.93,6.57-20.88,12.37,7.72-4.84,16.6-9.94,20.88-12.37Zm-24.6,6.5s0,0,0,0c0,0,0,0,0,0Zm0,0s0,0,0,0c0,0,0,0,0,0Zm41.16-.57c-.11.09-.22.17-.34.26.14-.1.26-.19.36-.27,0,0-.02,0-.02,0Zm1.59-3.06c-.8.77-1.99,1.65-3.52,2.66.58-.21,1.08-.36,1.51-.45,1.39-1.08,2.27-1.91,2.54-2.43-.15.05-.33.12-.53.22Z" fill={state.darkest}/>
</svg>