<?xml version="1.0" encoding="UTF-8"?>
<svg xmlns="http://www.w3.org/2000/svg" viewBox="0 0 600 600">
  <path d="m555.46,329.44c-10.8-3.87-21.82-7.02-32.99-9.57-.37-.08-.73-.13-1.08-.15,3.05-31.85,6.1-63.69,9.15-95.54-3.26-.56-6.5-1.2-9.71-1.87-.74-.79-1.8-1.36-3.23-1.56l-10.79-1.5c-14.9-3.29-29.66-6.53-44.92-7.93-76.16-7.01-152.84-6.71-229.05-.59-36.84,2.96-73.9,4.09-110.58,8.85-14.03,1.82-27.86,4.55-41.76,7.17-5.98,1.13-11.96,2.27-17.89,3.64-.32.08-.65.15-.97.23,0,.26,0,.52.05.79,5.17,30.14,9.47,60.41,12.93,90.79-.27.01-.54.03-.82.04-.7,2.86-2.7,5.17-5.88,6.4-9.21,3.56-19.08,5.08-28.53,7.88-5.85,1.73-11.94,3.82-16.23,7.63,4.1,6.38,9.96,11.54,16.35,14.8,5.53,2.82,5.78,9.64,2.33,14.06-3.83,4.91-7.31,10.39-9.88,16.2,2.9,3.5,7.75,3.06,13.09,3.12,5.42.07,10.94.24,16.16,1.54,13.89-1.66,27.78-3.33,41.68-4.99,7.31-.88,7.26-11.97.44-12.04.56-2.33-.14-4.93-2.84-6.45-1.52-.85-3.03-1.5-4.58-2.01-.64-1.44-1.83-2.67-3.64-3.33-5.22-1.87-9.75-5.58-12.75-10.22-1.54-2.39-2.43-4.99-3.26-7.63-.29-1.13-.54-2.29-.71-3.49-.42-2.98-.91-5.97-2.15-8.63,1.17-.27,2.35-.54,3.52-.81.41,1.71.76,3.46,1.06,5.24,1.16,6.92,1.5,14,6.06,19.67.57.7,1.15,1.39,1.75,2.05-1.26-2.89-2.18-5.97-2.77-9.23-.04-.22-.1-.42-.17-.62.24-.42.42-.87.54-1.32,112.1-3.12,224.06-13.16,336.28-10.72,10.52.23,21.03.58,31.53,1.05,7.55,1.07,15.12,2.01,22.72,2.79,1.55.16,3.03-.04,4.26-.68,5.15,1.04,10.29,2.09,15.44,3.13,6.32,2.5,12.88,3.91,19.72,4.25,1.24.22,2.48.45,3.72.67,2.66.48,4.7-.54,5.92-2.16.7.22,1.41.44,2.12.65-1.54,1.14-2.63,2.91-2.6,4.91-10.05,5.48-20.58,10.03-31.57,13.58-5.49,1.78-5.5,10.36.42,11.56,15.7,3.19,31.4,6.38,47.09,9.57,2.13.43,4.07-.3,5.43-1.61,1.66,1.59,3.32,3.18,4.98,4.76,4.93,4.72,11.87-1.57,9.59-6.78-.02-.37-.06-.75-.14-1.14-1.55-7.17-3.86-13.97-6.82-20.61,4.12-2.22,8.18-4.56,12.15-7.03,4.02-2.5,8.89-5.12,10.56-9.87,3.9-11.06-11.35-14.34-18.74-16.98ZM41.21,384.24c.26-.38.52-.76.78-1.14.29.34.62.65.98.93-.59.07-1.17.14-1.76.21Zm50.93-7.16c2.7-.37,4.3-3.04,4.33-5.81,2.05,1.82,4.04,3.67,5.89,5.64l-10.84,1.3c.24-.35.45-.73.62-1.13Zm-9.82,1.66c.35.15.7.31,1.06.45-.86.1-1.71.21-2.57.31.57-.19,1.07-.45,1.51-.76Zm108.4-65.91c-.34.03-.67.06-1.01.09l-2.4-1.98c1.12.63,2.24,1.25,3.37,1.88.01,0,.02.01.04.02Zm-71.11-86.66c-5.87,1.19-11.72,2.46-17.56,3.8-2.88-.22-5.77-.44-8.65-.68-1.49-.13-2.82.51-3.83,1.52-.59-.63-1.19-1.24-1.81-1.85,10.61-.96,21.23-1.89,31.85-2.78Zm-35.12,44.79c.4.44.81.87,1.21,1.3-.32-.09-.64-.14-.96-.16-.09-.38-.17-.76-.26-1.14Zm92.76,63.33c-29.62,1.44-59.24,2.75-88.88,3.64-.2-1.94-.41-3.87-.62-5.81.72-1.18.84-2.43.53-3.6.73.69,1.55,1.33,2.49,1.88,5.78,3.36,13.31,2.9,19.76,3.2,8.28.38,16.56.61,24.85.72,15.96.21,31.92-.03,47.87-.55,6.77-.22,13.54-.51,20.31-.82.12,0,.25.02.37.03-8.9.44-17.79.88-26.68,1.32Zm112.4-51.67c-.92-.94-1.85-1.88-2.77-2.83,1.34.99,2.67,1.99,4,2.98-.41-.05-.82-.1-1.23-.15Zm93.03,8.28c-.27-.03-.54-.06-.81-.09-1.32-1.43-2.65-2.85-3.96-4.29,1.6,1.45,3.18,2.92,4.77,4.38Zm-71.14,37.39c.07-.01.13-.02.2-.03,1.48-.23,2.73-.96,3.68-1.95.67-.04,1.35-.07,2.02-.11.68.71,1.41,1.32,2.16,1.85-2.69.08-5.37.15-8.06.23Zm48.41-15.7c.28-.46.51-.95.68-1.45.53.47,1.06.93,1.59,1.4-.76.02-1.51.04-2.27.06Zm13.79-.26c.58-1.33.71-2.87.19-4.39.16-.01.31-.03.47-.04.73.88,1.82,1.55,3.32,1.83,2.26.42,4.51.87,6.77,1.31.19.19.39.38.58.58.21.21.41.42.62.63-3.98,0-7.96.03-11.94.07Zm103.56,5.62c.83-.74,1.56-1.69,2.13-2.92.11-.24.2-.47.28-.71,1.56,1.08,3.41,1.28,5.07.84.82,1.01,1.64,2.01,2.47,3.02.5.61,1.05,1.09,1.63,1.47-3.86-.62-7.72-1.17-11.58-1.7Zm18.52,2.86c-.66-.12-1.32-.23-1.98-.34.98-.25,1.89-.72,2.63-1.37-.21.57-.43,1.14-.65,1.71Zm1.57-9.05c-1.24-2.15-2.51-4.28-3.77-6.41,4.07.9,8.53-2.93,7.11-7.53.74-.36,1.45-.77,2.13-1.23-1.17,5.92-2.7,11.76-4.61,17.49-.13-.74-.4-1.52-.87-2.32Zm10.83,20.58c-1.5-.14-3-.28-4.5-.42.46-.42.84-.93,1.09-1.52,1.79-4.22,3.39-8.5,4.82-12.84-.47,4.93-.94,9.85-1.41,14.78Zm11.89.63c.04-.42.08-.85.12-1.27,4.24.97,8.45,2.04,12.64,3.2-4.22-.82-8.48-1.46-12.76-1.93Z" style="fill: #2496e7;"/>
  <g>
    <path d="m65.51,240.85c3.58,28.39,7.36,56.76,11.34,85.1,1.13,8.04,2.27,16.07,3.44,24.1.28,1.9,3.17,1.09,2.89-.8-4.07-28.14-7.94-56.31-11.61-84.5-1.04-7.96-2.06-15.93-3.06-23.9-.24-1.89-3.24-1.91-3,0h0Z" style="fill: #242b59;"/>
    <path d="m532.3,231.73c-2.45,31.62-5.28,63.21-8.5,94.75-.91,8.92-1.85,17.84-2.82,26.75-.21,1.92,2.79,1.9,3,0,3.44-31.53,6.49-63.09,9.16-94.69.75-8.93,1.48-17.87,2.17-26.81.15-1.93-2.85-1.92-3,0h0Z" style="fill: #242b59;"/>
    <path d="m519.48,350.97c-57.27-7.39-114.9-11.94-172.62-13.63s-115.52-.52-173.12,3.51c-32.42,2.27-64.77,5.44-97.02,9.51-1.89.24-1.91,3.24,0,3,57.29-7.23,114.93-11.63,172.65-13.15s115.52-.2,173.11,3.99c32.41,2.36,64.76,5.62,96.99,9.78,1.91.25,1.89-2.76,0-3h0Z" style="fill: #242b59;"/>
    <path d="m65.85,238.52c32.38-6.07,64.86-11.6,97.5-16.1,32.62-4.5,65.4-7.94,98.27-9.86s65.96-2.2,98.93-.68,66.37,4.59,99.48,7.79c16.11,1.56,32.29,2.88,48.26,5.65,3.95.68,7.88,1.46,11.79,2.35,3.3.75,6.85,2.27,10.24,2.41,1.77.07,4.16-.81,4.15-2.95,0-1.67-1.84-2.48-3.29-2.21-1.73.33-2.21,2-1.08,3.29,1.28,1.45,3.39-.68,2.12-2.12.04.04-.74,1.95-.46,1.78.11-.07-.69-.7-.9-.78-.47-.19-1.26-.12-1.79-.24-1.88-.43-3.73-1-5.61-1.45-3.61-.87-7.24-1.64-10.88-2.33-7.29-1.37-14.64-2.4-22-3.27-15.08-1.79-30.23-3.1-45.35-4.53-31.11-2.94-62.27-5.57-93.5-6.74-30.8-1.15-61.64-.68-92.41,1.19s-61.16,5.04-91.57,9.13-61.06,9.15-91.42,14.71c-3.77.69-7.53,1.39-11.29,2.1-1.9.36-1.09,3.25.8,2.89h0Z" style="fill: #242b59;"/>
    <path d="m76.73,327.1c-8.48.56-16.93,1.74-25.24,3.56-4.2.92-8.37,2.01-12.48,3.26-2.02.61-4.03,1.26-6.03,1.95-1.68.58-3.63,1.05-5.08,2.12-3.71,2.76.05,6.66,2.19,9.01,2.59,2.85,5.52,5.39,8.67,7.6,1.55,1.09,3.17,2.09,4.83,3,1.37.74,2.82,1.43,3.99,2.47s1.8,2.22,1.1,3.7c-.84,1.79-2.3,3.37-3.4,5.01-5.14,7.6-9.32,15.82-12.54,24.41-.32.85.52,2,1.45,1.9,16.02-1.73,32.03-3.45,48.05-5.18,7.93-.85,15.85-1.71,23.78-2.56l5.45-.59c1.68-.18,3.86-.06,5.36-.94,1.23-.71,1.62-2,1.64-3.35.02-2.1-.16-4.23-.25-6.33-.36-8.97-.71-17.93-1.07-26.9-.08-1.92-3.08-1.93-3,0,.3,7.64.61,15.27.91,22.91.07,1.83.15,3.65.22,5.48.04,1,.08,1.99.12,2.99.02.6.35,1.95.02,2.48-.27.42-1.3.37-1.72.41l-2.72.29-5.94.64c-15.03,1.62-30.05,3.24-45.08,4.86-8.59.93-17.17,1.85-25.76,2.78l1.45,1.9c2.76-7.36,6.3-14.43,10.52-21.07,1.08-1.7,2.21-3.37,3.38-5.02,1.03-1.45,2.17-2.87,2.42-4.69.43-3.22-2.14-5.49-4.64-6.99-3.03-1.82-6.11-3.41-8.91-5.6s-5.62-4.93-7.97-7.82c-.36-.44-1.34-1.4-1.11-2.03s1.48-.95,2.03-1.15c1.91-.7,3.84-1.35,5.77-1.98,3.95-1.27,7.94-2.39,11.97-3.36,9.08-2.18,18.32-3.58,27.64-4.19,1.92-.13,1.93-3.13,0-3h0Z" style="fill: #242b59;"/>
    <path d="m80.6,354.62c8.49,12.06,19.44,22.25,32.11,29.81,1.66.99,3.17-1.6,1.51-2.59-12.22-7.28-22.85-17.1-31.03-28.73-1.1-1.57-3.7-.07-2.59,1.51h0Z" style="fill: #242b59;"/>
    <path d="m523.53,323.85c1.76-.95,3.96-.06,5.73.45,2.18.64,4.36,1.28,6.54,1.94,4.43,1.33,8.85,2.71,13.25,4.13,8.73,2.81,17.41,5.79,26.03,8.93,1.82.66,2.6-2.24.8-2.89-9.08-3.3-18.22-6.43-27.42-9.37-4.56-1.46-9.14-2.87-13.73-4.24-2.26-.67-4.52-1.43-6.81-1.97-2.01-.48-4.03-.57-5.9.45-1.7.92-.18,3.51,1.51,2.59h0Z" style="fill: #242b59;"/>
    <path d="m575.79,339.32c-8.52,9.53-19.6,16.52-31.9,20.05-1.02.29-1.28,1.32-.9,2.2,4.57,10.61,9.13,21.22,13.7,31.84l2.05-2.05c-18.51-8.69-38.4-14.18-58.75-16.2-5.77-.57-11.57-.85-17.37-.86-1.93,0-1.93,3,0,3,20.04.02,40,3.48,58.88,10.18,5.35,1.9,10.59,4.06,15.73,6.47,1.42.67,2.65-.66,2.05-2.05-4.57-10.61-9.13-21.22-13.7-31.84l-.9,2.2c12.76-3.66,24.37-10.92,33.22-20.82,1.28-1.44-.83-3.56-2.12-2.12h0Z" style="fill: #242b59;"/>
    <path d="m482.49,348.9c.52.38.21,1.65.12,2.17-.2,1.13-.45,2.26-.67,3.38-.48,2.42-.96,4.83-1.44,7.25-.96,4.83-1.92,9.67-2.88,14.5-.37,1.89,2.52,2.69,2.89.8,1.12-5.64,2.24-11.28,3.36-16.92.54-2.74,1.13-5.47,1.63-8.22.39-2.11.38-4.19-1.5-5.55-1.56-1.14-3.06,1.46-1.51,2.59h0Z" style="fill: #242b59;"/>
    <path d="m518.95,355.11c-4.89,5.64-11.11,9.61-18.18,11.95-7.93,2.63-16.12,4.59-24.17,6.82-1.86.52-1.07,3.41.8,2.89,4.3-1.19,8.6-2.39,12.89-3.58,4.07-1.13,8.18-2.16,12.17-3.55,7.19-2.5,13.61-6.65,18.61-12.42,1.26-1.45-.85-3.58-2.12-2.12h0Z" style="fill: #242b59;"/>
    <path d="m113.69,377.02c1.26-.54,2.07-1.97,1.11-3.5-.34-.54-.71-1.05-1.06-1.58.18-.09.36-.19.52-.33.85-.73,1.32-2.27.53-3.25-.13-.17-.28-.32-.41-.49,0,0,0,0,0,0-.01,0-.02-.02-.04-.03-.85-1.03-1.73-2.02-2.63-3,.45-.09.89-.32,1.25-.72.8-.86.86-2.2.21-3.14.03-.03.06-.04.08-.07.73-.79.81-1.82.42-2.7.13-.09.25-.19.36-.31.88-.95.8-2.17.16-3.14,1.89-.44,2.89-3.43.69-4.68-1.21-.69-2.42-1.38-3.63-2.07-1.1-.63-2.69-.17-3.34.91-1.26-.76-2.62-1.33-4.13-1.59-1.01-.17-2.1.37-2.7,1.19-.18-.09-.36-.18-.55-.27-1.3-.6-2.82.05-3.45,1.14-.42-.22-.83-.45-1.26-.67-1.26-.64-2.75.01-3.41,1.09-1.15-.24-2.45.45-2.94,1.48-2.36-1.94-5.61,1.62-3.27,3.76,1.16,1.06,2.3,2.15,3.42,3.25.08.23.18.46.28.69-1.11.82-1.6,2.52-.35,3.85.08.08.16.16.25.25-.11.55,0,1.14.44,1.68,2.8,3.46,5.95,6.53,9.56,9.14.78.56,1.73.79,2.58.5,1.55,1.47,3.15,2.9,4.81,4.26.21.17.44.3.67.39,1.46,1.3,2.92,2.59,4.39,3.89,1.01.9,2.6.88,3.53-.13,1.01-1.09.74-2.49-.13-3.53-.64-.77-1.31-1.51-1.98-2.25Z" style="fill: #242b59;"/>
    <path d="m516.52,353.74c-.77-.16-1.52-.2-2.25-.15-.29-.39-.7-.68-1.18-.87-.44-.64-1.09-1.15-1.85-1.33-1.16-.27-2.41.46-3.44.93-.38.17-.76.36-1.13.54-.08-.11-.15-.21-.23-.32-1.17-1.63-3.28-1.19-4.22,0-.8-1.21-2.83-1.77-4.09-.54-.22.21-.44.43-.66.64,0-.03,0-.06,0-.09-.1-1.01-.64-1.86-1.62-2.23-.79-.3-1.82-.19-2.48.39-.13.02-.25.05-.37.09-1.27-.6-2.63-.15-3.36,1.03-.24.39-.47.8-.7,1.19.02-.06.04-.13.06-.19.68-2.36-2.69-4.2-4.26-2.28-1.83,2.23-3.13,4.79-3.79,7.61-.15.63-.02,1.28.29,1.81-1,3.08-1.99,6.16-2.99,9.24-.2.63-.04,1.31.31,1.86.21.91.96,1.7,1.87,1.92,1.37.32,2.59-.54,2.99-1.81,0,0,0,0,.01,0,.64.22,1.36.21,2-.11,1.41.25,2.85-.17,4.22-.87.13.64.49,1.27,1.18,1.82.92.75,2.01.85,3.04.28,1.94-1.06,3.81-2.25,5.62-3.53,2.57.09,5.57-1.18,7.62-2.18,4.15-2.02,7.84-5.08,10.64-8.73,1.09-1.42.73-3.73-1.25-4.14Z" style="fill: #242b59;"/>
  </g>
</svg>