<?xml version="1.0" encoding="UTF-8"?>
<svg id="Layer_1" data-name="Layer 1" xmlns="http://www.w3.org/2000/svg" viewBox="0 0 300 300">
  <path d="m269.49,113.03c-17.8,0-27.2-8.65-34.06-14.96-5.68-5.23-7.94-7.04-13.74-7.04s-8.06,1.81-13.74,7.04c-6.86,6.31-16.26,14.96-34.06,14.96s-27.2-8.65-34.06-14.96c-5.68-5.23-7.94-7.04-13.74-7.04s-8.06,1.81-13.74,7.04c-6.86,6.32-16.25,14.96-34.06,14.96s-27.2-8.65-34.06-14.96c-5.68-5.23-7.94-7.04-13.74-7.04v-30c17.8,0,27.2,8.65,34.06,14.96,5.68,5.23,7.94,7.04,13.74,7.04s8.06-1.81,13.74-7.04c6.86-6.32,16.25-14.96,34.06-14.96s27.2,8.65,34.06,14.96c5.68,5.23,7.94,7.04,13.74,7.04s8.06-1.81,13.74-7.04c6.86-6.32,16.26-14.96,34.06-14.96s27.2,8.65,34.06,14.96c5.68,5.23,7.94,7.04,13.74,7.04v30Z" fill={state.brand}/>
  <path d="m269.49,176c-17.8,0-27.2-8.65-34.06-14.96-5.68-5.23-7.94-7.04-13.74-7.04s-8.06,1.81-13.74,7.04c-6.86,6.31-16.26,14.96-34.06,14.96s-27.2-8.65-34.06-14.96c-5.68-5.23-7.94-7.04-13.74-7.04s-8.06,1.81-13.74,7.04c-6.86,6.32-16.25,14.96-34.06,14.96s-27.2-8.65-34.06-14.96c-5.68-5.23-7.94-7.04-13.74-7.04v-30c17.8,0,27.2,8.65,34.06,14.96,5.68,5.23,7.94,7.04,13.74,7.04s8.06-1.81,13.74-7.04c6.86-6.32,16.25-14.96,34.06-14.96s27.2,8.65,34.06,14.96c5.68,5.23,7.94,7.04,13.74,7.04s8.06-1.81,13.74-7.04c6.86-6.32,16.26-14.96,34.06-14.96s27.2,8.65,34.06,14.96c5.68,5.23,7.94,7.04,13.74,7.04v30Z" fill={state.darkest}/>
  <path d="m269.49,238.97c-17.8,0-27.2-8.65-34.06-14.96-5.68-5.23-7.94-7.04-13.74-7.04s-8.06,1.81-13.74,7.04c-6.86,6.31-16.26,14.96-34.06,14.96s-27.2-8.65-34.06-14.96c-5.68-5.23-7.94-7.04-13.74-7.04s-8.06,1.81-13.74,7.04c-6.86,6.32-16.25,14.96-34.06,14.96s-27.2-8.65-34.06-14.96c-5.68-5.23-7.94-7.04-13.74-7.04v-30c17.8,0,27.2,8.65,34.06,14.96,5.68,5.23,7.94,7.04,13.74,7.04s8.06-1.81,13.74-7.04c6.86-6.32,16.25-14.96,34.06-14.96s27.2,8.65,34.06,14.96c5.68,5.23,7.94,7.04,13.74,7.04s8.06-1.81,13.74-7.04c6.86-6.32,16.26-14.96,34.06-14.96s27.2,8.65,34.06,14.96c5.68,5.23,7.94,7.04,13.74,7.04v30Z" fill={state.mid}/>
</svg>