<?xml version="1.0" encoding="UTF-8"?>
<svg id="Layer_1" data-name="Layer 1" xmlns="http://www.w3.org/2000/svg" viewBox="0 0 300 300">
  <path d="m194.93,204.25H27.32c-3.57,0-6.87-1.91-8.66-5-1.79-3.09-1.79-6.91,0-10L102.46,44.1c1.79-3.09,5.09-5,8.66-5s6.87,1.91,8.66,5l83.81,145.15c1.79,3.09,1.79,6.91,0,10s-5.09,5-8.66,5Zm-150.29-20h132.97l-66.49-115.15-66.48,115.15Z" style="fill: #fff;"/>
  <path d="m194.93,200.75H27.32c-2.32,0-4.47-1.24-5.63-3.25s-1.16-4.49,0-6.5L105.49,45.85c1.16-2.01,3.31-3.25,5.63-3.25s4.47,1.24,5.63,3.25l83.81,145.15c1.16,2.01,1.16,4.49,0,6.5s-3.31,3.25-5.63,3.25Zm-156.35-13h145.09L111.12,62.1l-72.55,125.65Z" fill={state.brand}/>
  <path d="m194.93,260.9c-48.39,0-87.76-39.37-87.76-87.76s39.37-87.76,87.76-87.76,87.75,39.37,87.75,87.76-39.37,87.76-87.75,87.76Zm0-155.51c-37.36,0-67.76,30.4-67.76,67.76s30.4,67.76,67.76,67.76,67.75-30.4,67.75-67.76-30.39-67.76-67.75-67.76Z" style="fill: #fff;"/>
  <path d="m194.93,257.4c-46.46,0-84.26-37.8-84.26-84.26s37.8-84.26,84.26-84.26,84.25,37.8,84.25,84.26-37.8,84.26-84.25,84.26Zm0-155.51c-39.29,0-71.26,31.97-71.26,71.26s31.96,71.26,71.26,71.26,71.25-31.96,71.25-71.26-31.96-71.26-71.25-71.26Z" fill={state.darkest}/>
</svg>