<?xml version="1.0" encoding="UTF-8"?>
<svg id="Layer_1" data-name="Layer 1" xmlns="http://www.w3.org/2000/svg" viewBox="0 0 300 300">
  <path d="m260.46,107.5c-17.63-26.17-45.34-44.93-76.14-51.82-30.27-6.77-62.05-1.23-88.6,14.7-26.96,16.18-48.99,43.15-55.22,74.43-3.28,16.45-1.77,33.56,6.11,48.53,6.9,13.11,17.97,23.6,30.33,31.56,28.15,18.12,65.8,26.56,98.77,20.07,28.44-5.6,57.49-26.79,59.64-57.8,2.3-33-27.73-61.75-56.51-72.28-15.04-5.5-31.63-5.75-46.14,1.44-13.3,6.59-23.15,19.31-24.05,34.38-.89,14.95,6.79,29.65,19.14,37.94,12.7,8.53,30.28,10.4,44.48,4.66,6.71-2.71,13.03-7.69,14.78-15.05,1.69-7.09-.71-14.68-5.57-20-5.25-5.75-13.46-8.25-21.08-7.9-6.56.3-15.78,2.33-18.27,9.36-2.17,6.13,3,12.87,9.54,11.36,4.87-1.13,2.81-8.62-2.07-7.5-.51.12.28-1.97.56-2.28.98-1.11,2.74-1.67,4.09-2.09,3.56-1.1,7.47-1.43,11.15-.86,6.59,1.03,12.28,5.24,13.98,11.86,3.92,15.22-17.17,19.17-27.88,18.46-13.25-.88-25.54-8.26-31.49-20.27-5.73-11.56-4.73-25.69,3.81-35.59,19.91-23.09,53.21-14.33,74.51,1.58,21.09,15.76,37.86,43.58,24.38,69.53-12.88,24.78-41.82,35.25-68.29,35.37-27.7.12-57.44-8.59-79.7-25.35-9.88-7.44-18.43-17.1-23.35-28.54-5.86-13.59-5.96-28.86-2.35-43.05,6.7-26.3,24.97-48.94,47.64-63.41,22.2-14.17,48.71-20.8,74.94-17.62,26.24,3.18,51.33,15.84,69.71,34.78,4.6,4.74,8.73,9.85,12.42,15.33,2.78,4.13,9.52.24,6.71-3.92Z" style="fill: #212b50;"/>
</svg>