<?xml version="1.0" encoding="UTF-8"?>
<svg id="Layer_1" data-name="Layer 1" xmlns="http://www.w3.org/2000/svg" viewBox="0 0 300 300">
  <path d="m79.73,213.53c-8.97,0-9.16-.19-9.56-.59-.28-.28-.45-.67-.45-1.07,0-1.42,1.17-1.5,2.66-1.6.83-.06,2.04-.13,3.6-.22,3.1-.19,7.55-.44,12.95-.75,27.5-1.59,96.21-5.55,112.38-7.88-12.65-2.27-62.21-.1-90.14,1.12-36.89,1.61-42.16,1.67-43.38.5-.3-.28-.5-.75-.5-1.16,0-2.41,2.24-4.35,30.47-5.73,17.29-.84,40.02-1.25,62-1.64,29.98-.54,63.63-1.14,71.44-2.92-2.56-.81-9.95-1.8-31.03-1.44-18.09.3-40.72,1.44-62.6,2.54-45.95,2.3-64.92,3-67.47.58-.39-.38-.61-.87-.61-1.38,0-2.14,2.38-3.84,8.07-5.2-6.69-.26-10.97-1.07-12.63-2.6-.84-.78-1.02-1.63-1.02-2.2,0-1.31.61-2.22,7.59-3-8.38-.87-14.24-2.24-16.42-4.25-1.09-1-1.31-2.05-1.31-2.75,0-.82.66-1.49,1.48-1.5,71.39-.86,174.15-3.37,206.54-7.16-37.27-.18-160.28,0-229.79.16h0c-.82,0-1.49-.66-1.5-1.48,0-.82.65-1.5,1.47-1.52,69.48-1.44,168.1-4.35,205.49-7.39-11.96.26-29.5.9-47.62,1.55-85.64,3.12-151.64,5.03-157.77-.89-.66-.64-.8-1.32-.8-1.78,0-.68.21-1.7,1.22-2.68.99-.96,2.71-1.79,5.13-2.48-1.9-.77-2.63-1.45-3.09-1.87-1.18-1.09-1.42-2.21-1.42-2.97,0-.4.12-.99.68-1.55.07-.07.14-.13.22-.19-19.37-1.54-22.18-4.14-23.53-5.4-1.13-1.05-1.37-2.13-1.37-2.86,0-1.04.44-2.01,1.31-2.86,3.48-3.43,15.4-5.41,33.49-6.48-.09-.21-.14-.43-.14-.66,0-1.92,1.88-3.1,12.17-4.2,6.46-.69,15.65-1.28,28.1-1.8,22.92-.96,52.26-1.48,80.65-1.99,32.88-.59,66.73-1.2,77.44-2.42-4.25-.76-14.39-1.52-38.38-1.23-22.45.27-50.4,1.36-72.86,2.23-41.92,1.63-45.46,1.58-46.52.55-.29-.28-.49-.72-.49-1.13,0-2.73,2.77-5.56,35.83-7.6,19.73-1.22,44.5-1.79,64.41-2.25,12.06-.28,23.64-.55,30.12-.9-4.79-.64-14.46-1.18-33.93-.94-21.32.27-48.5,1.38-72.47,2.36-50.8,2.07-64.82,2.38-66.71.56-.35-.33-.54-.77-.54-1.24,0-1.9,2.11-2.69,9.39-3.53,4.84-.56,11.75-1.06,21.12-1.55,4.66-.24,9.72-.47,15.06-.68-5.12-.39-8.44-1.13-9.71-2.33-.72-.68-.87-1.41-.87-1.91,0-2.74,2.79-3.19,45.2-3.99,17.59-.33,37.53-.71,53.37-1.67,12.4-.76,19.33-1.72,23.19-2.58-10.19.41-31.23,1.19-52.39,1.67-59.93,1.36-62.4-1.01-63.46-2.02-.4-.39-.62-.88-.62-1.4,0-.83.67-1.5,1.5-1.5.57,0,1.07.32,1.32.79,6.06,2.94,76.41,1.09,119.86-.79.41,0,.81.13,1.1.42.3.28.46.67.46,1.08,0,5.23-11.71,7.64-84.28,9.01-16.88.32-34.25.65-40.51,1.48,2.63.64,8.88,1.32,23.72,1.02,14.35-.29,32.26-1.34,49.59-2.36,36.68-2.16,51.86-2.81,54.25-.55.4.38.63.88.63,1.41,0,2.83-2.76,3.58-75.29,5.71-29.35.86-67.45,1.98-83.06,3.73,11.53.1,34.82-.84,57.55-1.76,23.98-.98,51.15-2.08,72.5-2.36,32.62-.42,38.84,1.27,40.61,2.97.64.61.77,1.27.77,1.71,0,1.74-.73,2.02-11.74,2.45-6.44.25-15.35.46-25.67.7-19.12.44-42.92.99-62.24,2.12-19.42,1.13-28.14,2.54-32.04,3.6,7.41.03,23.75-.62,40.87-1.29,62.92-2.44,111.44-3.94,116.33.76.62.59.75,1.23.75,1.66,0,2.9-2.8,3.56-83.1,5-42.42.76-98.67,1.77-114.27,4.48,2.84.2,6.91.34,11.93.44,17.93-.45,39.6-.38,63.74-.09,22.53-.24,45.65-.61,63.25-.89q45.16-.72,45.87-.01c.29.28.45.67.45,1.07,0,.52-.22,1.03-.62,1.42-2.87,2.82-25.08,2.74-78.91,1.85-9.28-.15-19.11-.32-29.11-.45-10.12.11-20.05.2-29.35.24-16.02.07-27.16,0-34.94-.16-26.14.66-46.24,2.41-50.26,6.37-.27.27-.41.51-.41.72,0,.18.14.41.41.66,3.14,2.92,15.63,4.55,33.62,5.28,13.73-.99,39.17-.92,79.25-.56.43,0,.85,0,1.28.01,48.01-1.6,99.31-4.76,128.5-6.89.42-.03.83.11,1.13.4.31.28.48.68.48,1.1,0,.58-.18,1.45-1.03,2.29-6.68,6.62-57.29,6.74-128.27,6.11-38.99,1.34-64.76,1.28-81.9.54-4.8.34-8.1.8-9.35,1.43.08.12.19.26.34.39,1.19,1.1,3.62,2.02,7.13,2.79,19.68-3.09,62.09-2.3,119.49-.77,11.75.31,23.24.62,34.17.86,32.48-1.64,62.71-3.63,82.64-5.13.41-.03.83.11,1.13.4.31.28.48.68.48,1.1,0,.58-.18,1.45-1.04,2.29-5.06,4.93-34.46,5.36-82.93,4.34-10.87.56-22.19,1.09-33.56,1.55-34.33,1.38-62.39,1.84-83.39,1.36-19.58-.45-30.68-1.69-37.1-3.01-4.61.74-7.74,1.7-9.02,2.95-.11.11-.19.21-.25.3,1.58,1.11,10.41,3.23,55.47,2.75,30.59-.33,69.03-1.73,99.93-2.85,54.91-2,63.38-2.1,64.71-.82.29.28.49.74.49,1.15,0,1.97,0,3.28-36.01,5.34-17.12.98-40.51,1.98-69.62,2.97.99,0,1.98,0,2.97,0,34.94-.04,62.8-.05,82.81-.02q38.31.04,38.92.66c.28.28.44.67.44,1.06,0,2.56,0,6.08-110.3,9.27-46.27,1.34-93.06,2.02-105.61,2.19,5.77,2.76,22.67,3.79,44.37,3.79h.24c11.58-.41,26.58-.85,45.98-1.36,4.95-.13,10.04-.26,15.19-.4,30.01-1.45,59.29-3.51,77.34-4.98.42-.03.83.11,1.14.39.31.28.48.68.48,1.1,0,1.89-2.02,2.62-9.41,3.41-4.85.52-11.81.99-21.26,1.44-.79.04-1.6.07-2.42.11,6.69.3,11,1.16,12.72,2.74.88.81,1.06,1.7,1.06,2.29,0,1.76-.58,2.28-13.73,2.64-7.66.21-18.18.28-30.37.37-21.61.16-48.5.35-69.87,1.42-28.15,1.4-35.2,3.83-36.96,5.02,6.39,1.27,37.08-.27,64.37-1.64,55.48-2.78,92.21-4.26,97.05.34.7.66.84,1.38.84,1.86,0,3.47-6.96,4.4-75.5,5.63-29.81.53-68.64,1.23-83.63,3.32,7.91-.11,21.54-.71,34.86-1.29,52.89-2.31,90.68-3.62,95.14.66.63.6.76,1.25.76,1.68,0,1.94,0,2.83-45.92,5.99-11.36.78-23.81,1.57-35.66,2.29h.03c98.93-1,108.74-.63,109.99.61.28.28.47.71.47,1.11,0,.83-.67,1.5-1.5,1.5-.29,0-.56-.08-.8-.23-5.12-1.04-67.01-.41-108.13,0-24.72.25-38.23.38-45.68.38Zm153.11-1.65h0Zm0,0h0s0,0,0,0Zm0,0h0s0,0,0,0Zm0,0h0s0,0,0,0Zm-165.09-29.46c1.79.73,7.22,1.73,23.45,1.22,14.22-.45,33.13-1.93,51.41-3.35,10.4-.81,19.9-1.53,28.45-2.11-1.02.03-2.04.06-3.07.08-22.35,1.14-46.21,2-66.27,1.9-16.55.61-29.66,1.33-33.97,2.26Zm135.94-2.7c-2.24,0-4.78.04-7.64.12-10.79.32-24.12,1.22-37.89,2.25,6.76-.09,13.99-.16,21.71-.21,17.37-.13,33.93-.25,39.76-.82-1.83-.62-6.08-1.35-15.93-1.35Zm-147.89-32.58c21.87,2.03,59.01,1.66,97.99.27-36.59-.96-74.82-1.81-97.99-.27Zm217.67-3.28c-6.44.46-17.12,1.19-30.45,2.04,16.86-.24,25.76-1.13,30.45-2.04Zm-23.72-10.09c-10.12.7-32.84,2.22-60.35,3.71,7.83-.07,15.3-.19,22.25-.4,22.75-.67,33.26-2.09,38.1-3.32Zm-52.05-41.74c-9.76,0-26.48.96-42.11,1.88,17.03-.54,32.89-1.15,42.18-1.88h-.07Zm-113.83-10.16h.01-.01Z" fill={state.brand}/>
</svg>