<?xml version="1.0" encoding="UTF-8"?>
<svg id="Layer_1" data-name="Layer 1" xmlns="http://www.w3.org/2000/svg" xmlns:xlink="http://www.w3.org/1999/xlink" viewBox="0 0 300 300">
  <defs>
    <clipPath id="clippath">
      <path d="m270.96,98.42v103.17c0,11.3-6.03,21.74-15.81,27.38l-89.34,51.58c-9.78,5.65-21.84,5.65-31.62,0l-89.35-51.58c-9.78-5.65-15.81-16.09-15.81-27.38v-103.17c0-11.3,6.03-21.74,15.81-27.38l89.35-51.58c9.78-5.65,21.84-5.65,31.62,0l89.34,51.58c9.78,5.65,15.81,16.09,15.81,27.38Z" fill={state.brand}/>
    </clipPath>
  </defs>
  <path d="m270.96,98.42v103.17c0,11.3-6.03,21.74-15.81,27.38l-89.34,51.58c-9.78,5.65-21.84,5.65-31.62,0l-89.35-51.58c-9.78-5.65-15.81-16.09-15.81-27.38v-103.17c0-11.3,6.03-21.74,15.81-27.38l89.35-51.58c9.78-5.65,21.84-5.65,31.62,0l89.34,51.58c9.78,5.65,15.81,16.09,15.81,27.38Z" fill={state.brand}/>
  <g style="clip-path: url(#clippath);">
    <g style="opacity: .08;">
      <path d="m270.96,93.67v121.78c0,2.77-1.48,5.33-3.87,6.71l-105.47,60.89c-5.16,2.98-11.62-.75-11.62-6.71v-121.72c0-2.77,1.48-5.32,3.87-6.71l105.47-60.96c5.16-2.98,11.62.74,11.62,6.71Z" style="fill: #fff;"/>
    </g>
    <g style="opacity: .15;">
      <path d="m150,154.61v121.76c0,5.95-6.44,9.67-11.59,6.69l-105.51-60.92c-2.39-1.38-3.86-3.93-3.86-6.69v-121.82c0-5.95,6.44-9.67,11.6-6.69l105.51,60.98c2.39,1.38,3.86,3.93,3.86,6.69Z" style="fill: #03081b;"/>
    </g>
  </g>
</svg>