<?xml version="1.0" encoding="UTF-8"?>
<svg id="Layer_1" data-name="Layer 1" xmlns="http://www.w3.org/2000/svg" viewBox="0 0 300 300">
  <path d="m113.85,273.14c.3-.32,1.15-1.68,1.15-3.65h-30c0-12.04,8.44-21.5,25.07-28.12,10.38-4.14,23.63-7.3,36.44-10.36,9.78-2.34,24.42-5.84,33.11-9.31-8.69-3.47-23.33-6.97-33.11-9.31-12.81-3.06-26.06-6.23-36.44-10.36-16.64-6.63-25.07-16.09-25.07-28.12s8.44-21.5,25.07-28.12c10.38-4.14,23.63-7.3,36.44-10.36,9.78-2.34,24.42-5.84,33.11-9.31-8.69-3.47-23.33-6.97-33.11-9.31-12.81-3.06-26.06-6.23-36.44-10.36-16.64-6.63-25.07-16.09-25.07-28.13s8.44-21.5,25.07-28.13c10.38-4.14,23.63-7.3,36.44-10.36,13.27-3.17,35.47-8.48,39.64-12.96-.3.32-1.15,1.68-1.15,3.65h30c0,12.04-8.44,21.5-25.07,28.13-10.38,4.14-23.63,7.3-36.44,10.36-9.78,2.34-24.43,5.84-33.11,9.31,8.69,3.47,23.33,6.97,33.11,9.31,12.81,3.06,26.06,6.23,36.44,10.36,16.64,6.63,25.07,16.09,25.07,28.13s-8.44,21.5-25.07,28.12c-10.38,4.14-23.63,7.3-36.44,10.36-9.78,2.34-24.42,5.84-33.11,9.31,8.69,3.47,23.33,6.97,33.11,9.31,12.81,3.06,26.06,6.23,36.44,10.36,16.64,6.63,25.07,16.09,25.07,28.12s-8.44,21.5-25.07,28.12c-10.38,4.14-23.63,7.3-36.44,10.36-13.27,3.17-35.47,8.48-39.64,12.96Z" fill={state.brand}/>
</svg>