<?xml version="1.0" encoding="UTF-8"?>
<svg id="Layer_1" data-name="Layer 1" xmlns="http://www.w3.org/2000/svg" viewBox="0 0 300 300">
  <g>
    <path d="m128.76,187.75h-20.37c.74,4.46,1.83,8.8,3.23,13h21.43c-1.85-4.13-3.3-8.48-4.29-13Z" fill={state.brand}/>
    <path d="m200.56,197.5c-1.17,2.01-3.31,3.25-5.63,3.25h-61.88c-1.85-4.13-3.3-8.48-4.29-13h54.91l-36.28-62.83-1.8-3.13-6.66-11.53-1.79-3.1-26.02-45.06-72.54,125.65h69.81c.74,4.46,1.83,8.8,3.23,13H27.32c-2.33,0-4.47-1.24-5.63-3.25-1.16-2.01-1.16-4.49,0-6.5L105.49,45.85c1.16-2.02,3.31-3.25,5.63-3.25,1.16,0,2.28.31,3.25.87s1.8,1.37,2.38,2.38l30.85,53.42,1.75,3.04,6.51,11.28,1.75,3.03,42.95,74.38c1.16,2.01,1.16,4.49,0,6.5Z" fill={state.brand}/>
  </g>
  <path d="m194.93,85.39c-16.17,0-31.33,4.39-44.35,12.05l1.75,3.04,6.5,11.26,1.75,3.02c10.08-5.95,21.82-9.37,34.35-9.37,37.36,0,67.75,30.4,67.75,67.76s-30.39,67.75-67.75,67.75c-26.16,0-48.9-14.9-60.19-36.65-.6-1.15-1.16-2.31-1.69-3.5-1.85-4.13-3.3-8.48-4.29-13-.26-1.15-.49-2.32-.68-3.5-.6-3.61-.91-7.32-.91-11.1,0-17.55,6.71-33.57,17.69-45.62l-1.82-3.16-6.74-11.66-1.81-3.14c-16.82,16-27.32,38.59-27.32,63.58,0,3.76.24,7.46.7,11.1.15,1.17.32,2.34.52,3.5.74,4.46,1.83,8.8,3.23,13,.39,1.18.8,2.35,1.25,3.5,12.58,33.09,44.62,56.65,82.06,56.65,48.39,0,87.75-39.36,87.75-87.75s-39.36-87.76-87.75-87.76Z" style="fill: #fff;"/>
  <g>
    <path d="m133.05,200.75c-1.85-4.13-3.3-8.48-4.29-13-.26-1.15-.49-2.32-.68-3.5h-20.21c.15,1.17.32,2.34.52,3.5.74,4.46,1.83,8.8,3.23,13,.39,1.18.8,2.35,1.25,3.5h21.87c-.6-1.15-1.16-2.31-1.69-3.5Z" style="fill: #fff;"/>
    <path d="m203.59,199.25c-1.79,3.09-5.09,5-8.66,5h-60.19c-.6-1.15-1.16-2.31-1.69-3.5h61.88c2.32,0,4.46-1.24,5.63-3.25,1.16-2.01,1.16-4.49,0-6.5l-42.95-74.38-1.75-3.03-6.51-11.28-1.75-3.04-30.85-53.42c-.58-1.01-1.41-1.82-2.38-2.38s-2.09-.87-3.25-.87c-2.32,0-4.47,1.23-5.63,3.25L21.69,191c-1.16,2.01-1.16,4.49,0,6.5,1.16,2.01,3.3,3.25,5.63,3.25h84.3c.39,1.18.8,2.35,1.25,3.5H27.32c-3.58,0-6.88-1.91-8.66-5-1.79-3.09-1.79-6.91,0-10L102.46,44.1c1.79-3.1,5.09-5,8.66-5s6.88,1.9,8.66,5l30.8,53.34,1.75,3.04,6.5,11.26,1.75,3.02,43.01,74.49c1.78,3.09,1.78,6.91,0,10Z" style="fill: #fff;"/>
    <path d="m183.67,187.75h-54.91c-.26-1.15-.49-2.32-.68-3.5h49.53l-32.75-56.72-1.82-3.16-6.74-11.66-1.81-3.14-23.37-40.47-66.48,115.15h63.23c.15,1.17.32,2.34.52,3.5H38.58L111.12,62.1l26.02,45.06,1.79,3.1,6.66,11.53,1.8,3.13,36.28,62.83Z" style="fill: #fff;"/>
  </g>
  <path d="m194.93,88.89c-15.53,0-30.1,4.23-42.6,11.59l6.5,11.26c10.59-6.26,22.93-9.85,36.1-9.85,39.29,0,71.25,31.97,71.25,71.26s-31.96,71.25-71.25,71.25c-28.15,0-52.54-16.4-64.1-40.15-.57-1.15-1.1-2.32-1.6-3.5-1.75-4.15-3.12-8.5-4.05-13-.25-1.16-.46-2.32-.65-3.5-.57-3.62-.86-7.32-.86-11.1,0-18.86,7.36-36.03,19.37-48.78l-6.74-11.66c-15.8,15.31-25.63,36.75-25.63,60.44,0,3.76.25,7.47.73,11.1.15,1.17.33,2.34.54,3.5.78,4.46,1.92,8.81,3.38,13,.4,1.18.84,2.35,1.3,3.5,12.4,31.11,42.83,53.15,78.31,53.15,46.46,0,84.25-37.79,84.25-84.25s-37.79-84.26-84.25-84.26Z" fill={state.darkest}/>
</svg>